# Blender v2.79 (sub 0) OBJ File: ''
# www.blender.org
mtllib TestEnemy.mtl
o Cube_Cube.001
v -0.166737 -0.166737 0.166737
v -0.166737 0.166737 0.166737
v -0.166737 -0.166737 -0.166737
v -0.166737 0.166737 -0.166737
v 0.166737 -0.166737 0.166737
v 0.166737 0.166737 0.166737
v 0.166737 -0.166737 -0.166737
v 0.166737 0.166737 -0.166737
vt 0.340369 0.684830
vt 0.231258 0.684830
vt 0.231258 0.575719
vt 0.340369 0.575719
vt 0.231258 0.793940
vt 0.122147 0.793940
vt 0.122147 0.684830
vt 0.231258 0.684830
vt 0.122147 0.575719
vt 0.231258 0.575719
vt 0.231258 0.793940
vt 0.231258 0.684830
vt 0.340369 0.684830
vt 0.340369 0.793940
vt 0.449480 0.684830
vt 0.340369 0.684830
vt 0.340369 0.575719
vt 0.449480 0.575719
vt 0.231258 0.793940
vt 0.231258 0.903051
vt 0.122147 0.903051
vt 0.122147 0.793940
vn -1.0000 0.0000 0.0000
vn 0.0000 0.0000 -1.0000
vn 1.0000 0.0000 0.0000
vn 0.0000 0.0000 1.0000
vn 0.0000 -1.0000 0.0000
vn 0.0000 1.0000 0.0000
usemtl Enemy
s off
f 1/1/1 2/2/1 4/3/1 3/4/1
f 3/5/2 4/6/2 8/7/2 7/8/2
f 7/8/3 8/7/3 6/9/3 5/10/3
f 5/11/4 6/12/4 2/13/4 1/14/4
f 3/15/5 7/16/5 5/17/5 1/18/5
f 8/19/6 4/20/6 2/21/6 6/22/6
