# Blender v2.79 (sub 0) OBJ File: 'tree.blend'
# www.blender.org
mtllib BigDirtHill.mtl
o rocks.002
v -0.444641 0.249583 0.246582
v -0.288572 0.299166 0.313556
v -0.368399 0.299166 0.162009
v 0.282057 0.249583 0.264644
v 0.068912 0.200000 0.451414
v 0.297336 0.200000 0.268426
v 0.068912 0.474272 0.362786
v 0.174288 0.474272 0.278370
v 0.082933 0.618608 -0.188932
v 0.201534 0.356305 0.030453
v 0.118901 0.356305 -0.249960
v 0.143337 0.618608 0.016046
v -0.134716 0.618608 0.046669
v -0.134716 0.618608 -0.113673
v -0.223830 0.389248 0.028644
v -0.289195 0.200000 -0.127580
v -0.230535 0.299166 -0.011478
v -0.221339 0.233164 -0.088752
v -0.317275 0.299166 -0.011478
v -0.385702 0.200000 -0.127580
v 0.157851 0.474272 0.060973
v 0.186182 0.356305 0.042752
v 0.168701 0.417301 0.042563
v 0.204894 0.356305 0.106251
v 0.198102 0.474272 0.197560
v 0.271742 0.200000 0.181573
v -0.177940 0.389248 -0.127082
v -0.112538 0.618608 -0.188932
v -0.143989 0.389248 -0.242295
v -0.243816 0.299166 0.033591
v -0.067126 0.389248 -0.411372
v 0.005202 0.200000 -0.431812
v -0.014892 0.200000 -0.500000
v -0.005898 0.264894 -0.378307
v -0.017302 0.389248 -0.242295
v 0.003981 0.327640 -0.256629
v -0.288572 0.231401 -0.485294
v -0.297239 0.200000 -0.500000
v -0.169817 0.389248 -0.411372
v 0.129175 0.474272 0.060973
v -0.014802 0.474272 0.176311
v -0.014802 0.618608 0.142730
v 0.377104 0.356305 -0.031704
v 0.500000 0.200000 -0.001281
v 0.022910 0.356305 -0.249960
v 0.242619 0.356305 -0.302939
v 0.335927 0.356305 -0.171439
v 0.349035 0.249583 -0.390931
v -0.035601 0.200000 0.367690
v -0.088066 0.299166 0.293616
v -0.074995 0.474272 0.247504
v -0.128954 0.299166 0.260861
v -0.384490 0.200000 -0.203919
v -0.299973 0.389248 -0.224841
v -0.096709 0.299166 0.151437
v -0.046527 0.474272 0.150897
v 0.038522 0.356305 -0.302939
v -0.200765 0.299166 0.383898
v 0.373129 0.200000 -0.431812
v -0.268239 0.389248 -0.332527
v -0.200765 0.200000 0.500000
v -0.500000 0.200000 0.260286
vt 0.856695 0.328163
vt 0.880386 0.319053
vt 0.876926 0.343922
vt 0.697317 0.187003
vt 0.687367 0.164604
vt 0.709160 0.185506
vt 0.629920 0.180619
vt 0.639973 0.190262
vt 0.612258 0.279567
vt 0.673291 0.233609
vt 0.673291 0.288680
vt 0.612258 0.239311
vt 0.748090 0.412552
vt 0.737976 0.384452
vt 0.801353 0.395918
vt 0.641492 0.370507
vt 0.632464 0.343198
vt 0.647255 0.355771
vt 0.616673 0.353274
vt 0.623922 0.381718
vt 0.643649 0.230420
vt 0.671826 0.232204
vt 0.657257 0.233169
vt 0.671826 0.219734
vt 0.643649 0.203596
vt 0.709160 0.202563
vt 0.786787 0.367734
vt 0.730937 0.370831
vt 0.776011 0.346883
vt 0.824443 0.364946
vt 0.817264 0.383044
vt 0.821479 0.391201
vt 0.689096 0.348571
vt 0.673556 0.312371
vt 0.689096 0.308003
vt 0.668288 0.327763
vt 0.650564 0.359403
vt 0.647255 0.347126
vt 0.872373 0.290005
vt 0.880390 0.238449
vt 0.880390 0.291638
vt 0.832069 0.248289
vt 0.832069 0.267634
vt 0.641436 0.231947
vt 0.627700 0.218772
vt 0.597171 0.224841
vt 0.688255 0.235492
vt 0.730937 0.223451
vt 0.815956 0.238903
vt 0.823628 0.231328
vt 0.830303 0.234894
vt 0.823628 0.213245
vt 0.762543 0.220020
vt 0.815956 0.262768
vt 0.762543 0.256844
vt 0.684045 0.291665
vt 0.688255 0.262935
vt 0.717397 0.301899
vt 0.775424 0.454420
vt 0.840574 0.439126
vt 0.835054 0.451765
vt 0.821785 0.433740
vt 0.783024 0.437016
vt 0.823944 0.428795
vt 0.840574 0.345738
vt 0.835541 0.357263
vt 0.793232 0.352976
vt 0.813710 0.408992
vt 0.773989 0.419532
vt 0.685064 0.385119
vt 0.671597 0.380134
vt 0.685064 0.359403
vt 0.678598 0.388834
vt 0.709554 0.314455
vt 0.721081 0.308003
vt 0.712269 0.319384
vt 0.855120 0.236755
vt 0.873892 0.165353
vt 0.873892 0.234663
vt 0.859549 0.169892
vt 0.828677 0.189939
vt 0.828677 0.228387
vt 0.730937 0.308003
vt 0.806726 0.296644
vt 0.783160 0.333487
vt 0.768016 0.317755
vt 0.647565 0.359403
vt 0.671597 0.384693
vt 0.647255 0.384693
vt 0.664175 0.359403
vt 0.812881 0.292153
vt 0.863067 0.399838
vt 0.886986 0.376989
vt 0.840574 0.325911
vt 0.741757 0.427054
vt 0.772313 0.423369
vt 0.863067 0.292153
vt 0.886986 0.309147
vt 0.730937 0.238432
vt 0.743009 0.208641
vt 0.740091 0.261021
vt 0.755371 0.261021
vt 0.689096 0.318538
vt 0.693868 0.311877
vt 0.691730 0.339332
vt 0.715868 0.347795
vt 0.715375 0.360403
vt 0.721081 0.352441
vt 0.627398 0.341986
vt 0.602798 0.330075
vt 0.597171 0.348610
vt 0.614651 0.315577
vt 0.634954 0.314754
vt 0.647255 0.317696
vt 0.640474 0.308003
vt 0.804977 0.269164
vt 0.824555 0.286175
vt 0.814293 0.292153
vt 0.816145 0.172361
vt 0.789682 0.197045
vt 0.802829 0.164604
vt 0.796905 0.197678
vt 0.795733 0.200570
vn -0.3761 0.8995 0.2225
vn 0.5658 0.2241 0.7935
vn 0.9324 0.1883 -0.3086
vn -0.9343 0.3564 0.0000
vn -0.9461 0.2475 -0.2091
vn -0.9411 0.2194 -0.2573
vn -0.0000 0.7152 -0.6989
vn 0.9174 0.2573 -0.3037
vn -0.9324 0.1883 -0.3086
vn 0.8857 0.3600 -0.2932
vn -0.0000 0.3788 -0.9255
vn 0.5728 0.1633 0.8032
vn 0.5008 0.5060 0.7022
vn -0.0000 0.2079 -0.9782
vn 0.4970 0.7720 -0.3962
vn -0.5658 0.2241 0.7935
vn -0.5508 0.3161 0.7724
vn -0.9174 0.2573 -0.3037
vn -0.7853 0.5619 -0.2600
vn -0.0000 0.2778 -0.9606
vn -0.0000 0.5846 -0.8113
vn 0.7853 0.5619 -0.2600
vn -0.4618 0.6061 -0.6476
vn 0.8720 0.3952 0.2887
vn 0.4461 0.6401 0.6255
vn -0.8857 0.3600 -0.2932
vn -0.6832 0.6943 -0.2262
vn -0.5728 0.1633 0.8032
vn -0.4461 0.6401 0.6255
vn 0.0000 1.0000 0.0000
usemtl FinalGround
s 1
f 1/1/1 2/2/1 3/3/1
f 4/4/2 5/5/2 6/6/2
f 5/5/2 4/4/2 7/7/2
f 7/7/2 4/4/2 8/8/2
f 9/9/3 10/10/3 11/11/3
f 10/10/3 9/9/3 12/12/3
f 13/13/4 14/14/5 15/15/6
f 16/16/7 17/17/7 18/18/7
f 17/17/7 16/16/7 19/19/7
f 19/19/7 16/16/7 20/20/7
f 21/21/8 22/22/8 23/23/8
f 22/22/8 21/21/8 24/24/8
f 24/24/8 21/21/8 25/25/8
f 24/24/8 25/25/8 26/26/8
f 26/26/8 25/25/8 6/6/8
f 6/6/8 25/25/8 4/4/8
f 27/27/9 28/28/9 29/29/9
f 28/28/9 27/27/9 14/14/5
f 14/14/5 27/27/9 18/30/9
f 14/14/5 18/30/9 15/15/6
f 15/15/6 18/30/9 17/31/9
f 15/15/6 17/31/9 30/32/9
f 31/33/10 32/34/10 33/35/10
f 32/34/10 31/33/10 34/36/10
f 34/36/10 31/33/10 35/37/10
f 34/36/10 35/37/10 36/38/10
f 37/39/11 33/40/11 38/41/11
f 33/40/11 37/39/11 31/42/11
f 31/42/11 37/39/11 39/43/11
f 12/12/12 22/22/12 10/10/12
f 22/22/12 12/12/12 23/23/12
f 23/23/12 12/12/12 40/44/12
f 40/44/12 12/12/12 41/45/12
f 41/45/12 12/12/12 42/46/12
f 43/47/13 26/26/13 44/48/13
f 26/26/13 43/47/13 24/24/13
f 35/49/14 45/50/14 36/51/14
f 45/50/14 35/49/14 11/52/14
f 11/52/14 35/49/14 9/53/14
f 9/53/14 35/49/14 29/54/14
f 9/53/14 29/54/14 28/55/14
f 46/56/15 47/57/15 48/58/15
f 7/59/16 49/60/16 5/61/16
f 49/60/16 7/59/16 50/62/16
f 51/63/16 50/62/16 7/59/16
f 50/62/16 51/63/16 52/64/16
f 18/30/17 53/65/17 16/66/17
f 53/65/17 18/30/17 54/67/17
f 54/67/17 18/30/17 27/27/17
f 55/68/18 51/63/18 56/69/18
f 51/63/18 55/68/18 52/64/18
f 36/70/19 57/71/19 34/72/19
f 57/71/19 36/70/19 45/73/19
f 21/74/20 23/75/20 40/76/20
f 34/77/21 59/78/21 32/79/21
f 59/78/21 34/77/21 48/80/21
f 48/80/21 34/77/21 46/81/21
f 46/81/21 34/77/21 57/82/21
f 48/58/22 44/48/22 59/83/22
f 44/48/22 48/58/22 47/57/22
f 44/48/22 47/57/22 43/47/22
f 37/84/23 60/85/23 39/86/23
f 8/8/24 4/4/24 25/25/24
f 50/87/25 61/88/25 49/89/25
f 61/88/25 50/87/25 58/90/25
f 53/65/26 37/84/26 38/91/26
f 37/84/26 53/65/26 60/85/26
f 60/85/26 53/65/26 54/67/26
f 20/92/27 3/3/27 19/93/27
f 3/3/27 20/92/27 1/1/27
f 1/1/27 20/92/27 62/94/27
f 42/95/28 56/69/28 41/96/28
f 13/13/28 56/69/28 42/95/28
f 15/15/28 56/69/28 13/13/28
f 30/32/28 56/69/28 15/15/28
f 56/69/28 30/32/28 55/68/28
f 2/2/29 61/97/29 58/98/29
f 61/97/29 2/2/29 62/94/29
f 62/94/29 2/2/29 1/1/29
usemtl FinalGrass
f 9/53/30 42/99/30 12/100/30
f 42/99/30 9/53/30 28/55/30
f 42/99/30 28/55/30 13/101/30
f 13/101/30 28/55/30 14/102/30
f 21/74/30 8/103/30 25/104/30
f 8/103/30 21/74/30 7/105/30
f 7/105/30 21/74/30 40/76/30
f 7/105/30 40/76/30 41/106/30
f 7/105/30 41/106/30 51/107/30
f 51/107/30 41/106/30 56/108/30
f 19/19/30 30/109/30 17/17/30
f 30/109/30 19/19/30 2/110/30
f 2/110/30 19/19/30 3/111/30
f 58/112/30 30/109/30 2/110/30
f 52/113/30 30/109/30 58/112/30
f 30/109/30 52/113/30 55/114/30
f 58/112/30 50/115/30 52/113/30
f 31/42/30 29/54/30 35/49/30
f 29/54/30 31/42/30 39/43/30
f 29/54/30 39/43/30 27/116/30
f 27/116/30 39/43/30 60/117/30
f 27/116/30 60/117/30 54/118/30
f 47/119/30 24/120/30 43/121/30
f 24/120/30 47/119/30 46/81/30
f 24/120/30 46/81/30 10/122/30
f 10/122/30 46/81/30 11/52/30
f 11/52/30 46/81/30 57/82/30
f 11/52/30 57/82/30 45/50/30
f 22/123/30 24/120/30 10/122/30
