# Blender v2.79 (sub 0) OBJ File: 'tree.blend'
# www.blender.org
mtllib BigHill.mtl
o rocks
v -0.444641 0.249583 0.246582
v -0.288572 0.299166 0.313556
v -0.368399 0.299166 0.162009
v 0.282057 0.249583 0.264644
v 0.068912 0.200000 0.451414
v 0.297336 0.200000 0.268426
v 0.068912 0.474272 0.362786
v 0.174288 0.474272 0.278370
v 0.082933 0.618608 -0.188932
v 0.201534 0.356305 0.030453
v 0.118901 0.356305 -0.249960
v 0.143337 0.618608 0.016046
v -0.134716 0.618608 0.046669
v -0.134716 0.618608 -0.113673
v -0.223830 0.389248 0.028644
v -0.289195 0.200000 -0.127580
v -0.230535 0.299166 -0.011478
v -0.221339 0.233164 -0.088752
v -0.317275 0.299166 -0.011478
v -0.385702 0.200000 -0.127580
v 0.157851 0.474272 0.060973
v 0.186182 0.356305 0.042752
v 0.168701 0.417301 0.042563
v 0.204894 0.356305 0.106251
v 0.198102 0.474272 0.197560
v 0.271742 0.200000 0.181573
v -0.177940 0.389248 -0.127082
v -0.112538 0.618608 -0.188932
v -0.143989 0.389248 -0.242295
v -0.243816 0.299166 0.033591
v -0.067126 0.389248 -0.411372
v 0.005202 0.200000 -0.431812
v -0.014892 0.200000 -0.500000
v -0.005898 0.264894 -0.378307
v -0.017302 0.389248 -0.242295
v 0.003981 0.327640 -0.256629
v -0.288572 0.231401 -0.485294
v -0.297239 0.200000 -0.500000
v -0.169817 0.389248 -0.411372
v 0.129175 0.474272 0.060973
v -0.014802 0.474272 0.176311
v -0.014802 0.618608 0.142730
v 0.377104 0.356305 -0.031704
v 0.500000 0.200000 -0.001281
v 0.022910 0.356305 -0.249960
v 0.242619 0.356305 -0.302939
v 0.335927 0.356305 -0.171439
v 0.349035 0.249583 -0.390931
v -0.035601 0.200000 0.367690
v -0.088066 0.299166 0.293616
v -0.074995 0.474272 0.247504
v -0.128954 0.299166 0.260861
v -0.384490 0.200000 -0.203919
v -0.299973 0.389248 -0.224841
v -0.096709 0.299166 0.151437
v -0.046527 0.474272 0.150897
v 0.038522 0.356305 -0.302939
v 0.373129 0.200000 -0.431812
v -0.268239 0.389248 -0.332527
v -0.200765 0.200000 0.500000
v -0.200765 0.299166 0.383898
v -0.500000 0.200000 0.260286
vt 0.365832 0.294584
vt 0.392239 0.284430
vt 0.388382 0.312150
vt 0.188186 0.137245
vt 0.177096 0.112278
vt 0.201387 0.135576
vt 0.113064 0.130128
vt 0.124270 0.140876
vt 0.093378 0.240419
vt 0.161406 0.189193
vt 0.161406 0.250575
vt 0.093378 0.195548
vt 0.244779 0.388646
vt 0.233506 0.357325
vt 0.304147 0.370106
vt 0.125963 0.341782
vt 0.115900 0.311342
vt 0.132386 0.325357
vt 0.098299 0.322573
vt 0.106379 0.354278
vt 0.128367 0.185638
vt 0.159774 0.187627
vt 0.143535 0.188702
vt 0.159774 0.173727
vt 0.128367 0.155739
vt 0.201387 0.154588
vt 0.287912 0.338692
vt 0.225660 0.342144
vt 0.275901 0.315450
vt 0.329884 0.335584
vt 0.321882 0.355756
vt 0.326580 0.364848
vt 0.179023 0.317332
vt 0.161702 0.276982
vt 0.179023 0.272113
vt 0.155831 0.294139
vt 0.136074 0.329405
vt 0.132386 0.315721
vt 0.383307 0.252053
vt 0.392244 0.194587
vt 0.392244 0.253873
vt 0.338384 0.205555
vt 0.338384 0.227117
vt 0.125900 0.187340
vt 0.110590 0.172655
vt 0.076561 0.179419
vt 0.178086 0.191291
vt 0.225660 0.177870
vt 0.320425 0.195093
vt 0.328975 0.186650
vt 0.336416 0.190624
vt 0.328975 0.166494
vt 0.260889 0.174046
vt 0.320425 0.221694
vt 0.260889 0.215090
vt 0.173393 0.253903
vt 0.178086 0.221879
vt 0.210569 0.265310
vt 0.275247 0.435313
vt 0.347864 0.418266
vt 0.341711 0.432354
vt 0.326921 0.412263
vt 0.283718 0.415914
vt 0.329328 0.406751
vt 0.347864 0.314174
vt 0.342254 0.327020
vt 0.295096 0.322242
vt 0.317920 0.384678
vt 0.273647 0.396426
vt 0.174529 0.358069
vt 0.159518 0.352512
vt 0.174529 0.329405
vt 0.167322 0.362210
vt 0.201827 0.279305
vt 0.214674 0.272113
vt 0.204852 0.284799
vt 0.364077 0.192698
vt 0.385001 0.113112
vt 0.385001 0.190368
vt 0.369014 0.118172
vt 0.334603 0.140516
vt 0.334603 0.183371
vt 0.225660 0.272113
vt 0.310136 0.259452
vt 0.283870 0.300518
vt 0.266989 0.282983
vt 0.132732 0.329405
vt 0.159518 0.357594
vt 0.132386 0.357594
vt 0.151245 0.329405
vt 0.316997 0.254447
vt 0.372935 0.374475
vt 0.399596 0.349006
vt 0.347864 0.292074
vt 0.237720 0.404811
vt 0.271779 0.400703
vt 0.372935 0.254447
vt 0.399596 0.273389
vt 0.225660 0.194568
vt 0.239116 0.161363
vt 0.235864 0.219747
vt 0.252895 0.219747
vt 0.646299 0.334864
vt 0.623496 0.339415
vt 0.628815 0.331990
vt 0.626432 0.362592
vt 0.649324 0.340358
vt 0.653336 0.372026
vt 0.652787 0.386079
vt 0.659146 0.377204
vt 0.594361 0.346384
vt 0.606316 0.333803
vt 0.611963 0.335153
vt 0.578897 0.320527
vt 0.572624 0.341186
vt 0.592108 0.304366
vt 0.614739 0.303450
vt 0.628449 0.306729
vt 0.620890 0.295924
vt 0.834447 0.229366
vt 0.816487 0.245505
vt 0.816487 0.218904
vt 0.834447 0.250928
vt 0.804249 0.252634
vt 0.826072 0.271594
vt 0.814633 0.278258
vt 0.765107 0.176483
vt 0.735611 0.203997
vt 0.750265 0.167837
vt 0.779075 0.196075
vt 0.743662 0.204702
vt 0.773448 0.222053
vt 0.825038 0.190305
vt 0.830666 0.164327
vt 0.830666 0.207182
vt 0.825038 0.210461
vt 0.742356 0.207926
vn -0.3761 0.8995 0.2225
vn 0.5658 0.2241 0.7935
vn 0.9324 0.1883 -0.3086
vn -0.9343 0.3564 0.0000
vn -0.9461 0.2475 -0.2091
vn -0.9411 0.2194 -0.2573
vn -0.0000 0.7152 -0.6989
vn 0.9174 0.2573 -0.3037
vn -0.9324 0.1883 -0.3086
vn 0.8857 0.3600 -0.2932
vn -0.0000 0.3788 -0.9255
vn 0.5728 0.1633 0.8032
vn 0.5008 0.5060 0.7022
vn -0.0000 0.2079 -0.9782
vn 0.4970 0.7720 -0.3962
vn -0.5658 0.2241 0.7935
vn -0.5508 0.3161 0.7724
vn -0.9174 0.2573 -0.3037
vn -0.7853 0.5619 -0.2600
vn -0.0000 0.2778 -0.9606
vn -0.0000 0.5846 -0.8113
vn 0.7853 0.5619 -0.2600
vn -0.4618 0.6061 -0.6476
vn 0.8720 0.3952 0.2887
vn 0.4461 0.6401 0.6255
vn -0.8857 0.3600 -0.2932
vn -0.6832 0.6943 -0.2262
vn -0.5728 0.1633 0.8032
vn -0.4461 0.6401 0.6255
vn 0.0000 1.0000 0.0000
usemtl FinalGrass.001
s 1
f 1/1/1 2/2/1 3/3/1
f 4/4/2 5/5/2 6/6/2
f 5/5/2 4/4/2 7/7/2
f 7/7/2 4/4/2 8/8/2
f 9/9/3 10/10/3 11/11/3
f 10/10/3 9/9/3 12/12/3
f 13/13/4 14/14/5 15/15/6
f 16/16/7 17/17/7 18/18/7
f 17/17/7 16/16/7 19/19/7
f 19/19/7 16/16/7 20/20/7
f 21/21/8 22/22/8 23/23/8
f 22/22/8 21/21/8 24/24/8
f 24/24/8 21/21/8 25/25/8
f 24/24/8 25/25/8 26/26/8
f 26/26/8 25/25/8 6/6/8
f 6/6/8 25/25/8 4/4/8
f 27/27/9 28/28/9 29/29/9
f 28/28/9 27/27/9 14/14/5
f 14/14/5 27/27/9 18/30/9
f 14/14/5 18/30/9 15/15/6
f 15/15/6 18/30/9 17/31/9
f 15/15/6 17/31/9 30/32/9
f 31/33/10 32/34/10 33/35/10
f 32/34/10 31/33/10 34/36/10
f 34/36/10 31/33/10 35/37/10
f 34/36/10 35/37/10 36/38/10
f 37/39/11 33/40/11 38/41/11
f 33/40/11 37/39/11 31/42/11
f 31/42/11 37/39/11 39/43/11
f 12/12/12 22/22/12 10/10/12
f 22/22/12 12/12/12 23/23/12
f 23/23/12 12/12/12 40/44/12
f 40/44/12 12/12/12 41/45/12
f 41/45/12 12/12/12 42/46/12
f 43/47/13 26/26/13 44/48/13
f 26/26/13 43/47/13 24/24/13
f 35/49/14 45/50/14 36/51/14
f 45/50/14 35/49/14 11/52/14
f 11/52/14 35/49/14 9/53/14
f 9/53/14 35/49/14 29/54/14
f 9/53/14 29/54/14 28/55/14
f 46/56/15 47/57/15 48/58/15
f 7/59/16 49/60/16 5/61/16
f 49/60/16 7/59/16 50/62/16
f 51/63/16 50/62/16 7/59/16
f 50/62/16 51/63/16 52/64/16
f 18/30/17 53/65/17 16/66/17
f 53/65/17 18/30/17 54/67/17
f 54/67/17 18/30/17 27/27/17
f 55/68/18 51/63/18 56/69/18
f 51/63/18 55/68/18 52/64/18
f 36/70/19 57/71/19 34/72/19
f 57/71/19 36/70/19 45/73/19
f 21/74/20 23/75/20 40/76/20
f 34/77/21 58/78/21 32/79/21
f 58/78/21 34/77/21 48/80/21
f 48/80/21 34/77/21 46/81/21
f 46/81/21 34/77/21 57/82/21
f 48/58/22 44/48/22 58/83/22
f 44/48/22 48/58/22 47/57/22
f 44/48/22 47/57/22 43/47/22
f 37/84/23 59/85/23 39/86/23
f 8/8/24 4/4/24 25/25/24
f 50/87/25 60/88/25 49/89/25
f 60/88/25 50/87/25 61/90/25
f 53/65/26 37/84/26 38/91/26
f 37/84/26 53/65/26 59/85/26
f 59/85/26 53/65/26 54/67/26
f 20/92/27 3/3/27 19/93/27
f 3/3/27 20/92/27 1/1/27
f 1/1/27 20/92/27 62/94/27
f 42/95/28 56/69/28 41/96/28
f 13/13/28 56/69/28 42/95/28
f 15/15/28 56/69/28 13/13/28
f 30/32/28 56/69/28 15/15/28
f 56/69/28 30/32/28 55/68/28
f 2/2/29 60/97/29 61/98/29
f 60/97/29 2/2/29 62/94/29
f 62/94/29 2/2/29 1/1/29
f 9/53/30 42/99/30 12/100/30
f 42/99/30 9/53/30 28/55/30
f 42/99/30 28/55/30 13/101/30
f 13/101/30 28/55/30 14/102/30
f 21/103/30 8/104/30 25/105/30
f 8/104/30 21/103/30 7/106/30
f 7/106/30 21/103/30 40/107/30
f 7/106/30 40/107/30 41/108/30
f 7/106/30 41/108/30 51/109/30
f 51/109/30 41/108/30 56/110/30
f 19/111/30 30/112/30 17/113/30
f 30/112/30 19/111/30 2/114/30
f 2/114/30 19/111/30 3/115/30
f 61/116/30 30/112/30 2/114/30
f 52/117/30 30/112/30 61/116/30
f 30/112/30 52/117/30 55/118/30
f 61/116/30 50/119/30 52/117/30
f 31/120/30 29/121/30 35/122/30
f 29/121/30 31/120/30 39/123/30
f 29/121/30 39/123/30 27/124/30
f 27/124/30 39/123/30 59/125/30
f 27/124/30 59/125/30 54/126/30
f 47/127/30 24/128/30 43/129/30
f 24/128/30 47/127/30 46/130/30
f 24/128/30 46/130/30 10/131/30
f 10/131/30 46/130/30 11/132/30
f 11/133/30 46/134/30 57/135/30
f 11/133/30 57/135/30 45/136/30
f 22/137/30 24/128/30 10/131/30
