# Blender v2.79 (sub 0) OBJ File: 'tree.blend'
# www.blender.org
mtllib CrystalHill.mtl
o crystal
v 0.234885 0.732243 0.030452
v 0.271983 0.630785 0.186231
v 0.271983 0.630785 -0.031641
v 0.234885 0.732243 0.124137
v 0.007326 0.300426 0.138495
v 0.125555 0.268747 0.016095
v 0.125555 0.268747 0.138495
v 0.007326 0.300426 0.016095
v 0.144392 0.756491 0.030452
v 0.061535 0.687174 -0.031641
v 0.054495 0.660901 0.186231
v 0.054495 0.660901 -0.031641
v 0.264943 0.604511 -0.031641
v 0.264943 0.604511 0.186231
v 0.061535 0.687174 0.186231
v 0.144392 0.756491 0.124137
v -0.244552 0.580828 -0.158774
v -0.180752 0.527454 -0.038825
v -0.180752 0.527454 -0.206586
v -0.244552 0.580828 -0.086637
v -0.230048 0.205265 -0.075581
v -0.139011 0.229658 -0.169829
v -0.139011 0.229658 -0.075581
v -0.230048 0.205265 -0.169830
v -0.314231 0.562157 -0.158774
v -0.342797 0.484034 -0.206586
v -0.337376 0.463804 -0.038825
v -0.337376 0.463804 -0.206586
v -0.175331 0.507223 -0.206586
v -0.175331 0.507223 -0.038825
v -0.342797 0.484034 -0.038825
v -0.314231 0.562157 -0.086637
v -0.190038 0.205265 0.210812
v -0.149431 0.463803 0.375228
v -0.283763 0.463803 0.274735
v -0.114571 0.205265 0.267269
v -0.189875 0.580828 0.229048
v -0.055609 0.527454 0.249814
v -0.189941 0.527454 0.149321
v -0.132112 0.580828 0.272260
v -0.052362 0.507223 0.245474
v -0.135505 0.229658 0.137916
v -0.186694 0.507223 0.144981
v -0.060038 0.229658 0.194373
v -0.231614 0.562157 0.284843
v -0.287010 0.484034 0.279076
v -0.152678 0.484034 0.379569
v -0.173851 0.562157 0.328055
v -0.444641 0.249583 0.246582
v -0.288572 0.299166 0.313556
v -0.368399 0.299166 0.162009
v 0.282057 0.249583 0.264643
v 0.068912 0.200000 0.451414
v 0.297336 0.200000 0.268426
v 0.068912 0.474272 0.362786
v 0.174288 0.474272 0.278370
v 0.082933 0.618608 -0.188933
v 0.201534 0.356305 0.030453
v 0.118901 0.356305 -0.249960
v 0.143337 0.618608 0.016046
v -0.134716 0.618608 0.046669
v -0.134716 0.618608 -0.113673
v -0.223830 0.389248 0.028644
v -0.289195 0.200000 -0.127580
v -0.230535 0.299166 -0.011478
v -0.221339 0.233164 -0.088752
v -0.317275 0.299166 -0.011478
v -0.385702 0.200000 -0.127580
v 0.157851 0.474272 0.060973
v 0.186182 0.356305 0.042752
v 0.168701 0.417301 0.042563
v 0.204894 0.356305 0.106251
v 0.198102 0.474272 0.197560
v 0.271742 0.200000 0.181573
v -0.177940 0.389248 -0.127082
v -0.112538 0.618608 -0.188933
v -0.143989 0.389248 -0.242295
v -0.243816 0.299166 0.033591
v -0.067126 0.389248 -0.411372
v 0.005202 0.200000 -0.431812
v -0.014892 0.200000 -0.500000
v -0.005898 0.264894 -0.378307
v -0.017302 0.389248 -0.242295
v 0.003981 0.327640 -0.256629
v -0.288572 0.231401 -0.485294
v -0.297239 0.200000 -0.500000
v -0.169817 0.389248 -0.411372
v 0.129175 0.474272 0.060973
v -0.014802 0.474272 0.176311
v -0.014802 0.618608 0.142730
v 0.377104 0.356305 -0.031704
v 0.500000 0.200000 -0.001282
v 0.022910 0.356305 -0.249960
v 0.242619 0.356305 -0.302939
v 0.335927 0.356305 -0.171439
v 0.349035 0.249583 -0.390931
v -0.035601 0.200000 0.367689
v -0.088066 0.299166 0.293616
v -0.074995 0.474272 0.247504
v -0.128954 0.299166 0.260861
v -0.384490 0.200000 -0.203919
v -0.299973 0.389248 -0.224841
v -0.096709 0.299166 0.151437
v -0.046527 0.474272 0.150897
v 0.038522 0.356305 -0.302939
v -0.200765 0.299166 0.383898
v 0.373129 0.200000 -0.431812
v -0.268239 0.389248 -0.332527
v -0.200765 0.200000 0.500000
v -0.500000 0.200000 0.260286
vt 0.804168 0.653701
vt 0.828088 0.629085
vt 0.828088 0.654259
vt 0.804168 0.628528
vt 0.720738 0.633800
vt 0.701784 0.653470
vt 0.701784 0.634086
vt 0.720738 0.653184
vt 0.629078 0.833321
vt 0.602086 0.775744
vt 0.621457 0.775744
vt 0.693823 0.748207
vt 0.674738 0.767640
vt 0.674738 0.748207
vt 0.693823 0.767640
vt 0.634329 0.202343
vt 0.627957 0.224845
vt 0.618602 0.203280
vt 0.610458 0.313092
vt 0.616158 0.283929
vt 0.617158 0.315317
vt 0.579469 0.283232
vt 0.579930 0.297712
vt 0.752409 0.332781
vt 0.788219 0.301872
vt 0.788219 0.340966
vt 0.752409 0.304204
vt 0.722891 0.291324
vt 0.701198 0.290913
vt 0.721947 0.258011
vt 0.581243 0.186847
vt 0.588280 0.203157
vt 0.579469 0.197470
vt 0.595701 0.193863
vt 0.589499 0.176506
vt 0.750014 0.392791
vt 0.752207 0.376636
vt 0.752409 0.384979
vt 0.743382 0.376701
vt 0.731031 0.392932
vt 0.732464 0.355398
vt 0.720393 0.355488
vt 0.721062 0.362266
vt 0.699926 0.258839
vt 0.690556 0.291313
vt 0.683635 0.259452
vt 0.705771 0.236760
vt 0.716519 0.245599
vt 0.722891 0.245359
vt 0.788219 0.316234
vt 0.807737 0.333269
vt 0.802176 0.340966
vt 0.804837 0.322179
vt 0.802010 0.297148
vt 0.807737 0.303560
vt 0.602225 0.393725
vt 0.606752 0.356148
vt 0.606752 0.394915
vt 0.579469 0.363320
vt 0.579469 0.377420
vt 0.642902 0.292067
vt 0.678753 0.296126
vt 0.678967 0.298226
vt 0.670312 0.294154
vt 0.662104 0.289139
vt 0.660100 0.269447
vt 0.640700 0.270438
vt 0.696802 0.176515
vt 0.710178 0.222042
vt 0.688536 0.204658
vt 0.723554 0.176506
vt 0.726589 0.208849
vt 0.726589 0.186837
vt 0.617158 0.390375
vt 0.637362 0.376921
vt 0.637362 0.408303
vt 0.617158 0.366699
vt 0.598113 0.323963
vt 0.592609 0.319340
vt 0.595200 0.315317
vt 0.579469 0.319340
vt 0.584392 0.356148
vt 0.615454 0.323963
vt 0.611149 0.356148
vt 0.671608 0.229221
vt 0.679070 0.208386
vt 0.688536 0.236760
vt 0.617158 0.269596
vt 0.604394 0.262148
vt 0.580845 0.263495
vt 0.604785 0.256540
vt 0.807231 0.258402
vt 0.825318 0.272666
vt 0.813699 0.266682
vt 0.825318 0.244422
vt 0.810439 0.236760
vt 0.594913 0.419848
vt 0.581278 0.395894
vt 0.594913 0.394915
vt 0.579469 0.420956
vt 0.783637 0.340966
vt 0.756123 0.352548
vt 0.764484 0.344586
vt 0.752409 0.370702
vt 0.785426 0.344470
vt 0.780351 0.369274
vt 0.775430 0.381081
vt 0.785426 0.371562
vt 0.720875 0.310047
vt 0.713457 0.306198
vt 0.720875 0.291324
vt 0.717314 0.312647
vt 0.701157 0.229589
vt 0.704417 0.222042
vt 0.704417 0.231783
vt 0.594229 0.205604
vt 0.627957 0.240292
vt 0.608674 0.237423
vt 0.594229 0.231484
vt 0.608674 0.244617
vt 0.797456 0.288802
vt 0.807231 0.236760
vt 0.807231 0.287278
vt 0.799762 0.240068
vt 0.783687 0.254679
vt 0.783687 0.282703
vt 0.623883 0.261973
vt 0.617158 0.316563
vt 0.617158 0.256540
vt 0.638359 0.291998
vt 0.638359 0.311479
vt 0.781531 0.178200
vt 0.758658 0.197908
vt 0.756713 0.185079
vt 0.720176 0.392932
vt 0.760906 0.277653
vt 0.773581 0.255555
vt 0.783687 0.269686
vt 0.752714 0.266198
vt 0.783687 0.242552
vt 0.753632 0.248913
vt 0.763078 0.236760
vt 0.640700 0.250203
vt 0.612440 0.256540
vt 0.786082 0.218531
vt 0.786082 0.176506
vt 0.758658 0.213193
vt 0.679633 0.362049
vt 0.663670 0.400570
vt 0.663670 0.375946
vt 0.671651 0.413866
vt 0.679633 0.417103
vt 0.651585 0.176506
vt 0.679358 0.188387
vt 0.653930 0.186653
vt 0.653352 0.226785
vt 0.644706 0.236760
vt 0.640700 0.230331
vt 0.651454 0.185594
vt 0.660100 0.265086
vt 0.640700 0.253952
vt 0.671527 0.240126
vt 0.683635 0.236760
vt 0.683635 0.256984
vt 0.640700 0.197559
vt 0.662372 0.844052
vt 0.629947 0.823230
vt 0.674658 0.823230
vt 0.643146 0.844052
vt 0.706851 0.737842
vt 0.739208 0.757558
vt 0.694449 0.757558
vt 0.726097 0.737842
vt 0.762356 0.753683
vt 0.797704 0.828466
vt 0.753430 0.828466
vt 0.787229 0.753683
vt 0.694424 0.763120
vt 0.728718 0.835561
vt 0.703572 0.835561
vt 0.739183 0.763121
vt 0.630027 0.817794
vt 0.666548 0.748207
vt 0.674738 0.817794
vt 0.641430 0.748207
vt 0.753382 0.678906
vt 0.788264 0.753683
vt 0.763107 0.753683
vt 0.798162 0.678906
vt 0.753377 0.834064
vt 0.797651 0.834064
vt 0.865789 0.900197
vt 0.847286 0.919603
vt 0.847286 0.900289
vt 0.865789 0.919511
vt 0.753377 0.673308
vt 0.798156 0.673308
vt 0.883090 0.932552
vt 0.883090 0.887634
vt 0.765911 0.655902
vt 0.785166 0.655902
vt 0.812556 0.742233
vt 0.825458 0.717312
vt 0.825458 0.751898
vt 0.812556 0.727361
vt 0.871674 0.887634
vt 0.847305 0.872453
vt 0.881770 0.872453
vt 0.856855 0.887634
vt 0.697051 0.835561
vt 0.728515 0.883446
vt 0.694424 0.883446
vt 0.716203 0.835561
vt 0.881751 0.868170
vt 0.854330 0.812391
vt 0.873692 0.812391
vt 0.847286 0.868170
vt 0.629947 0.901186
vt 0.656359 0.844052
vt 0.664375 0.901186
vt 0.637017 0.844052
vt 0.594598 0.833321
vt 0.694713 0.887314
vt 0.728804 0.887314
vt 0.798162 0.742172
vt 0.798162 0.727300
vt 0.629074 0.837632
vt 0.594593 0.837632
vt 0.630015 0.905343
vt 0.664442 0.905343
vt 0.704039 0.904268
vt 0.718698 0.904268
vt 0.619071 0.851035
vt 0.604245 0.851035
vt 0.789044 0.565417
vt 0.787267 0.621374
vt 0.760347 0.615066
vt 0.804168 0.568960
vt 0.763714 0.915105
vt 0.776549 0.890430
vt 0.776549 0.925021
vt 0.763714 0.900231
vt 0.797704 0.930316
vt 0.820576 0.872632
vt 0.825452 0.930316
vt 0.804987 0.872632
vt 0.797950 0.934615
vt 0.825698 0.934615
vt 0.849864 0.569783
vt 0.878313 0.577605
vt 0.848271 0.587761
vt 0.862782 0.565417
vt 0.906153 0.622859
vt 0.879678 0.627064
vt 0.879071 0.622859
vt 0.906760 0.627064
vt 0.849029 0.591799
vt 0.879071 0.635866
vt 0.862194 0.641571
vt 0.879071 0.581643
vt 0.896731 0.565417
vt 0.881517 0.565417
vt 0.749299 0.915123
vt 0.749299 0.900249
vt 0.785849 0.625403
vt 0.767215 0.637047
vt 0.758929 0.619095
vt 0.778790 0.639759
vt 0.804168 0.636140
vt 0.786667 0.644376
vn -0.2588 -0.9659 0.0000
vn 0.2588 -0.9659 0.0000
vn 0.0340 -0.1268 0.9913
vn 0.1550 -0.9659 -0.2072
vn -0.3761 0.8995 0.2225
vn 0.5658 0.2241 0.7935
vn 0.9324 0.1883 -0.3086
vn -0.9343 0.3564 0.0000
vn -0.9461 0.2475 -0.2091
vn -0.9411 0.2194 -0.2573
vn -0.0000 0.7152 -0.6989
vn 0.9174 0.2573 -0.3037
vn -0.9324 0.1883 -0.3086
vn 0.8857 0.3600 -0.2932
vn -0.0000 0.3788 -0.9255
vn 0.5728 0.1633 0.8032
vn 0.0000 1.0000 0.0000
vn 0.5008 0.5060 0.7022
vn 0.0000 0.2079 -0.9782
vn 0.4970 0.7720 -0.3962
vn -0.5658 0.2241 0.7935
vn -0.5508 0.3161 0.7724
vn -0.9174 0.2573 -0.3037
vn -0.7853 0.5619 -0.2600
vn -0.0000 0.2778 -0.9606
vn -0.0000 0.5846 -0.8113
vn 0.7853 0.5619 -0.2600
vn -0.4618 0.6061 -0.6476
vn 0.8720 0.3952 0.2887
vn 0.4461 0.6401 0.6255
vn -0.8857 0.3600 -0.2932
vn -0.6832 0.6943 -0.2262
vn -0.5728 0.1633 0.8032
vn -0.4461 0.6401 0.6255
vn 0.9392 0.3434 0.0000
vn 0.1488 0.5552 -0.8183
vn -0.9915 0.1297 0.0000
vn -0.0340 -0.1268 -0.9913
vn 0.9236 -0.3834 -0.0000
vn -0.0340 -0.1268 0.9913
vn -0.9659 0.2588 0.0000
vn 0.2588 0.9659 0.0000
vn 0.0000 -0.0000 1.0000
vn 0.9659 -0.2588 0.0000
vn 0.0000 0.0000 -1.0000
vn -0.6417 0.7670 0.0000
vn 0.1488 0.5552 0.8183
vn 0.6417 0.7670 0.0000
vn -0.1488 0.5552 -0.8183
vn -0.9236 -0.3834 -0.0000
vn 0.0340 -0.1268 -0.9913
vn 0.9915 0.1297 0.0000
vn -0.9659 -0.2588 -0.0000
vn -0.2588 0.9659 0.0000
vn 0.9659 0.2588 0.0000
vn -0.9392 0.3434 0.0000
vn -0.1488 0.5552 0.8183
vn -0.5532 -0.3834 0.7395
vn 0.3844 0.7670 -0.5138
vn 0.5940 0.1297 -0.7940
vn 0.5786 0.2588 -0.7734
vn -0.7444 0.5552 -0.3711
vn 0.8007 -0.0000 0.5990
vn -0.7734 -0.1268 -0.6210
vn 0.8142 -0.1268 0.5666
vn -0.1550 0.9659 0.2072
vn -0.8007 -0.0000 -0.5990
vn -0.5626 0.3434 0.7520
vn 0.5661 0.5552 0.6093
vn -0.5786 -0.2588 0.7734
usemtl FinalGrass
s 1
f 5/1/1 6/2/1 7/3/1
f 6/2/1 5/1/1 8/4/1
f 21/5/2 22/6/2 23/7/2
f 22/6/2 21/5/2 24/8/2
f 30/9/3 21/10/3 23/11/3
f 36/12/4 42/13/4 44/14/4
f 42/13/4 36/12/4 33/15/4
f 49/16/5 50/17/5 51/18/5
f 52/19/6 53/20/6 54/21/6
f 53/20/6 52/19/6 55/22/6
f 55/22/6 52/19/6 56/23/6
f 57/24/7 58/25/7 59/26/7
f 58/25/7 57/24/7 60/27/7
f 61/28/8 62/29/9 63/30/10
f 64/31/11 65/32/11 66/33/11
f 65/32/11 64/31/11 67/34/11
f 67/34/11 64/31/11 68/35/11
f 69/36/12 70/37/12 71/38/12
f 70/37/12 69/36/12 72/39/12
f 72/39/12 69/36/12 73/40/12
f 72/39/12 73/40/12 74/41/12
f 74/41/12 73/40/12 54/42/12
f 54/42/12 73/40/12 52/43/12
f 75/44/13 76/45/13 77/46/13
f 76/45/13 75/44/13 62/29/9
f 62/29/9 75/44/13 66/47/13
f 62/29/9 66/47/13 63/30/10
f 63/30/10 66/47/13 65/48/13
f 63/30/10 65/48/13 78/49/13
f 79/50/14 80/51/14 81/52/14
f 80/51/14 79/50/14 82/53/14
f 82/53/14 79/50/14 83/54/14
f 82/53/14 83/54/14 84/55/14
f 85/56/15 81/57/15 86/58/15
f 81/57/15 85/56/15 79/59/15
f 79/59/15 85/56/15 87/60/15
f 60/61/16 70/62/16 58/63/16
f 70/62/16 60/61/16 71/64/16
f 71/64/16 60/61/16 88/65/16
f 88/65/16 60/61/16 89/66/16
f 89/66/16 60/61/16 90/67/16
f 57/68/17 90/69/17 60/70/17
f 90/69/17 57/68/17 76/71/17
f 90/69/17 76/71/17 61/72/17
f 61/72/17 76/71/17 62/73/17
f 91/74/18 74/75/18 92/76/18
f 74/75/18 91/74/18 72/77/18
f 83/78/19 93/79/19 84/80/19
f 93/79/19 83/78/19 59/81/19
f 59/81/19 83/78/19 57/82/19
f 57/82/19 83/78/19 77/83/19
f 57/82/19 77/83/19 76/84/19
f 94/85/20 95/86/20 96/87/20
f 55/22/21 97/88/21 53/20/21
f 97/88/21 55/22/21 98/89/21
f 99/90/21 98/89/21 55/22/21
f 98/89/21 99/90/21 100/91/21
f 66/92/22 101/93/22 64/94/22
f 101/93/22 66/92/22 102/95/22
f 102/95/22 66/92/22 75/96/22
f 103/97/23 99/98/23 104/99/23
f 99/98/23 103/97/23 100/100/23
f 69/101/17 56/102/17 73/103/17
f 56/102/17 69/101/17 55/104/17
f 55/104/17 69/101/17 88/105/17
f 55/104/17 88/105/17 89/106/17
f 55/104/17 89/106/17 99/107/17
f 99/107/17 89/106/17 104/108/17
f 84/109/24 105/110/24 82/111/24
f 105/110/24 84/109/24 93/112/24
f 69/113/25 71/114/25 88/115/25
f 67/34/17 78/116/17 65/32/17
f 78/116/17 67/34/17 50/17/17
f 50/17/17 67/34/17 51/18/17
f 106/117/17 78/116/17 50/17/17
f 100/118/17 78/116/17 106/117/17
f 78/116/17 100/118/17 103/119/17
f 106/117/17 98/120/17 100/118/17
f 82/121/26 107/122/26 80/123/26
f 107/122/26 82/121/26 96/124/26
f 96/124/26 82/121/26 94/125/26
f 94/125/26 82/121/26 105/126/26
f 96/127/27 92/128/27 107/129/27
f 92/128/27 96/127/27 95/130/27
f 92/128/27 95/130/27 91/131/27
f 85/132/28 108/133/28 87/134/28
f 56/135/29 52/43/29 73/40/29
f 79/136/17 77/137/17 83/138/17
f 77/137/17 79/136/17 87/139/17
f 77/137/17 87/139/17 75/140/17
f 75/140/17 87/139/17 108/141/17
f 75/140/17 108/141/17 102/142/17
f 98/120/30 109/143/30 97/144/30
f 109/143/30 98/120/30 106/117/30
f 101/145/31 85/132/31 86/146/31
f 85/132/31 101/145/31 108/133/31
f 108/133/31 101/145/31 102/147/31
f 68/148/32 51/149/32 67/150/32
f 51/149/32 68/148/32 49/151/32
f 49/151/32 68/148/32 110/152/32
f 95/86/17 72/153/17 91/154/17
f 72/153/17 95/86/17 94/85/17
f 72/153/17 94/85/17 58/155/17
f 58/155/17 94/85/17 59/156/17
f 59/156/17 94/85/17 105/157/17
f 59/156/17 105/157/17 93/158/17
f 70/159/17 72/153/17 58/155/17
f 90/67/33 104/160/33 89/66/33
f 61/161/33 104/160/33 90/67/33
f 63/162/33 104/160/33 61/161/33
f 78/163/33 104/160/33 63/162/33
f 104/160/33 78/163/33 103/164/33
f 50/17/34 109/143/34 106/117/34
f 109/143/34 50/17/34 110/165/34
f 110/165/34 50/17/34 49/16/34
usemtl FinalGemMaterial
f 1/166/35 2/167/35 3/168/35
f 2/167/35 1/166/35 4/169/35
f 9/170/36 3/171/36 10/172/36
f 3/171/36 9/170/36 1/173/36
f 8/174/37 11/175/37 12/176/37
f 11/175/37 8/174/37 5/177/37
f 12/178/38 6/179/38 8/180/38
f 6/179/38 12/178/38 13/181/38
f 14/182/39 6/183/39 13/184/39
f 6/183/39 14/182/39 7/185/39
f 14/186/40 5/187/40 7/188/40
f 5/187/40 14/186/40 11/189/40
f 11/175/41 10/190/41 12/176/41
f 10/190/41 11/175/41 15/191/41
f 9/192/42 4/193/42 1/194/42
f 4/193/42 9/192/42 16/195/42
f 2/196/43 11/189/43 14/186/43
f 11/189/43 2/196/43 15/197/43
f 2/167/44 13/184/44 3/168/44
f 13/184/44 2/167/44 14/182/44
f 10/172/45 13/181/45 12/178/45
f 13/181/45 10/172/45 3/171/45
f 15/198/46 9/192/46 10/199/46
f 9/192/46 15/198/46 16/195/46
f 4/200/47 15/197/47 2/196/47
f 15/197/47 4/200/47 16/201/47
f 17/202/48 18/203/48 19/204/48
f 18/203/48 17/202/48 20/205/48
f 25/206/49 19/207/49 26/208/49
f 19/207/49 25/206/49 17/209/49
f 24/210/50 27/211/50 28/212/50
f 27/211/50 24/210/50 21/213/50
f 28/214/51 22/215/51 24/216/51
f 22/215/51 28/214/51 29/217/51
f 30/218/52 22/219/52 29/220/52
f 22/219/52 30/218/52 23/221/52
f 21/10/3 30/9/3 27/222/3
f 27/211/53 26/223/53 28/212/53
f 26/223/53 27/211/53 31/224/53
f 25/225/54 20/205/54 17/202/54
f 20/205/54 25/225/54 32/226/54
f 18/227/43 27/222/43 30/9/43
f 27/222/43 18/227/43 31/228/43
f 18/229/55 29/220/55 19/230/55
f 29/220/55 18/229/55 30/218/55
f 26/208/45 29/217/45 28/214/45
f 29/217/45 26/208/45 19/207/45
f 31/224/56 25/231/56 26/223/56
f 25/231/56 31/224/56 32/232/56
f 20/233/57 31/228/57 18/227/57
f 31/228/57 20/233/57 32/234/57
f 33/235/58 34/236/58 35/237/58
f 34/236/58 33/235/58 36/238/58
f 37/239/59 38/240/59 39/241/59
f 38/240/59 37/239/59 40/242/59
f 41/243/60 42/244/60 43/245/60
f 42/244/60 41/243/60 44/246/60
f 38/247/61 43/245/61 39/248/61
f 43/245/61 38/247/61 41/243/61
f 45/249/62 39/250/62 46/251/62
f 39/250/62 45/249/62 37/252/62
f 41/253/63 47/254/63 34/255/63
f 47/254/63 41/253/63 38/256/63
f 35/257/64 42/258/64 33/259/64
f 42/258/64 35/257/64 43/260/64
f 44/261/65 34/255/65 36/262/65
f 34/255/65 44/261/65 41/253/65
f 45/263/66 40/242/66 37/239/66
f 40/242/66 45/263/66 48/264/66
f 46/251/67 43/260/67 35/257/67
f 43/260/67 46/251/67 39/250/67
f 47/265/68 45/266/68 46/267/68
f 45/266/68 47/265/68 48/268/68
f 38/269/69 48/268/69 47/265/69
f 48/268/69 38/269/69 40/270/69
f 34/236/70 46/267/70 35/237/70
f 46/267/70 34/236/70 47/265/70
