# Blender v2.79 (sub 0) OBJ File: 'tree.blend'
# www.blender.org
mtllib DirtHill.mtl
o detail_dirt
v 0.161073 0.283149 0.237473
v 0.022146 0.200000 0.208048
v 0.161073 0.200000 0.300000
v 0.069381 0.283149 0.176785
v 0.086317 0.320900 -0.144222
v 0.168156 0.320900 0.018279
v 0.168156 0.320900 -0.090055
v 0.086317 0.320900 0.072445
v 0.028073 0.320900 -0.105672
v 0.028073 0.320900 -0.065816
v 0.004477 0.320900 0.018279
v 0.004477 0.320900 -0.050199
v 0.252765 0.283149 0.055409
v 0.300000 0.200000 0.208048
v 0.300000 0.200000 0.024145
v 0.252765 0.283149 0.176785
v 0.086317 0.271018 -0.167248
v 0.036296 0.271018 -0.134140
v 0.210315 0.200000 -0.035214
v 0.210315 0.200000 -0.117959
v 0.181320 0.283149 0.008122
v 0.181320 0.283149 0.026992
v -0.049094 0.200000 -0.245421
v 0.000661 0.271018 -0.196993
v -0.029066 0.200000 -0.232166
v -0.049094 0.400265 -0.201721
v 0.036296 0.271018 -0.173407
v 0.014990 0.400265 -0.159306
v -0.176001 0.320900 -0.211862
v -0.126261 0.320900 -0.167965
v -0.117970 0.320900 -0.173453
v -0.126261 0.320900 -0.065816
v -0.176001 0.320900 0.004805
v -0.097781 0.320900 -0.046966
v -0.257840 0.320900 -0.157695
v -0.257840 0.320900 -0.049362
v 0.153855 0.271018 -0.122546
v 0.195290 0.200000 -0.127904
v 0.069381 0.283149 0.078662
v 0.086317 0.283149 0.089871
v -0.037682 0.200000 0.046183
v 0.022146 0.200000 0.085781
v -0.075552 0.200000 -0.005871
v -0.176001 0.200000 0.060613
v 0.073424 0.271018 -0.245152
v 0.153855 0.271018 -0.191917
v -0.300000 0.200000 -0.021458
v -0.049094 0.200000 0.011640
v -0.049094 0.400265 -0.032060
v -0.113178 0.400265 -0.074475
v 0.014990 0.400265 -0.074475
v -0.176001 0.200000 -0.267670
v -0.300000 0.200000 -0.185600
v 0.195290 0.200000 -0.219341
v -0.113178 0.400265 -0.159306
v 0.073424 0.200000 -0.300000
v -0.095740 0.200000 -0.214548
v -0.037682 0.200000 0.004087
vt 0.327577 0.312922
vt 0.368264 0.298022
vt 0.356560 0.330573
vt 0.335302 0.291438
vt 0.229602 0.424006
vt 0.198968 0.370933
vt 0.229602 0.391026
vt 0.168335 0.383820
vt 0.207800 0.433177
vt 0.196530 0.425785
vt 0.168335 0.416800
vt 0.187698 0.429500
vt 0.285198 0.212158
vt 0.317123 0.160865
vt 0.317123 0.222664
vt 0.285198 0.171371
vt 0.301395 0.129965
vt 0.274818 0.150977
vt 0.280012 0.405490
vt 0.294468 0.423096
vt 0.281913 0.423096
vt 0.294630 0.405490
vt 0.263553 0.261040
vt 0.306970 0.242611
vt 0.306970 0.270417
vt 0.263553 0.224636
vt 0.277110 0.228049
vt 0.277110 0.221708
vt 0.166013 0.457310
vt 0.149147 0.440832
vt 0.168335 0.452883
vt 0.102186 0.441854
vt 0.153278 0.432955
vt 0.109616 0.427689
vt 0.429531 0.225442
vt 0.407809 0.219646
vt 0.407809 0.216305
vt 0.378924 0.238591
vt 0.368264 0.265628
vt 0.368264 0.234107
vt 0.429531 0.258422
vt 0.398897 0.278515
vt 0.277878 0.271958
vt 0.305269 0.273759
vt 0.270232 0.286980
vt 0.254288 0.279242
vt 0.317123 0.258320
vt 0.331257 0.258710
vt 0.329830 0.262678
vt 0.324018 0.239145
vt 0.368264 0.243222
vt 0.363224 0.257240
vt 0.368264 0.321452
vt 0.393513 0.278515
vt 0.393513 0.321156
vt 0.373852 0.278745
vt 0.388410 0.387586
vt 0.395183 0.400281
vt 0.369737 0.410331
vt 0.408434 0.401576
vt 0.395597 0.417212
vt 0.408434 0.441272
vt 0.385025 0.438984
vt 0.317123 0.422136
vt 0.369737 0.413311
vt 0.355804 0.440890
vt 0.326319 0.403934
vt 0.383481 0.216305
vt 0.349651 0.197675
vt 0.386262 0.210329
vt 0.318967 0.203661
vt 0.352645 0.191242
vt 0.325703 0.189187
vt 0.153441 0.419761
vt 0.109966 0.399185
vt 0.136684 0.409991
vt 0.136849 0.396599
vt 0.326319 0.367529
vt 0.355804 0.330573
vt 0.369737 0.358152
vt 0.317123 0.349327
vt 0.277878 0.295270
vt 0.305269 0.304486
vt 0.255291 0.394240
vt 0.316355 0.382979
vt 0.282034 0.405490
vt 0.260627 0.390741
vt 0.316355 0.346029
vt 0.260627 0.352456
vt 0.282034 0.331590
vt 0.254288 0.349789
vt 0.324781 0.160695
vt 0.351535 0.156934
vt 0.254288 0.433876
vt 0.273552 0.405490
vt 0.280012 0.433876
vt 0.255290 0.405490
vt 0.268772 0.313159
vt 0.291472 0.331590
vt 0.391467 0.330573
vt 0.369737 0.373333
vt 0.369737 0.344826
vt 0.391467 0.387586
vt 0.413198 0.344826
vt 0.413198 0.373333
vt 0.266354 0.200577
vt 0.254288 0.206433
vt 0.350544 0.155120
vt 0.380688 0.129965
vt 0.386262 0.140168
vt 0.317123 0.146678
vt 0.199618 0.129965
vt 0.150081 0.201943
vt 0.148829 0.165824
vt 0.252348 0.150059
vt 0.127439 0.224129
vt 0.127229 0.218077
vt 0.103888 0.291038
vt 0.102186 0.241957
vt 0.254288 0.206011
vt 0.220520 0.229851
vt 0.142787 0.305862
vt 0.221356 0.253946
vt 0.209730 0.262154
vt 0.143067 0.313928
vt 0.214061 0.263805
vt 0.160771 0.320674
vt 0.214431 0.274460
vt 0.252556 0.288989
vt 0.161892 0.352999
vt 0.208956 0.370933
vt 0.254288 0.338928
vt 0.134242 0.391319
vt 0.102886 0.384845
vt 0.167074 0.370933
vt 0.168335 0.373487
vt 0.366529 0.229181
vt 0.321195 0.216305
vt 0.254288 0.413811
vt 0.234113 0.370933
vt 0.254288 0.371169
vt 0.239701 0.413640
vn -0.4676 0.5313 0.7065
vn 0.0000 1.0000 0.0000
vn 0.8695 0.4939 0.0000
vn 0.4676 0.5313 0.7065
vn -0.5151 0.3592 -0.7782
vn 0.9442 0.3293 0.0000
vn 0.5430 0.1790 -0.8204
vn 0.5151 0.3592 -0.7782
vn -0.5151 0.3592 0.7782
vn 0.5151 0.3592 0.7782
vn -0.5430 0.1790 0.8204
vn 0.9867 0.1627 0.0000
vn 0.8637 0.5039 0.0000
vn -0.9867 0.1627 0.0000
vn -0.4640 0.5415 -0.7011
vn 0.4640 0.5415 -0.7011
vn -0.5430 0.1790 -0.8204
vn 0.0000 -1.0000 -0.0000
vn 0.5430 0.1790 0.8204
vn -0.9442 0.3293 0.0000
vn 0.4676 0.5313 -0.7065
vn -0.8695 0.4939 0.0000
usemtl FinalGround
s 1
f 1/1/1 2/2/1 3/3/1
f 2/2/1 1/1/1 4/4/1
f 5/5/2 6/6/2 7/7/2
f 6/6/2 5/5/2 8/8/2
f 8/8/2 5/5/2 9/9/2
f 8/8/2 9/9/2 10/10/2
f 8/8/2 10/10/2 11/11/2
f 11/11/2 10/10/2 12/12/2
f 13/13/3 14/14/3 15/15/3
f 14/14/3 13/13/3 16/16/3
f 16/16/4 3/17/4 14/14/4
f 3/17/4 16/16/4 1/18/4
f 9/19/5 17/20/5 18/21/5
f 17/20/5 9/19/5 5/22/5
f 7/23/6 19/24/6 20/25/6
f 19/24/6 7/23/6 6/26/6
f 19/24/6 6/26/6 21/27/6
f 21/27/6 6/26/6 22/28/6
f 23/29/7 24/30/7 25/31/7
f 24/30/7 23/29/7 26/32/7
f 24/30/7 26/32/7 27/33/7
f 27/33/7 26/32/7 28/34/7
f 29/35/2 30/36/2 31/37/2
f 30/36/2 29/35/2 32/38/2
f 33/39/2 32/38/2 29/35/2
f 32/38/2 33/39/2 34/40/2
f 33/39/2 29/35/2 35/41/2
f 33/39/2 35/41/2 36/42/2
f 37/43/8 20/25/8 38/44/8
f 20/25/8 37/43/8 7/23/8
f 7/23/8 37/43/8 17/45/8
f 7/23/8 17/45/8 5/46/8
f 8/47/9 39/48/9 40/49/9
f 11/50/9 39/48/9 8/47/9
f 41/51/9 39/48/9 11/50/9
f 39/48/9 41/51/9 42/52/9
f 43/53/10 33/54/10 44/55/10
f 33/54/10 43/53/10 34/56/10
f 24/57/2 27/58/2 45/59/2
f 18/60/2 45/59/2 27/58/2
f 17/61/2 45/59/2 18/60/2
f 37/62/2 45/59/2 17/61/2
f 45/59/2 37/62/2 46/63/2
f 33/64/9 47/65/9 44/66/9
f 47/65/9 33/64/9 36/67/9
f 48/68/11 34/69/11 43/70/11
f 34/69/11 48/68/11 49/71/11
f 34/69/11 49/71/11 32/72/11
f 32/72/11 49/71/11 50/73/11
f 28/34/12 18/74/12 27/33/12
f 18/74/12 28/34/12 51/75/12
f 18/74/12 51/75/12 9/76/12
f 9/76/12 51/75/12 10/77/12
f 35/78/5 52/79/5 53/80/5
f 52/79/5 35/78/5 29/81/5
f 46/82/13 38/44/13 54/83/13
f 38/44/13 46/82/13 37/43/13
f 21/84/2 16/85/2 13/86/2
f 16/85/2 21/84/2 22/87/2
f 16/85/2 22/87/2 1/88/2
f 1/88/2 22/87/2 40/89/2
f 1/88/2 40/89/2 4/90/2
f 4/90/2 40/89/2 39/91/2
f 32/72/14 55/92/14 30/93/14
f 55/92/14 32/72/14 50/73/14
f 25/94/15 45/95/15 56/96/15
f 45/95/15 25/94/15 24/97/15
f 45/98/16 54/83/16 56/99/16
f 54/83/16 45/98/16 46/82/16
f 26/100/2 51/101/2 28/102/2
f 51/101/2 26/100/2 49/103/2
f 49/103/2 26/100/2 55/104/2
f 49/103/2 55/104/2 50/105/2
f 6/26/10 40/106/10 22/28/10
f 40/106/10 6/26/10 8/107/10
f 31/108/17 23/109/17 57/110/17
f 23/109/17 31/108/17 26/111/17
f 26/111/17 31/108/17 30/93/17
f 26/111/17 30/93/17 55/92/17
f 14/112/18 19/113/18 15/114/18
f 19/113/18 14/112/18 3/115/18
f 19/113/18 3/115/18 38/116/18
f 38/116/18 20/117/18 19/113/18
f 56/118/18 38/116/18 3/115/18
f 38/116/18 56/118/18 54/119/18
f 56/118/18 3/115/18 2/120/18
f 56/118/18 2/120/18 42/121/18
f 42/121/18 25/122/18 56/118/18
f 25/122/18 42/121/18 41/123/18
f 25/122/18 41/123/18 58/124/18
f 58/124/18 23/125/18 25/122/18
f 23/125/18 58/124/18 48/126/18
f 23/125/18 48/126/18 57/127/18
f 57/127/18 48/126/18 43/128/18
f 57/127/18 43/128/18 44/129/18
f 57/127/18 44/129/18 52/130/18
f 52/130/18 44/129/18 53/131/18
f 53/131/18 44/129/18 47/132/18
f 51/75/19 12/133/19 10/77/19
f 49/134/19 12/133/19 51/75/19
f 48/135/19 12/133/19 49/134/19
f 12/133/19 48/135/19 58/136/19
f 58/137/20 11/50/20 12/138/20
f 11/50/20 58/137/20 41/51/20
f 47/65/20 35/78/20 53/80/20
f 35/78/20 47/65/20 36/67/20
f 19/24/21 13/13/21 15/15/21
f 13/13/21 19/24/21 21/27/21
f 42/52/22 4/4/22 39/48/22
f 4/4/22 42/52/22 2/2/22
f 29/139/8 57/140/8 52/141/8
f 57/140/8 29/139/8 31/142/8
