# Blender v2.79 (sub 0) OBJ File: 'tree.blend'
# www.blender.org
mtllib Rock.mtl
o detail_rocks.001
v 0.173806 0.200000 -0.014428
v 0.183460 0.221654 0.018168
v 0.212774 0.200000 -0.014428
v 0.183117 0.235509 0.039025
v 0.166494 0.235509 0.039025
v 0.072963 0.355000 0.123746
v 0.131540 0.355000 0.018169
v 0.096226 0.235509 0.165674
v 0.072963 0.355000 -0.087409
v 0.113773 0.265100 -0.076944
v 0.090465 0.265100 -0.118954
v 0.164468 0.200000 -0.031258
v 0.023109 0.235509 0.165674
v -0.039184 0.295970 0.144459
v -0.055682 0.295970 0.144459
v -0.044190 0.355000 0.123746
v -0.005406 0.216186 0.172454
v -0.067979 0.295970 0.196359
v -0.212774 0.200000 0.249812
v -0.038323 0.200000 0.249812
v -0.183117 0.295970 0.196359
v -0.300000 0.200000 0.092598
v -0.183117 0.295970 -0.011163
v -0.212774 0.200000 -0.064616
v -0.240687 0.295970 0.092598
v -0.125750 0.295970 0.018169
v -0.109476 0.295970 -0.011163
v -0.102766 0.355000 0.018169
v -0.117187 0.200000 -0.064616
v 0.240687 0.235509 0.142786
v 0.300000 0.200000 0.142786
v 0.161297 0.265100 -0.254314
v 0.161297 0.265100 -0.076944
v 0.210501 0.265100 -0.165629
v 0.062889 0.265100 -0.254314
v 0.039581 0.265100 -0.118954
v 0.013684 0.265100 -0.165629
v 0.038323 0.200000 0.300000
v 0.067979 0.235509 0.246547
v -0.013923 0.200000 0.205834
v 0.261197 0.200000 -0.165629
v 0.186645 0.200000 -0.031258
v 0.183117 0.235509 0.246547
v 0.212774 0.200000 0.300000
v -0.044190 0.355000 -0.087409
v -0.074366 0.200000 -0.141797
v 0.037541 0.200000 -0.300000
v 0.186645 0.200000 -0.300000
v -0.023788 0.200000 -0.141797
v -0.037011 0.200000 -0.165629
vt 0.144414 0.785212
vt 0.135399 0.790473
vt 0.135827 0.776788
vt 0.131067 0.795249
vt 0.134730 0.798843
vt 0.344373 0.665580
vt 0.383520 0.714329
vt 0.341583 0.703182
vt 0.379714 0.705743
vt 0.383060 0.660635
vt 0.326308 0.722012
vt 0.356095 0.727661
vt 0.350017 0.735153
vt 0.383179 0.724955
vt 0.385614 0.721953
vt 0.375268 0.648918
vt 0.350309 0.643325
vt 0.348551 0.640681
vt 0.331888 0.646807
vt 0.378085 0.642946
vt 0.351680 0.624839
vt 0.367023 0.589386
vt 0.385614 0.617341
vt 0.339410 0.606389
vt 0.252564 0.619106
vt 0.285812 0.665156
vt 0.252564 0.675261
vt 0.285812 0.628094
vt 0.281622 0.873947
vt 0.293897 0.858222
vt 0.302111 0.864478
vt 0.255542 0.814876
vt 0.287576 0.800073
vt 0.297521 0.813265
vt 0.302111 0.811144
vt 0.252564 0.851813
vt 0.309983 0.641964
vt 0.313062 0.669321
vt 0.294138 0.665838
vt 0.326308 0.649363
vt 0.272288 0.589386
vt 0.298830 0.608479
vt 0.263372 0.689746
vt 0.294138 0.676315
vt 0.096456 0.806195
vt 0.083386 0.793372
vt 0.170685 0.849970
vt 0.144414 0.898412
vt 0.144414 0.866735
vt 0.196956 0.864882
vt 0.157101 0.905614
vt 0.169546 0.897672
vt 0.183130 0.905383
vt 0.196956 0.896559
vt 0.139563 0.858390
vt 0.107827 0.885383
vt 0.112587 0.866922
vt 0.139237 0.875449
vt 0.144414 0.866084
vt 0.361160 0.735276
vt 0.381991 0.776366
vt 0.358816 0.766863
vt 0.385542 0.728508
vt 0.087216 0.842031
vt 0.069386 0.847670
vt 0.384452 0.633004
vt 0.313062 0.707032
vt 0.263372 0.717314
vt 0.144414 0.831674
vt 0.208879 0.831674
vt 0.176646 0.849970
vt 0.144414 0.795083
vt 0.208879 0.795083
vt 0.176646 0.776788
vt 0.069386 0.749544
vt 0.165380 0.749544
vt 0.117383 0.776788
vt 0.069386 0.695056
vt 0.165380 0.737373
vt 0.170518 0.734456
vt 0.252564 0.694812
vt 0.252564 0.741383
vt 0.170518 0.741383
vt 0.211541 0.764668
vt 0.098135 0.678738
vt 0.204265 0.675657
vt 0.084708 0.671117
vt 0.204265 0.659860
vt 0.084708 0.616630
vt 0.180702 0.646485
vt 0.180702 0.616630
vt 0.132705 0.589386
vt 0.211541 0.671527
vt 0.345986 0.782680
vt 0.362551 0.800331
vt 0.208879 0.823955
vt 0.225607 0.776788
vt 0.225607 0.832943
vt 0.208879 0.786893
vt 0.269090 0.724978
vt 0.289836 0.737165
vt 0.266100 0.729483
vt 0.295692 0.728341
vt 0.301445 0.736052
vt 0.326308 0.724784
vt 0.289836 0.768842
vt 0.282958 0.800073
vt 0.266100 0.777479
vt 0.300963 0.783754
vt 0.123452 0.842584
vn 0.0000 0.8330 -0.5533
vn 0.8278 0.3223 0.4593
vn 0.8278 0.3223 -0.4593
vn -0.0000 0.3311 0.9436
vn 0.0000 0.4866 0.8736
vn -0.7693 0.4754 -0.4268
vn -0.0000 1.0000 0.0000
vn -0.8278 0.3223 0.4593
vn -0.7693 0.4754 0.4268
vn 0.0000 0.4866 -0.8736
vn 0.4940 0.8251 -0.2741
vn -0.4940 0.8251 0.2741
vn 0.7228 0.5628 0.4010
vn 0.0000 0.8330 0.5533
vn 0.7693 0.4754 0.4268
vn -0.8278 0.3223 -0.4593
vn -0.0000 -1.0000 -0.0000
vn 0.7228 0.5628 -0.4010
vn 0.4940 0.8251 0.2741
vn -0.7228 0.5628 0.4010
vn 0.0000 0.3311 -0.9436
vn 0.0000 0.5744 -0.8185
vn -0.7228 0.5628 -0.4010
vn 0.0000 0.5744 0.8185
usemtl FinalRockMaterial
s 1
f 1/1/1 2/2/1 3/3/1
f 2/2/1 4/4/1 3/3/1
f 4/4/1 2/2/1 5/5/1
f 6/6/2 2/7/2 7/8/2
f 2/7/2 6/6/2 5/9/2
f 5/9/2 6/6/2 8/10/2
f 9/11/3 10/12/3 11/13/3
f 10/12/3 9/11/3 7/8/3
f 10/12/3 7/8/3 12/14/3
f 12/14/3 7/8/3 1/15/3
f 1/15/3 7/8/3 2/7/3
f 6/6/4 13/16/4 8/10/4
f 13/16/4 6/6/4 14/17/4
f 14/17/4 6/6/4 15/18/4
f 15/18/4 6/6/4 16/19/4
f 14/17/4 17/20/4 13/16/4
f 18/21/5 19/22/5 20/23/5
f 19/22/5 18/21/5 21/24/5
f 22/25/6 23/26/6 24/27/6
f 23/26/6 22/25/6 25/28/6
f 23/29/7 26/30/7 27/31/7
f 21/32/7 26/30/7 23/29/7
f 18/33/7 26/30/7 21/32/7
f 18/33/7 15/34/7 26/30/7
f 15/34/7 18/33/7 14/35/7
f 21/32/7 23/29/7 25/36/7
f 15/37/8 28/38/8 26/39/8
f 28/38/8 15/37/8 16/40/8
f 19/41/9 25/28/9 22/25/9
f 25/28/9 19/41/9 21/42/9
f 23/26/10 29/43/10 24/27/10
f 29/43/10 23/26/10 27/44/10
f 3/3/11 30/45/11 31/46/11
f 30/45/11 3/3/11 4/4/11
f 32/47/7 33/48/7 34/49/7
f 33/48/7 32/47/7 35/50/7
f 33/48/7 35/50/7 10/51/7
f 10/51/7 35/50/7 11/52/7
f 11/52/7 35/50/7 36/53/7
f 36/53/7 35/50/7 37/54/7
f 13/55/12 38/56/12 39/57/12
f 38/56/12 13/55/12 40/58/12
f 40/58/12 13/55/12 17/59/12
f 33/60/13 41/61/13 34/62/13
f 41/61/13 33/60/13 42/63/13
f 43/64/14 38/56/14 44/65/14
f 38/56/14 43/64/14 39/57/14
f 18/21/15 17/20/15 14/17/15
f 17/20/15 18/21/15 40/66/15
f 40/66/15 18/21/15 20/23/15
f 29/43/16 45/67/16 46/68/16
f 45/67/16 29/43/16 28/38/16
f 28/38/16 29/43/16 27/44/16
f 28/38/16 27/44/16 26/39/16
f 9/69/7 6/70/7 7/71/7
f 6/70/7 9/69/7 45/72/7
f 6/70/7 45/72/7 16/73/7
f 16/73/7 45/72/7 28/74/7
f 44/75/17 3/76/17 31/77/17
f 3/76/17 44/75/17 38/78/17
f 3/76/17 38/78/17 1/79/17
f 1/79/17 38/78/17 12/80/17
f 47/81/17 12/80/17 38/78/17
f 48/82/17 12/80/17 47/81/17
f 48/82/17 42/83/17 12/80/17
f 42/83/17 48/82/17 41/84/17
f 47/81/17 38/78/17 40/85/17
f 47/81/17 40/85/17 49/86/17
f 20/87/17 49/86/17 40/85/17
f 49/86/17 20/87/17 46/88/17
f 46/88/17 20/87/17 19/89/17
f 46/88/17 19/89/17 29/90/17
f 29/90/17 19/89/17 24/91/17
f 24/91/17 19/89/17 22/92/17
f 47/81/17 49/86/17 50/93/17
f 32/94/18 41/61/18 48/95/18
f 41/61/18 32/94/18 34/62/18
f 30/96/19 44/97/19 31/98/19
f 44/97/19 30/96/19 43/99/19
f 49/100/20 37/101/20 50/102/20
f 37/101/20 49/100/20 36/103/20
f 45/67/21 49/100/21 46/68/21
f 49/100/21 45/67/21 36/103/21
f 36/103/21 45/67/21 11/104/21
f 11/104/21 45/67/21 9/105/21
f 35/106/22 48/107/22 47/108/22
f 48/107/22 35/106/22 32/109/22
f 4/4/7 43/64/7 30/45/7
f 43/64/7 4/4/7 5/5/7
f 43/64/7 5/5/7 39/57/7
f 39/57/7 5/5/7 8/110/7
f 39/57/7 8/110/7 13/55/7
f 50/102/23 35/106/23 47/108/23
f 35/106/23 50/102/23 37/101/23
f 42/63/24 10/12/24 12/14/24
f 10/12/24 42/63/24 33/60/24
