{
    "asset" : {
        "generator" : "Khronos glTF Blender I/O v1.5.17",
        "version" : "2.0"
    },
    "scene" : 0,
    "scenes" : [
        {
            "name" : "Scene",
            "nodes" : [
                0
            ]
        }
    ],
    "nodes" : [
        {
            "mesh" : 0,
            "name" : "imported_Meshes"
        }
    ],
    "materials" : [
        {
            "emissiveFactor" : [
                1,
                1,
                0
            ],
            "emissiveTexture" : {
                "index" : 0
            },
            "name" : "Enemies.023",
            "normalTexture" : {
                "index" : 1
            },
            "pbrMetallicRoughness" : {
                "baseColorTexture" : {
                    "index" : 2
                },
                "metallicFactor" : 0,
                "roughnessFactor" : 0.30000001192092896
            }
        }
    ],
    "meshes" : [
        {
            "name" : "Mesh_0.023",
            "primitives" : [
                {
                    "attributes" : {
                        "POSITION" : 0,
                        "NORMAL" : 1,
                        "TANGENT" : 2,
                        "TEXCOORD_0" : 3
                    },
                    "indices" : 4,
                    "material" : 0
                }
            ]
        }
    ],
    "textures" : [
        {
            "sampler" : 0,
            "source" : 0
        },
        {
            "sampler" : 0,
            "source" : 1
        },
        {
            "sampler" : 0,
            "source" : 2
        }
    ],
    "images" : [
        {
            "mimeType" : "image/png",
            "name" : "Enemies_EMISS",
            "uri" : "Enemies_EMISS.png"
        },
        {
            "mimeType" : "image/png",
            "name" : "Enemies_NM",
            "uri" : "Enemies_NM.png"
        },
        {
            "mimeType" : "image/png",
            "name" : "Enemies_ALB",
            "uri" : "Enemies_ALB.png"
        }
    ],
    "accessors" : [
        {
            "bufferView" : 0,
            "componentType" : 5126,
            "count" : 1236,
            "max" : [
                0.08822905272245407,
                0.03778602555394173,
                0.10295648127794266
            ],
            "min" : [
                -0.08822905272245407,
                -0.03778607398271561,
                -0.10295648127794266
            ],
            "type" : "VEC3"
        },
        {
            "bufferView" : 1,
            "componentType" : 5126,
            "count" : 1236,
            "type" : "VEC3"
        },
        {
            "bufferView" : 2,
            "componentType" : 5126,
            "count" : 1236,
            "type" : "VEC4"
        },
        {
            "bufferView" : 3,
            "componentType" : 5126,
            "count" : 1236,
            "type" : "VEC2"
        },
        {
            "bufferView" : 4,
            "componentType" : 5123,
            "count" : 1236,
            "type" : "SCALAR"
        }
    ],
    "bufferViews" : [
        {
            "buffer" : 0,
            "byteLength" : 14832,
            "byteOffset" : 0
        },
        {
            "buffer" : 0,
            "byteLength" : 14832,
            "byteOffset" : 14832
        },
        {
            "buffer" : 0,
            "byteLength" : 19776,
            "byteOffset" : 29664
        },
        {
            "buffer" : 0,
            "byteLength" : 9888,
            "byteOffset" : 49440
        },
        {
            "buffer" : 0,
            "byteLength" : 2472,
            "byteOffset" : 59328
        }
    ],
    "samplers" : [
        {
            "magFilter" : 9729,
            "minFilter" : 9987
        }
    ],
    "buffers" : [
        {
            "byteLength" : 61800,
            "uri" : "Enemy_Shotgun.bin"
        }
    ]
}
