{
    "asset" : {
        "generator" : "Khronos glTF Blender I/O v1.5.17",
        "version" : "2.0"
    },
    "scene" : 0,
    "scenes" : [
        {
            "name" : "Scene",
            "nodes" : [
                0
            ]
        }
    ],
    "nodes" : [
        {
            "mesh" : 0,
            "name" : "imported_Meshes.001"
        }
    ],
    "materials" : [
        {
            "emissiveFactor" : [
                1,
                1,
                0
            ],
            "emissiveTexture" : {
                "index" : 0
            },
            "name" : "Enemies.019",
            "normalTexture" : {
                "index" : 1
            },
            "pbrMetallicRoughness" : {
                "baseColorTexture" : {
                    "index" : 2
                },
                "metallicFactor" : 0,
                "roughnessFactor" : 0.30000001192092896
            }
        }
    ],
    "meshes" : [
        {
            "name" : "Mesh_0.019",
            "primitives" : [
                {
                    "attributes" : {
                        "POSITION" : 0,
                        "NORMAL" : 1,
                        "TANGENT" : 2,
                        "TEXCOORD_0" : 3
                    },
                    "indices" : 4,
                    "material" : 0
                }
            ]
        }
    ],
    "textures" : [
        {
            "sampler" : 0,
            "source" : 0
        },
        {
            "sampler" : 0,
            "source" : 1
        },
        {
            "sampler" : 0,
            "source" : 2
        }
    ],
    "images" : [
        {
            "mimeType" : "image/png",
            "name" : "Enemies_EMISS",
            "uri" : "Enemies_EMISS.png"
        },
        {
            "mimeType" : "image/png",
            "name" : "Enemies_NM",
            "uri" : "Enemies_NM.png"
        },
        {
            "mimeType" : "image/png",
            "name" : "Enemies_ALB",
            "uri" : "Enemies_ALB.png"
        }
    ],
    "accessors" : [
        {
            "bufferView" : 0,
            "componentType" : 5126,
            "count" : 1158,
            "max" : [
                0.09218047559261322,
                0.04841206967830658,
                0.09467571973800659
            ],
            "min" : [
                -0.09218047559261322,
                -0.04841206595301628,
                -0.09467571973800659
            ],
            "type" : "VEC3"
        },
        {
            "bufferView" : 1,
            "componentType" : 5126,
            "count" : 1158,
            "type" : "VEC3"
        },
        {
            "bufferView" : 2,
            "componentType" : 5126,
            "count" : 1158,
            "type" : "VEC4"
        },
        {
            "bufferView" : 3,
            "componentType" : 5126,
            "count" : 1158,
            "type" : "VEC2"
        },
        {
            "bufferView" : 4,
            "componentType" : 5123,
            "count" : 1158,
            "type" : "SCALAR"
        }
    ],
    "bufferViews" : [
        {
            "buffer" : 0,
            "byteLength" : 13896,
            "byteOffset" : 0
        },
        {
            "buffer" : 0,
            "byteLength" : 13896,
            "byteOffset" : 13896
        },
        {
            "buffer" : 0,
            "byteLength" : 18528,
            "byteOffset" : 27792
        },
        {
            "buffer" : 0,
            "byteLength" : 9264,
            "byteOffset" : 46320
        },
        {
            "buffer" : 0,
            "byteLength" : 2316,
            "byteOffset" : 55584
        }
    ],
    "samplers" : [
        {
            "magFilter" : 9729,
            "minFilter" : 9987
        }
    ],
    "buffers" : [
        {
            "byteLength" : 57900,
            "uri" : "Enemy_MG.bin"
        }
    ]
}
