{
    "asset" : {
        "generator" : "Khronos glTF Blender I/O v1.5.17",
        "version" : "2.0"
    },
    "scene" : 0,
    "scenes" : [
        {
            "name" : "Scene",
            "nodes" : [
                0
            ]
        }
    ],
    "nodes" : [
        {
            "mesh" : 0,
            "name" : "imported_Meshes"
        }
    ],
    "materials" : [
        {
            "emissiveFactor" : [
                1,
                1,
                0
            ],
            "emissiveTexture" : {
                "index" : 0
            },
            "name" : "Enemies.024",
            "normalTexture" : {
                "index" : 1
            },
            "pbrMetallicRoughness" : {
                "baseColorTexture" : {
                    "index" : 2
                },
                "metallicFactor" : 0,
                "roughnessFactor" : 0.30000001192092896
            }
        }
    ],
    "meshes" : [
        {
            "name" : "Mesh_0.024",
            "primitives" : [
                {
                    "attributes" : {
                        "POSITION" : 0,
                        "NORMAL" : 1,
                        "TANGENT" : 2,
                        "TEXCOORD_0" : 3
                    },
                    "indices" : 4,
                    "material" : 0
                }
            ]
        }
    ],
    "textures" : [
        {
            "sampler" : 0,
            "source" : 0
        },
        {
            "sampler" : 0,
            "source" : 1
        },
        {
            "sampler" : 0,
            "source" : 2
        }
    ],
    "images" : [
        {
            "mimeType" : "image/png",
            "name" : "Enemies_EMISS",
            "uri" : "Enemies_EMISS.png"
        },
        {
            "mimeType" : "image/png",
            "name" : "Enemies_NM",
            "uri" : "Enemies_NM.png"
        },
        {
            "mimeType" : "image/png",
            "name" : "Enemies_ALB",
            "uri" : "Enemies_ALB.png"
        }
    ],
    "accessors" : [
        {
            "bufferView" : 0,
            "componentType" : 5126,
            "count" : 2382,
            "max" : [
                0.09887892752885818,
                0.041393864899873734,
                0.09302621334791183
            ],
            "min" : [
                -0.09887892752885818,
                -0.04139382392168045,
                -0.09302616864442825
            ],
            "type" : "VEC3"
        },
        {
            "bufferView" : 1,
            "componentType" : 5126,
            "count" : 2382,
            "type" : "VEC3"
        },
        {
            "bufferView" : 2,
            "componentType" : 5126,
            "count" : 2382,
            "type" : "VEC4"
        },
        {
            "bufferView" : 3,
            "componentType" : 5126,
            "count" : 2382,
            "type" : "VEC2"
        },
        {
            "bufferView" : 4,
            "componentType" : 5123,
            "count" : 2382,
            "type" : "SCALAR"
        }
    ],
    "bufferViews" : [
        {
            "buffer" : 0,
            "byteLength" : 28584,
            "byteOffset" : 0
        },
        {
            "buffer" : 0,
            "byteLength" : 28584,
            "byteOffset" : 28584
        },
        {
            "buffer" : 0,
            "byteLength" : 38112,
            "byteOffset" : 57168
        },
        {
            "buffer" : 0,
            "byteLength" : 19056,
            "byteOffset" : 95280
        },
        {
            "buffer" : 0,
            "byteLength" : 4764,
            "byteOffset" : 114336
        }
    ],
    "samplers" : [
        {
            "magFilter" : 9729,
            "minFilter" : 9987
        }
    ],
    "buffers" : [
        {
            "byteLength" : 119100,
            "uri" : "Enemy_TeslaGun.bin"
        }
    ]
}
