# Blender v2.79 (sub 0) OBJ File: 'tree.blend'
# www.blender.org
mtllib TreeSingleCornerUpwards.mtl
o tree.004_tree.016
v -0.022543 1.430234 0.035773
v -0.257724 0.954544 0.058467
v -0.140896 0.954544 0.223581
v -0.041236 1.430234 0.009355
v -0.035773 1.430234 -0.022543
v -0.223581 0.954544 -0.140895
v 0.041236 1.430234 -0.009355
v 0.009355 1.430234 0.041236
v 0.035773 1.430234 0.022543
v 0.022543 1.430234 -0.035773
v -0.009355 1.430234 -0.041236
v -0.279476 0.690272 -0.176119
v -0.049278 0.888476 -0.217217
v -0.073084 0.690272 -0.322154
v -0.188440 0.888476 -0.118751
v 0.058467 0.954544 0.257724
v 0.223580 0.888476 0.140896
v 0.223580 0.954544 0.140896
v 0.058467 0.888476 0.257724
v 0.049278 0.888476 0.217217
v 0.279476 0.690272 0.176120
v 0.188440 0.888476 0.118751
v 0.073084 0.690272 0.322154
v -0.118751 0.888476 0.188440
v -0.322154 0.690272 0.073084
v -0.176119 0.690272 0.279476
v -0.217217 0.888476 0.049278
v -0.257724 0.888476 0.058467
v -0.223581 0.888476 -0.140895
v -0.058467 0.954544 -0.257723
v 0.140895 0.888476 -0.223580
v -0.058467 0.888476 -0.257723
v 0.140895 0.954544 -0.223580
v 0.073084 0.624204 0.322154
v 0.322154 0.624204 -0.073084
v 0.279476 0.624204 0.176119
v -0.176119 0.624204 0.279476
v 0.021963 0.624204 0.096814
v 0.096814 0.624204 -0.021963
v -0.096814 0.624204 0.021963
v -0.322154 0.624204 0.073084
v 0.176119 0.624204 -0.279476
v -0.021963 0.624204 -0.096814
v -0.073084 0.624204 -0.322154
v -0.279476 0.624204 -0.176119
v 0.322154 0.690272 -0.073084
v 0.176119 0.690272 -0.279476
v 0.217217 0.888476 -0.049278
v -0.140896 0.888476 0.223581
v 0.257723 0.888476 -0.058467
v 0.118751 0.888476 -0.188440
v 0.257723 0.954544 -0.058467
v 0.113899 0.387533 -0.025839
v -0.025839 0.387533 -0.113899
v 0.025839 0.387533 0.113899
v -0.113899 0.387533 0.025839
vt 0.348042 0.352444
vt 0.369614 0.433562
vt 0.337018 0.434053
vt 0.353257 0.352365
vt 0.210502 0.293181
vt 0.174570 0.370834
vt 0.185594 0.289224
vt 0.178555 0.371467
vt 0.249838 0.282460
vt 0.240906 0.278776
vt 0.246139 0.278776
vt 0.249838 0.287671
vt 0.237207 0.282460
vt 0.246139 0.291355
vt 0.237207 0.287671
vt 0.240906 0.291355
vt 0.262158 0.383627
vt 0.299073 0.414142
vt 0.265234 0.424092
vt 0.296998 0.386858
vt 0.312110 0.273525
vt 0.337018 0.259120
vt 0.337018 0.269569
vt 0.312110 0.263076
vt 0.417002 0.318054
vt 0.380087 0.300216
vt 0.414928 0.296985
vt 0.383163 0.331465
vt 0.344056 0.351811
vt 0.348042 0.351178
vt 0.414928 0.365944
vt 0.383163 0.403178
vt 0.380087 0.362713
vt 0.417002 0.393228
vt 0.210502 0.282732
vt 0.185594 0.278776
vt 0.312110 0.430097
vt 0.312110 0.272165
vt 0.281897 0.259120
vt 0.312110 0.261771
vt 0.281897 0.269514
vt 0.152998 0.249991
vt 0.222780 0.278775
vt 0.181903 0.278776
vt 0.152998 0.209283
vt 0.187513 0.235753
vt 0.208483 0.244404
vt 0.196199 0.214869
vt 0.181903 0.180498
vt 0.251684 0.249991
vt 0.217170 0.223520
vt 0.251684 0.209283
vt 0.222780 0.180498
vt 0.265234 0.352378
vt 0.299073 0.365789
vt 0.286731 0.352378
vt 0.281897 0.351954
vt 0.372690 0.259120
vt 0.383163 0.259751
vt 0.369614 0.299585
vt 0.367890 0.218107
vt 0.375000 0.180498
vt 0.378327 0.218107
vt 0.364562 0.180498
vt 0.372690 0.330833
vt 0.152998 0.289715
vt 0.152998 0.279267
vt 0.417002 0.269701
vt 0.372690 0.403809
vt 0.369614 0.363344
vt 0.251684 0.236092
vt 0.277378 0.252941
vt 0.274808 0.259120
vt 0.257889 0.233533
vt 0.251684 0.203526
vt 0.257889 0.206085
vt 0.277378 0.186676
vt 0.274808 0.180498
vt 0.304940 0.186676
vt 0.307510 0.180498
vt 0.307510 0.259120
vt 0.304940 0.252941
vt 0.330634 0.236092
vt 0.324430 0.233533
vt 0.324430 0.206085
vt 0.330634 0.203526
vt 0.251684 0.261771
vt 0.251684 0.272165
vt 0.369614 0.259611
vt 0.369614 0.270060
vt 0.337018 0.444502
vt 0.312110 0.440546
vt 0.369614 0.444011
vt 0.254761 0.353010
vt 0.251684 0.384258
vt 0.330634 0.243466
vt 0.364562 0.255716
vt 0.332878 0.218107
vt 0.277063 0.352378
vt 0.417002 0.344875
vt 0.353257 0.351257
vt 0.330634 0.192749
vt 0.375000 0.255716
vt 0.169355 0.370912
vt 0.254761 0.424723
vt 0.372690 0.332096
vt 0.306442 0.660526
vt 0.235938 0.570315
vt 0.312158 0.570315
vt 0.241655 0.660526
vt 0.245124 0.750952
vt 0.308607 0.841378
vt 0.235938 0.841378
vt 0.306892 0.750952
vt 0.235938 0.750952
vt 0.299421 0.660526
vt 0.308607 0.750952
vt 0.237653 0.660526
vt 0.073523 0.834875
vt 0.144477 0.925301
vt 0.071809 0.925301
vt 0.135291 0.834875
vt 0.144477 0.834875
vt 0.220697 0.910780
vt 0.144477 0.910780
vt 0.220697 0.834875
vn -0.7496 0.3959 0.5304
vn -0.9051 0.3959 -0.1550
vn 0.0000 1.0000 -0.0000
vn -0.5163 0.4483 -0.7297
vn 0.5776 0.0000 0.8163
vn 0.5163 0.4483 0.7297
vn 0.5304 0.3959 0.7496
vn -0.7297 0.4483 0.5163
vn -0.9856 -0.0000 -0.1688
vn -0.1550 0.3959 0.9051
vn 0.1688 0.0000 -0.9856
vn 0.0000 -1.0000 -0.0000
vn -0.8810 0.4483 -0.1509
vn 0.1550 0.3959 -0.9051
vn 0.9856 0.0000 0.1688
vn 0.8163 0.0000 -0.5776
vn -0.5776 0.0000 -0.8163
vn 0.8810 0.4483 0.1509
vn -0.8163 -0.0000 0.5776
vn -0.1688 0.0000 0.9856
vn 0.1509 0.4483 -0.8810
vn 0.7496 0.3959 -0.5304
vn -0.1509 0.4483 0.8810
vn 0.9051 0.3959 0.1550
vn 0.7297 0.4483 -0.5163
vn -0.5304 0.3959 -0.7496
vn 0.5324 0.0523 -0.8449
vn 0.8449 0.0523 0.5324
vn -0.8449 0.0523 -0.5324
vn -0.5324 0.0523 0.8449
usemtl FinalTree
s 1
f 1/1/1 2/2/1 3/3/1
f 2/2/1 1/1/1 4/4/1
f 2/5/2 5/6/2 6/7/2
f 5/6/2 2/5/2 4/8/2
f 7/9/3 8/10/3 9/11/3
f 8/10/3 7/9/3 10/12/3
f 8/10/3 10/12/3 1/13/3
f 1/13/3 10/12/3 11/14/3
f 1/13/3 11/14/3 4/15/3
f 4/15/3 11/14/3 5/16/3
f 12/17/4 13/18/4 14/19/4
f 13/18/4 12/17/4 15/20/4
f 16/21/5 17/22/5 18/23/5
f 17/22/5 16/21/5 19/24/5
f 20/25/6 21/26/6 22/27/6
f 21/26/6 20/25/6 23/28/6
f 8/29/7 18/23/7 9/30/7
f 18/23/7 8/29/7 16/21/7
f 24/31/8 25/32/8 26/33/8
f 25/32/8 24/31/8 27/34/8
f 28/35/9 6/7/9 29/36/9
f 6/7/9 28/35/9 2/5/9
f 8/29/10 3/3/10 16/37/10
f 3/3/10 8/29/10 1/1/10
f 30/38/11 31/39/11 32/40/11
f 31/39/11 30/38/11 33/41/11
f 34/42/12 35/43/12 36/44/12
f 35/43/12 34/42/12 37/45/12
f 35/43/12 37/45/12 38/46/12
f 35/43/12 38/46/12 39/47/12
f 38/46/12 37/45/12 40/48/12
f 40/48/12 37/45/12 41/49/12
f 39/47/12 42/50/12 35/43/12
f 42/50/12 39/47/12 43/51/12
f 42/50/12 43/51/12 44/52/12
f 44/52/12 43/51/12 40/48/12
f 44/52/12 40/48/12 41/49/12
f 44/52/12 41/49/12 45/53/12
f 25/54/13 15/20/13 12/17/13
f 15/20/13 25/54/13 27/55/13
f 11/56/14 33/41/14 30/38/14
f 33/41/14 11/56/14 10/57/14
f 21/26/15 35/58/15 46/59/15
f 35/58/15 21/26/15 36/60/15
f 47/61/16 35/62/16 42/63/16
f 35/62/16 47/61/16 46/64/16
f 23/28/5 36/60/5 21/26/5
f 36/60/5 23/28/5 34/65/5
f 29/36/17 30/66/17 32/67/17
f 30/66/17 29/36/17 6/7/17
f 48/68/18 21/26/18 46/59/18
f 21/26/18 48/68/18 22/27/18
f 26/33/19 41/69/19 37/70/19
f 41/69/19 26/33/19 25/32/19
f 19/71/12 22/72/12 17/73/12
f 22/72/12 19/71/12 20/74/12
f 20/74/12 19/71/12 49/75/12
f 20/74/12 49/75/12 24/76/12
f 24/76/12 49/75/12 27/77/12
f 27/77/12 49/75/12 28/78/12
f 27/77/12 28/78/12 15/79/12
f 15/79/12 28/78/12 29/80/12
f 22/72/12 50/81/12 17/73/12
f 50/81/12 22/72/12 48/82/12
f 50/81/12 48/82/12 31/83/12
f 31/83/12 48/82/12 51/84/12
f 31/83/12 51/84/12 13/85/12
f 31/83/12 13/85/12 32/86/12
f 32/86/12 13/85/12 15/79/12
f 32/86/12 15/79/12 29/80/12
f 33/41/16 50/87/16 31/39/16
f 50/87/16 33/41/16 52/88/16
f 18/23/15 50/89/15 52/90/15
f 50/89/15 18/23/15 17/22/15
f 16/37/20 49/91/20 19/92/20
f 49/91/20 16/37/20 3/3/20
f 3/3/19 28/93/19 49/91/19
f 28/93/19 3/3/19 2/2/19
f 41/94/9 12/17/9 45/95/9
f 12/17/9 41/94/9 25/54/9
f 13/96/21 47/61/21 14/97/21
f 47/61/21 13/96/21 51/98/21
f 10/57/22 52/88/22 33/41/22
f 52/88/22 10/57/22 7/99/22
f 20/100/23 26/33/23 23/28/23
f 26/33/23 20/100/23 24/31/23
f 7/101/24 18/23/24 52/90/24
f 18/23/24 7/101/24 9/30/24
f 51/98/25 46/64/25 47/61/25
f 46/64/25 51/98/25 48/102/25
f 14/97/11 42/63/11 44/103/11
f 42/63/11 14/97/11 47/61/11
f 6/7/26 11/104/26 30/66/26
f 11/104/26 6/7/26 5/6/26
f 45/95/17 14/19/17 44/105/17
f 14/19/17 45/95/17 12/17/17
f 23/28/20 37/70/20 34/106/20
f 37/70/20 23/28/20 26/33/20
usemtl FinalTreeWood
f 43/107/27 53/108/27 54/109/27
f 53/108/27 43/107/27 39/110/27
f 39/111/28 55/112/28 53/113/28
f 55/112/28 39/111/28 38/114/28
f 56/115/29 43/116/29 54/117/29
f 43/116/29 56/115/29 40/118/29
f 38/119/30 56/120/30 55/121/30
f 56/120/30 38/119/30 40/122/30
f 55/123/12 54/124/12 53/125/12
f 54/124/12 55/123/12 56/126/12
