# Blender v2.79 (sub 0) OBJ File: 'tree.blend'
# www.blender.org
mtllib ObstacleSmallCornerUPWards.mtl
o woodStructure
v 0.428750 0.405000 -0.405000
v 0.476250 0.405000 0.405000
v 0.476250 0.405000 -0.405000
v 0.428750 0.405000 0.405000
v 0.476250 0.310000 0.405000
v 0.428750 0.310000 -0.405000
v 0.476250 0.310000 -0.405000
v 0.428750 0.310000 0.405000
v -0.405000 0.310000 -0.428750
v 0.405000 0.310000 -0.476250
v 0.405000 0.310000 -0.428750
v -0.405000 0.310000 -0.476250
v -0.405000 0.405000 -0.476250
v 0.405000 0.405000 -0.428750
v 0.405000 0.405000 -0.476250
v -0.405000 0.405000 -0.428750
v -0.405000 0.810010 0.428750
v 0.405000 0.405000 0.428750
v 0.405000 0.310000 0.428750
v -0.405000 0.905010 0.428750
v 0.405000 0.405000 0.476250
v -0.405000 0.810010 0.476250
v 0.405000 0.310000 0.476250
v -0.405000 0.905010 0.476250
v -0.476250 0.810010 0.405000
v -0.476250 0.405000 -0.405000
v -0.476250 0.310000 -0.405000
v -0.476250 0.905010 0.405000
v -0.428750 0.405000 -0.405000
v -0.428750 0.810010 0.405000
v -0.428750 0.310000 -0.405000
v -0.428750 0.905010 0.405000
v -0.500000 0.500000 -0.500000
v -0.405000 0.500000 -0.405000
v -0.405000 0.500000 -0.500000
v -0.500000 0.500000 -0.405000
v -0.405000 0.000000 -0.500000
v -0.405000 0.000000 -0.405000
v -0.500000 0.000000 -0.500000
v -0.500000 0.000000 -0.405000
v -0.500000 1.000010 0.405000
v -0.405000 1.000010 0.500000
v -0.405000 1.000010 0.405000
v -0.500000 1.000010 0.500000
v -0.405000 0.500010 0.405000
v -0.405000 0.500010 0.500000
v -0.500000 0.500010 0.500000
v -0.500000 0.500010 0.405000
v 0.500000 0.500000 0.500000
v 0.405000 -0.000000 0.500000
v 0.500000 -0.000000 0.500000
v 0.405000 0.500000 0.500000
v 0.405000 -0.000000 0.405000
v 0.405000 0.500000 0.405000
v 0.500000 0.500000 0.405000
v 0.500000 -0.000000 0.405000
v 0.500000 0.000000 -0.405000
v 0.405000 0.000000 -0.405000
v 0.500000 0.500000 -0.405000
v 0.405000 0.500000 -0.405000
v 0.405000 0.500000 -0.500000
v 0.500000 0.000000 -0.500000
v 0.405000 0.000000 -0.500000
v 0.500000 0.500000 -0.500000
vt 0.369984 0.854477
vt 0.378554 0.674305
vt 0.378554 0.854477
vt 0.369984 0.674305
vt 0.378554 0.674305
vt 0.387124 0.854477
vt 0.378554 0.854477
vt 0.387124 0.674305
vt 0.190008 0.674305
vt 0.207149 0.854477
vt 0.190008 0.854477
vt 0.207149 0.674305
vt 0.224289 0.674305
vt 0.207149 0.854477
vt 0.207149 0.674305
vt 0.224289 0.854477
vt 0.352843 0.854477
vt 0.344273 0.674305
vt 0.352843 0.674305
vt 0.344273 0.854477
vt 0.361414 0.854477
vt 0.352843 0.674305
vt 0.361414 0.674305
vt 0.352843 0.854477
vt 0.121446 0.854477
vt 0.104305 0.674305
vt 0.121446 0.674305
vt 0.104305 0.854477
vt 0.138586 0.674305
vt 0.121446 0.854477
vt 0.121446 0.674305
vt 0.138586 0.854477
vt 0.172868 0.854477
vt 0.155727 0.674305
vt 0.172868 0.674305
vt 0.155727 0.854477
vt 0.155727 0.674305
vt 0.138586 0.854477
vt 0.138586 0.674305
vt 0.155727 0.854477
vt 0.344273 0.854477
vt 0.335703 0.674305
vt 0.344273 0.674305
vt 0.335703 0.854477
vt 0.327132 0.674305
vt 0.335703 0.854477
vt 0.327132 0.854477
vt 0.335703 0.674305
vt 0.172868 0.674305
vt 0.190008 0.854477
vt 0.172868 0.854477
vt 0.190008 0.674305
vt 0.241430 0.674305
vt 0.224289 0.854477
vt 0.224289 0.674305
vt 0.241430 0.854477
vt 0.361414 0.854477
vt 0.369984 0.674305
vt 0.369984 0.854477
vt 0.361414 0.674305
vt 0.387124 0.674305
vt 0.395695 0.854477
vt 0.387124 0.854477
vt 0.395695 0.674305
vt 0.241430 0.875609
vt 0.224289 0.854477
vt 0.241430 0.854477
vt 0.224289 0.875609
vt 0.275711 0.896740
vt 0.271426 0.875609
vt 0.275711 0.785523
vt 0.258570 0.896740
vt 0.262855 0.875609
vt 0.262855 0.854477
vt 0.271426 0.854477
vt 0.258570 0.785523
vt 0.275711 0.674305
vt 0.292851 0.785523
vt 0.275711 0.785523
vt 0.292851 0.674305
vt 0.292851 0.896740
vt 0.309992 0.785523
vt 0.309992 0.896740
vt 0.292851 0.785523
vt 0.190008 0.854477
vt 0.185723 0.923432
vt 0.172868 0.854477
vt 0.190008 0.965695
vt 0.185723 0.944563
vt 0.177153 0.944563
vt 0.177153 0.923432
vt 0.172868 0.965695
vt 0.224289 0.896740
vt 0.207149 0.875609
vt 0.224289 0.875609
vt 0.207149 0.896740
vt 0.275711 0.785523
vt 0.271426 0.764391
vt 0.275711 0.674305
vt 0.258570 0.785523
vt 0.262855 0.764391
vt 0.262855 0.743260
vt 0.271426 0.743260
vt 0.258570 0.674305
vt 0.292851 0.785523
vt 0.309992 0.674305
vt 0.309992 0.785523
vt 0.292851 0.674305
vt 0.207149 0.965695
vt 0.190008 0.854477
vt 0.207149 0.854477
vt 0.190008 0.965695
vt 0.275711 0.896740
vt 0.279996 0.827785
vt 0.292851 0.896740
vt 0.275711 0.785523
vt 0.279996 0.806654
vt 0.288566 0.806654
vt 0.288566 0.827785
vt 0.292851 0.785523
vt 0.327132 0.896740
vt 0.309992 0.785523
vt 0.327132 0.785523
vt 0.309992 0.896740
vt 0.327132 0.785523
vt 0.322847 0.716568
vt 0.327132 0.674305
vt 0.314277 0.716568
vt 0.314277 0.695437
vt 0.322847 0.695437
vt 0.309992 0.674305
vt 0.241430 0.896740
vt 0.224289 0.917871
vt 0.224289 0.896740
vt 0.241430 0.917871
vt 0.121446 0.854477
vt 0.117161 0.923432
vt 0.104305 0.854477
vt 0.121446 0.965695
vt 0.117161 0.944563
vt 0.108591 0.944563
vt 0.108591 0.923432
vt 0.104305 0.965695
vt 0.241430 0.785523
vt 0.258570 0.674305
vt 0.258570 0.785523
vt 0.241430 0.674305
vt 0.138586 0.854477
vt 0.134301 0.923432
vt 0.121446 0.854477
vt 0.138586 0.965695
vt 0.134301 0.944563
vt 0.125731 0.944563
vt 0.125731 0.923432
vt 0.121446 0.965695
vt 0.155727 0.965695
vt 0.138586 0.854477
vt 0.155727 0.854477
vt 0.138586 0.965695
vt 0.258570 0.896740
vt 0.241430 0.785523
vt 0.258570 0.785523
vt 0.241430 0.896740
vt 0.172868 0.965695
vt 0.168582 0.896740
vt 0.172868 0.854477
vt 0.155727 0.965695
vt 0.160012 0.896740
vt 0.160012 0.875609
vt 0.168582 0.875609
vt 0.155727 0.854477
vt 0.224289 0.875609
vt 0.207149 0.854477
vt 0.224289 0.854477
vt 0.207149 0.875609
vt 0.224289 0.896740
vt 0.207149 0.917871
vt 0.207149 0.896740
vt 0.224289 0.917871
vt 0.258570 0.896740
vt 0.241430 0.917871
vt 0.241430 0.896740
vt 0.258570 0.917871
vt 0.275711 0.896740
vt 0.258570 0.917871
vt 0.258570 0.896740
vt 0.275711 0.917871
vt 0.241430 0.875609
vt 0.224289 0.896740
vt 0.224289 0.875609
vt 0.241430 0.896740
vn 0.0000 1.0000 0.0000
vn 0.0000 -1.0000 -0.0000
vn -1.0000 0.0000 0.0000
vn 1.0000 0.0000 0.0000
vn 0.0000 0.0000 -1.0000
vn 0.0000 0.0000 1.0000
vn -0.5253 -0.8509 0.0000
vn 0.5253 0.8509 0.0000
vn 0.0000 0.8509 -0.5253
vn 0.0000 -0.8509 0.5253
usemtl FinalObstacleWood
s 1
f 1/1/1 2/2/1 3/3/1
f 2/2/1 1/1/1 4/4/1
f 5/5/2 6/6/2 7/7/2
f 6/6/2 5/5/2 8/8/2
f 8/9/3 1/10/3 6/11/3
f 1/10/3 8/9/3 4/12/3
f 3/13/4 5/14/4 7/15/4
f 5/14/4 3/13/4 2/16/4
f 9/17/2 10/18/2 11/19/2
f 10/18/2 9/17/2 12/20/2
f 13/21/1 14/22/1 15/23/1
f 14/22/1 13/21/1 16/24/1
f 12/25/5 15/26/5 10/27/5
f 15/26/5 12/25/5 13/28/5
f 14/29/6 9/30/6 11/31/6
f 9/30/6 14/29/6 16/32/6
f 17/33/5 18/34/5 19/35/5
f 18/34/5 17/33/5 20/36/5
f 21/37/6 22/38/6 23/39/6
f 22/38/6 21/37/6 24/40/6
f 22/41/7 19/42/7 23/43/7
f 19/42/7 22/41/7 17/44/7
f 20/45/8 21/46/8 18/47/8
f 21/46/8 20/45/8 24/48/8
f 25/49/3 26/50/3 27/51/3
f 26/50/3 25/49/3 28/52/3
f 29/53/4 30/54/4 31/55/4
f 30/54/4 29/53/4 32/56/4
f 26/57/9 32/58/9 29/59/9
f 32/58/9 26/57/9 28/60/9
f 30/61/10 27/62/10 31/63/10
f 27/62/10 30/61/10 25/64/10
f 33/65/1 34/66/1 35/67/1
f 34/66/1 33/65/1 36/68/1
f 35/69/4 13/70/4 37/71/4
f 13/70/4 35/69/4 34/72/4
f 13/70/4 34/72/4 16/73/4
f 16/73/4 34/72/4 9/74/4
f 12/75/4 37/71/4 13/70/4
f 37/71/4 12/75/4 38/76/4
f 38/76/4 12/75/4 9/74/4
f 38/76/4 9/74/4 34/72/4
f 33/77/5 37/78/5 39/79/5
f 37/78/5 33/77/5 35/80/5
f 40/81/3 33/82/3 39/83/3
f 33/82/3 40/81/3 36/84/3
f 38/85/6 31/86/6 40/87/6
f 31/86/6 38/85/6 34/88/6
f 31/86/6 34/88/6 29/89/6
f 29/89/6 34/88/6 26/90/6
f 27/91/6 40/87/6 31/86/6
f 40/87/6 27/91/6 36/92/6
f 36/92/6 27/91/6 26/90/6
f 36/92/6 26/90/6 34/88/6
f 41/93/1 42/94/1 43/95/1
f 42/94/1 41/93/1 44/96/1
f 43/97/4 20/98/4 45/99/4
f 20/98/4 43/97/4 42/100/4
f 20/98/4 42/100/4 24/101/4
f 24/101/4 42/100/4 22/102/4
f 17/103/4 45/99/4 20/98/4
f 45/99/4 17/103/4 46/104/4
f 46/104/4 17/103/4 22/102/4
f 46/104/4 22/102/4 42/100/4
f 47/105/3 41/106/3 48/107/3
f 41/106/3 47/105/3 44/108/3
f 42/109/6 47/110/6 46/111/6
f 47/110/6 42/109/6 44/112/6
f 48/113/5 25/114/5 45/115/5
f 25/114/5 48/113/5 41/116/5
f 25/114/5 41/116/5 28/117/5
f 28/117/5 41/116/5 32/118/5
f 30/119/5 45/115/5 25/114/5
f 45/115/5 30/119/5 43/120/5
f 43/120/5 30/119/5 32/118/5
f 43/120/5 32/118/5 41/116/5
f 49/121/6 50/122/6 51/123/6
f 50/122/6 49/121/6 52/124/6
f 53/125/3 19/126/3 54/127/3
f 19/126/3 53/125/3 50/122/3
f 19/126/3 50/122/3 23/128/3
f 23/128/3 50/122/3 21/129/3
f 18/130/3 54/127/3 19/126/3
f 54/127/3 18/130/3 52/131/3
f 52/131/3 18/130/3 21/129/3
f 52/131/3 21/129/3 50/122/3
f 54/132/1 49/133/1 55/134/1
f 49/133/1 54/132/1 52/135/1
f 53/136/5 8/137/5 56/138/5
f 8/137/5 53/136/5 54/139/5
f 8/137/5 54/139/5 4/140/5
f 4/140/5 54/139/5 2/141/5
f 5/142/5 56/138/5 8/137/5
f 56/138/5 5/142/5 55/143/5
f 55/143/5 5/142/5 2/141/5
f 55/143/5 2/141/5 54/139/5
f 49/144/4 56/145/4 55/146/4
f 56/145/4 49/144/4 51/147/4
f 57/148/6 7/149/6 58/150/6
f 7/149/6 57/148/6 59/151/6
f 7/149/6 59/151/6 3/152/6
f 3/152/6 59/151/6 1/153/6
f 6/154/6 58/150/6 7/149/6
f 58/150/6 6/154/6 60/155/6
f 60/155/6 6/154/6 1/153/6
f 60/155/6 1/153/6 59/151/6
f 61/156/5 62/157/5 63/158/5
f 62/157/5 61/156/5 64/159/5
f 64/160/4 57/161/4 62/162/4
f 57/161/4 64/160/4 59/163/4
f 63/164/3 10/165/3 61/166/3
f 10/165/3 63/164/3 58/167/3
f 10/165/3 58/167/3 11/168/3
f 11/168/3 58/167/3 14/169/3
f 15/170/3 61/166/3 10/165/3
f 61/166/3 15/170/3 60/171/3
f 60/171/3 15/170/3 14/169/3
f 60/171/3 14/169/3 58/167/3
f 61/172/1 59/173/1 64/174/1
f 59/173/1 61/172/1 60/175/1
f 40/176/2 37/177/2 38/178/2
f 37/177/2 40/176/2 39/179/2
f 47/180/2 45/181/2 46/182/2
f 45/181/2 47/180/2 48/183/2
f 50/184/2 56/185/2 51/186/2
f 56/185/2 50/184/2 53/187/2
f 58/188/2 62/189/2 57/190/2
f 62/189/2 58/188/2 63/191/2
