{
    "asset" : {
        "generator" : "Khronos glTF Blender I/O v1.5.17",
        "version" : "2.0"
    },
    "scene" : 0,
    "scenes" : [
        {
            "name" : "Scene",
            "nodes" : [
                0,
                1,
                2
            ]
        }
    ],
    "nodes" : [
        {
            "mesh" : 0,
            "name" : "imported_Meshes"
        },
        {
            "name" : "Light",
            "rotation" : [
                0.16907575726509094,
                0.7558803558349609,
                -0.27217137813568115,
                0.570947527885437
            ],
            "translation" : [
                4.076245307922363,
                5.903861999511719,
                -1.0054539442062378
            ]
        },
        {
            "name" : "Camera",
            "rotation" : [
                0.483536034822464,
                0.33687159419059753,
                -0.20870360732078552,
                0.7804827094078064
            ],
            "translation" : [
                7.358891487121582,
                4.958309173583984,
                6.925790786743164
            ]
        }
    ],
    "materials" : [
        {
            "emissiveFactor" : [
                0,
                0,
                1
            ],
            "emissiveTexture" : {
                "index" : 0
            },
            "name" : "turrets1.001",
            "normalTexture" : {
                "index" : 1
            },
            "pbrMetallicRoughness" : {
                "baseColorTexture" : {
                    "index" : 2
                },
                "metallicFactor" : 0,
                "roughnessFactor" : 0.1469999998807907
            }
        }
    ],
    "meshes" : [
        {
            "name" : "Mesh_0.001",
            "primitives" : [
                {
                    "attributes" : {
                        "POSITION" : 0,
                        "NORMAL" : 1,
                        "TANGENT" : 2,
                        "TEXCOORD_0" : 3,
                        "TEXCOORD_1" : 4
                    },
                    "indices" : 5,
                    "material" : 0
                }
            ]
        }
    ],
    "textures" : [
        {
            "sampler" : 0,
            "source" : 0
        },
        {
            "sampler" : 0,
            "source" : 1
        },
        {
            "sampler" : 0,
            "source" : 2
        }
    ],
    "images" : [
        {
            "mimeType" : "image/png",
            "name" : "Pack_1_EMISS",
            "uri" : "Pack_1_EMISS.png"
        },
        {
            "mimeType" : "image/png",
            "name" : "Pack_1_NM",
            "uri" : "Pack_1_NM.png"
        },
        {
            "mimeType" : "image/png",
            "name" : "Pack_1_ALB",
            "uri" : "Pack_1_ALB.png"
        }
    ],
    "accessors" : [
        {
            "bufferView" : 0,
            "componentType" : 5126,
            "count" : 3261,
            "max" : [
                0.22361473739147186,
                0.5175857543945312,
                0.22361478209495544
            ],
            "min" : [
                -0.22361476719379425,
                -0.0005600673030130565,
                -0.3351092040538788
            ],
            "type" : "VEC3"
        },
        {
            "bufferView" : 1,
            "componentType" : 5126,
            "count" : 3261,
            "type" : "VEC3"
        },
        {
            "bufferView" : 2,
            "componentType" : 5126,
            "count" : 3261,
            "type" : "VEC4"
        },
        {
            "bufferView" : 3,
            "componentType" : 5126,
            "count" : 3261,
            "type" : "VEC2"
        },
        {
            "bufferView" : 4,
            "componentType" : 5126,
            "count" : 3261,
            "type" : "VEC2"
        },
        {
            "bufferView" : 5,
            "componentType" : 5123,
            "count" : 3261,
            "type" : "SCALAR"
        }
    ],
    "bufferViews" : [
        {
            "buffer" : 0,
            "byteLength" : 39132,
            "byteOffset" : 0
        },
        {
            "buffer" : 0,
            "byteLength" : 39132,
            "byteOffset" : 39132
        },
        {
            "buffer" : 0,
            "byteLength" : 52176,
            "byteOffset" : 78264
        },
        {
            "buffer" : 0,
            "byteLength" : 26088,
            "byteOffset" : 130440
        },
        {
            "buffer" : 0,
            "byteLength" : 26088,
            "byteOffset" : 156528
        },
        {
            "buffer" : 0,
            "byteLength" : 6522,
            "byteOffset" : 182616
        }
    ],
    "samplers" : [
        {
            "magFilter" : 9729,
            "minFilter" : 9987
        }
    ],
    "buffers" : [
        {
            "byteLength" : 189140,
            "uri" : "2.bin"
        }
    ]
}
