{
    "asset" : {
        "generator" : "Khronos glTF Blender I/O v1.5.17",
        "version" : "2.0"
    },
    "scene" : 0,
    "scenes" : [
        {
            "name" : "Scene",
            "nodes" : [
                0
            ]
        }
    ],
    "nodes" : [
        {
            "mesh" : 0,
            "name" : "imported_Meshes"
        }
    ],
    "materials" : [
        {
            "emissiveFactor" : [
                0,
                1,
                1
            ],
            "emissiveTexture" : {
                "index" : 0
            },
            "name" : "turrets2",
            "normalTexture" : {
                "index" : 1
            },
            "pbrMetallicRoughness" : {
                "baseColorTexture" : {
                    "index" : 2
                },
                "metallicFactor" : 0,
                "roughnessFactor" : 0.30000001192092896
            }
        }
    ],
    "meshes" : [
        {
            "name" : "Mesh_0.004",
            "primitives" : [
                {
                    "attributes" : {
                        "POSITION" : 0,
                        "NORMAL" : 1,
                        "TANGENT" : 2,
                        "TEXCOORD_0" : 3,
                        "TEXCOORD_1" : 4
                    },
                    "indices" : 5,
                    "material" : 0
                }
            ]
        }
    ],
    "textures" : [
        {
            "sampler" : 0,
            "source" : 0
        },
        {
            "sampler" : 0,
            "source" : 1
        },
        {
            "sampler" : 0,
            "source" : 2
        }
    ],
    "images" : [
        {
            "mimeType" : "image/png",
            "name" : "Pack_2_EMISS",
            "uri" : "Pack_2_EMISS.png"
        },
        {
            "mimeType" : "image/png",
            "name" : "Pack_2_NM",
            "uri" : "Pack_2_NM.png"
        },
        {
            "mimeType" : "image/png",
            "name" : "Pack_2_ALB",
            "uri" : "Pack_2_ALB.png"
        }
    ],
    "accessors" : [
        {
            "bufferView" : 0,
            "componentType" : 5126,
            "count" : 3222,
            "max" : [
                0.20854991674423218,
                0.7407503724098206,
                0.11240788549184799
            ],
            "min" : [
                -0.1693519651889801,
                -0.0005600095028057694,
                -0.21494440734386444
            ],
            "type" : "VEC3"
        },
        {
            "bufferView" : 1,
            "componentType" : 5126,
            "count" : 3222,
            "type" : "VEC3"
        },
        {
            "bufferView" : 2,
            "componentType" : 5126,
            "count" : 3222,
            "type" : "VEC4"
        },
        {
            "bufferView" : 3,
            "componentType" : 5126,
            "count" : 3222,
            "type" : "VEC2"
        },
        {
            "bufferView" : 4,
            "componentType" : 5126,
            "count" : 3222,
            "type" : "VEC2"
        },
        {
            "bufferView" : 5,
            "componentType" : 5123,
            "count" : 3222,
            "type" : "SCALAR"
        }
    ],
    "bufferViews" : [
        {
            "buffer" : 0,
            "byteLength" : 38664,
            "byteOffset" : 0
        },
        {
            "buffer" : 0,
            "byteLength" : 38664,
            "byteOffset" : 38664
        },
        {
            "buffer" : 0,
            "byteLength" : 51552,
            "byteOffset" : 77328
        },
        {
            "buffer" : 0,
            "byteLength" : 25776,
            "byteOffset" : 128880
        },
        {
            "buffer" : 0,
            "byteLength" : 25776,
            "byteOffset" : 154656
        },
        {
            "buffer" : 0,
            "byteLength" : 6444,
            "byteOffset" : 180432
        }
    ],
    "samplers" : [
        {
            "magFilter" : 9729,
            "minFilter" : 9987
        }
    ],
    "buffers" : [
        {
            "byteLength" : 186876,
            "uri" : "5.bin"
        }
    ]
}
