{
    "asset" : {
        "generator" : "Khronos glTF Blender I/O v1.5.17",
        "version" : "2.0"
    },
    "scene" : 0,
    "scenes" : [
        {
            "name" : "Scene",
            "nodes" : [
                0
            ]
        }
    ],
    "nodes" : [
        {
            "mesh" : 0,
            "name" : "imported_Meshes"
        }
    ],
    "materials" : [
        {
            "emissiveFactor" : [
                0,
                1,
                1
            ],
            "emissiveTexture" : {
                "index" : 0
            },
            "name" : "turrets2.001",
            "normalTexture" : {
                "index" : 1
            },
            "pbrMetallicRoughness" : {
                "baseColorTexture" : {
                    "index" : 2
                },
                "metallicFactor" : 0,
                "roughnessFactor" : 0.30000001192092896
            }
        }
    ],
    "meshes" : [
        {
            "name" : "Mesh_0.005",
            "primitives" : [
                {
                    "attributes" : {
                        "POSITION" : 0,
                        "NORMAL" : 1,
                        "TANGENT" : 2,
                        "TEXCOORD_0" : 3,
                        "TEXCOORD_1" : 4
                    },
                    "indices" : 5,
                    "material" : 0
                }
            ]
        }
    ],
    "textures" : [
        {
            "sampler" : 0,
            "source" : 0
        },
        {
            "sampler" : 0,
            "source" : 1
        },
        {
            "sampler" : 0,
            "source" : 2
        }
    ],
    "images" : [
        {
            "mimeType" : "image/png",
            "name" : "Pack_2_EMISS",
            "uri" : "Pack_2_EMISS.png"
        },
        {
            "mimeType" : "image/png",
            "name" : "Pack_2_NM",
            "uri" : "Pack_2_NM.png"
        },
        {
            "mimeType" : "image/png",
            "name" : "Pack_2_ALB",
            "uri" : "Pack_2_ALB.png"
        }
    ],
    "accessors" : [
        {
            "bufferView" : 0,
            "componentType" : 5126,
            "count" : 4308,
            "max" : [
                0.19534212350845337,
                0.4205678403377533,
                0.27910199761390686
            ],
            "min" : [
                -0.19534212350845337,
                -0.0005600465228781104,
                -0.340633749961853
            ],
            "type" : "VEC3"
        },
        {
            "bufferView" : 1,
            "componentType" : 5126,
            "count" : 4308,
            "type" : "VEC3"
        },
        {
            "bufferView" : 2,
            "componentType" : 5126,
            "count" : 4308,
            "type" : "VEC4"
        },
        {
            "bufferView" : 3,
            "componentType" : 5126,
            "count" : 4308,
            "type" : "VEC2"
        },
        {
            "bufferView" : 4,
            "componentType" : 5126,
            "count" : 4308,
            "type" : "VEC2"
        },
        {
            "bufferView" : 5,
            "componentType" : 5123,
            "count" : 4308,
            "type" : "SCALAR"
        }
    ],
    "bufferViews" : [
        {
            "buffer" : 0,
            "byteLength" : 51696,
            "byteOffset" : 0
        },
        {
            "buffer" : 0,
            "byteLength" : 51696,
            "byteOffset" : 51696
        },
        {
            "buffer" : 0,
            "byteLength" : 68928,
            "byteOffset" : 103392
        },
        {
            "buffer" : 0,
            "byteLength" : 34464,
            "byteOffset" : 172320
        },
        {
            "buffer" : 0,
            "byteLength" : 34464,
            "byteOffset" : 206784
        },
        {
            "buffer" : 0,
            "byteLength" : 8616,
            "byteOffset" : 241248
        }
    ],
    "samplers" : [
        {
            "magFilter" : 9729,
            "minFilter" : 9987
        }
    ],
    "buffers" : [
        {
            "byteLength" : 249864,
            "uri" : "6.bin"
        }
    ]
}
