{
    "asset" : {
        "generator" : "Khronos glTF Blender I/O v1.5.17",
        "version" : "2.0"
    },
    "scene" : 0,
    "scenes" : [
        {
            "name" : "Scene",
            "nodes" : [
                0
            ]
        }
    ],
    "nodes" : [
        {
            "mesh" : 0,
            "name" : "imported_Meshes"
        }
    ],
    "materials" : [
        {
            "emissiveFactor" : [
                0,
                1,
                1
            ],
            "emissiveTexture" : {
                "index" : 0
            },
            "name" : "turrets2.003",
            "normalTexture" : {
                "index" : 1
            },
            "pbrMetallicRoughness" : {
                "baseColorTexture" : {
                    "index" : 2
                },
                "metallicFactor" : 0,
                "roughnessFactor" : 0.30000001192092896
            }
        }
    ],
    "meshes" : [
        {
            "name" : "Mesh_0.007",
            "primitives" : [
                {
                    "attributes" : {
                        "POSITION" : 0,
                        "NORMAL" : 1,
                        "TANGENT" : 2,
                        "TEXCOORD_0" : 3,
                        "TEXCOORD_1" : 4
                    },
                    "indices" : 5,
                    "material" : 0
                }
            ]
        }
    ],
    "textures" : [
        {
            "sampler" : 0,
            "source" : 0
        },
        {
            "sampler" : 0,
            "source" : 1
        },
        {
            "sampler" : 0,
            "source" : 2
        }
    ],
    "images" : [
        {
            "mimeType" : "image/png",
            "name" : "Pack_2_EMISS",
            "uri" : "Pack_2_EMISS.png"
        },
        {
            "mimeType" : "image/png",
            "name" : "Pack_2_NM",
            "uri" : "Pack_2_NM.png"
        },
        {
            "mimeType" : "image/png",
            "name" : "Pack_2_ALB",
            "uri" : "Pack_2_ALB.png"
        }
    ],
    "accessors" : [
        {
            "bufferView" : 0,
            "componentType" : 5126,
            "count" : 3105,
            "max" : [
                0.21063284575939178,
                0.39776572585105896,
                0.27133458852767944
            ],
            "min" : [
                -0.21063284575939178,
                -0.0005600341246463358,
                -0.3633100688457489
            ],
            "type" : "VEC3"
        },
        {
            "bufferView" : 1,
            "componentType" : 5126,
            "count" : 3105,
            "type" : "VEC3"
        },
        {
            "bufferView" : 2,
            "componentType" : 5126,
            "count" : 3105,
            "type" : "VEC4"
        },
        {
            "bufferView" : 3,
            "componentType" : 5126,
            "count" : 3105,
            "type" : "VEC2"
        },
        {
            "bufferView" : 4,
            "componentType" : 5126,
            "count" : 3105,
            "type" : "VEC2"
        },
        {
            "bufferView" : 5,
            "componentType" : 5123,
            "count" : 3105,
            "type" : "SCALAR"
        }
    ],
    "bufferViews" : [
        {
            "buffer" : 0,
            "byteLength" : 37260,
            "byteOffset" : 0
        },
        {
            "buffer" : 0,
            "byteLength" : 37260,
            "byteOffset" : 37260
        },
        {
            "buffer" : 0,
            "byteLength" : 49680,
            "byteOffset" : 74520
        },
        {
            "buffer" : 0,
            "byteLength" : 24840,
            "byteOffset" : 124200
        },
        {
            "buffer" : 0,
            "byteLength" : 24840,
            "byteOffset" : 149040
        },
        {
            "buffer" : 0,
            "byteLength" : 6210,
            "byteOffset" : 173880
        }
    ],
    "samplers" : [
        {
            "magFilter" : 9729,
            "minFilter" : 9987
        }
    ],
    "buffers" : [
        {
            "byteLength" : 180092,
            "uri" : "7.bin"
        }
    ]
}
