{
	"asset":{
		"version":"2.0",
		"generator":"Houdini GLTF 2.0 Exporter"
	},
	"accessors":[
		{
			"bufferView":0,
			"componentType":5123,
			"count":3105,
			"type":"SCALAR",
			"min":[0
			],
			"max":[3104
			]
		},
		{
			"bufferView":1,
			"componentType":5126,
			"count":3105,
			"type":"VEC3",
			"min":[-0.210632846,-0.000560034125,-0.363310069
			],
			"max":[0.210632846,0.397765726,0.271334589
			]
		},
		{
			"bufferView":2,
			"componentType":5126,
			"count":3105,
			"type":"VEC2",
			"min":[0.0118455105,0.00322842598
			],
			"max":[0.994757831,0.51617378
			]
		},
		{
			"bufferView":3,
			"componentType":5126,
			"count":3105,
			"type":"VEC3",
			"min":[-1,-1,-1
			],
			"max":[1,1,1
			]
		},
		{
			"bufferView":4,
			"componentType":5126,
			"count":3105,
			"type":"VEC2",
			"min":[0.0118455105,0.00322842598
			],
			"max":[0.994757831,0.51617378
			]
		}
	],
	"buffers":[
		{
			"uri":"8_data.bin",
			"byteLength":130412,
			"name":"main_buffer"
		}
	],
	"bufferViews":[
		{
			"buffer":0,
			"byteLength":6210,
			"target":34963
		},
		{
			"buffer":0,
			"byteOffset":6212,
			"byteLength":37260,
			"target":34962
		},
		{
			"buffer":0,
			"byteOffset":43472,
			"byteLength":24840,
			"target":34962
		},
		{
			"buffer":0,
			"byteOffset":68312,
			"byteLength":37260,
			"target":34962
		},
		{
			"buffer":0,
			"byteOffset":105572,
			"byteLength":24840,
			"target":34962
		}
	],
	"nodes":[
		{
			"name":"imported_Meshes",
			"mesh":0
		}
	],
	"meshes":[
		{
			"primitives":[
				{
					"attributes":{
						"TEXCOORD_1":4,
						"NORMAL":3,
						"TEXCOORD_0":2,
						"POSITION":1
					},
					"indices":0,
					"material":0
				}
			]
		}
	],
	"materials":[
		{
			"name":"turrets2",
			"pbrMetallicRoughness":{
				"metallicFactor":0,
				"roughnessFactor":0.300000012,
				"baseColorTexture":{
					"index":0
				}
			},
			"normalTexture":{
				"index":1
			},
			"emissiveTexture":{
				"index":2
			},
			"emissiveFactor":[0,1,1
			]
		}
	],
	"scenes":[
		{
			"nodes":[0
			]
		}
	],
	"textures":[
		{
			"source":0
		},
		{
			"source":1
		},
		{
			"source":2
		}
	],
	"images":[
		{
			"uri":"Pack_2_ALB.png",
			"mimeType":"image/png"
		},
		{
			"uri":"Pack_2_NM.png",
			"mimeType":"image/png"
		},
		{
			"uri":"Pack_2_EMISS.png",
			"mimeType":"image/png"
		}
	],
	"scene":0
}
