# Blender v2.79 (sub 0) OBJ File: 'tree.blend'
# www.blender.org
mtllib 1.mtl
o Text_CUText
v 0.300000 0.682000 0.000000
v 0.202000 0.682000 0.000000
v 0.202000 0.000000 0.000000
v 0.300000 0.000000 0.000000
v 0.300000 0.682000 -0.100000
v 0.202000 0.682000 -0.100000
v 0.202000 0.000000 -0.100000
v 0.300000 0.000000 -0.100000
vn 0.0000 0.0000 -1.0000
vn 0.0000 -0.0000 1.0000
vn 0.0000 1.0000 0.0000
vn 0.0000 -1.0000 0.0000
vn -1.0000 -0.0000 0.0000
vn 1.0000 -0.0000 0.0000
usemtl TextMTL
s off
f 3//1 2//1 1//1
f 3//1 1//1 4//1
f 7//2 5//2 6//2
f 7//2 8//2 5//2
f 3//3 4//3 8//3 7//3
f 1//4 2//4 6//4 5//4
f 4//5 1//5 5//5 8//5
f 2//6 3//6 7//6 6//6
