# Blender v2.79 (sub 0) OBJ File: 'tree.blend'
# www.blender.org
mtllib 3.mtl
o Text.002_CUText.002
v 0.081000 0.569000 0.000000
v 0.092449 0.573982 0.000000
v 0.103343 0.578440 0.000000
v 0.113750 0.582391 0.000000
v 0.123741 0.585852 0.000000
v 0.133384 0.588841 0.000000
v 0.142750 0.591375 0.000000
v 0.151907 0.593472 0.000000
v 0.160926 0.595148 0.000000
v 0.169875 0.596422 0.000000
v 0.178824 0.597310 0.000000
v 0.187843 0.597830 0.000000
v 0.197000 0.598000 0.000000
v 0.214447 0.597196 0.000000
v 0.230741 0.594819 0.000000
v 0.245813 0.590922 0.000000
v 0.259593 0.585556 0.000000
v 0.272012 0.578773 0.000000
v 0.283000 0.570625 0.000000
v 0.292488 0.561165 0.000000
v 0.300407 0.550444 0.000000
v 0.306688 0.538516 0.000000
v 0.311259 0.525431 0.000000
v 0.314053 0.511241 0.000000
v 0.315000 0.496000 0.000000
v 0.314063 0.481028 0.000000
v 0.311250 0.467139 0.000000
v 0.306563 0.454375 0.000000
v 0.300000 0.442778 0.000000
v 0.291563 0.432389 0.000000
v 0.281250 0.423250 0.000000
v 0.269063 0.415403 0.000000
v 0.255000 0.408889 0.000000
v 0.239063 0.403750 0.000000
v 0.221250 0.400028 0.000000
v 0.201563 0.397764 0.000000
v 0.180000 0.397000 0.000000
v 0.180000 0.307000 0.000000
v 0.203249 0.307087 0.000000
v 0.224495 0.304944 0.000000
v 0.243734 0.300719 0.000000
v 0.260963 0.294556 0.000000
v 0.276178 0.286601 0.000000
v 0.289375 0.277000 0.000000
v 0.300552 0.265899 0.000000
v 0.309704 0.253444 0.000000
v 0.316828 0.239781 0.000000
v 0.321921 0.225056 0.000000
v 0.324980 0.209413 0.000000
v 0.326000 0.193000 0.000000
v 0.325115 0.176991 0.000000
v 0.322505 0.162009 0.000000
v 0.318234 0.148125 0.000000
v 0.312370 0.135407 0.000000
v 0.304979 0.123926 0.000000
v 0.296125 0.113750 0.000000
v 0.285876 0.104949 0.000000
v 0.274296 0.097593 0.000000
v 0.261453 0.091750 0.000000
v 0.247412 0.087491 0.000000
v 0.232239 0.084884 0.000000
v 0.216000 0.084000 0.000000
v 0.203499 0.084355 0.000000
v 0.190991 0.085421 0.000000
v 0.178469 0.087203 0.000000
v 0.165926 0.089704 0.000000
v 0.153355 0.092927 0.000000
v 0.140750 0.096875 0.000000
v 0.128103 0.101553 0.000000
v 0.115407 0.106963 0.000000
v 0.102656 0.113109 0.000000
v 0.089843 0.119995 0.000000
v 0.076959 0.127624 0.000000
v 0.064000 0.136000 0.000000
v 0.064000 0.030000 0.000000
v 0.076249 0.023981 0.000000
v 0.088491 0.018431 0.000000
v 0.100719 0.013359 0.000000
v 0.112926 0.008778 0.000000
v 0.125105 0.004696 0.000000
v 0.137250 0.001125 0.000000
v 0.149353 -0.001925 -0.000000
v 0.161407 -0.004444 -0.000000
v 0.173406 -0.006422 -0.000000
v 0.185343 -0.007847 -0.000000
v 0.197210 -0.008710 -0.000000
v 0.209000 -0.009000 -0.000000
v 0.239699 -0.007257 -0.000000
v 0.268676 -0.002139 -0.000000
v 0.295750 0.006188 0.000000
v 0.320741 0.017556 0.000000
v 0.343468 0.031799 0.000000
v 0.363750 0.048750 0.000000
v 0.381407 0.068243 0.000000
v 0.396259 0.090111 0.000000
v 0.408125 0.114188 0.000000
v 0.416824 0.140306 0.000000
v 0.422176 0.168299 0.000000
v 0.424000 0.198000 0.000000
v 0.423370 0.215491 0.000000
v 0.421463 0.232847 0.000000
v 0.418250 0.249891 0.000000
v 0.413704 0.266444 0.000000
v 0.407796 0.282332 0.000000
v 0.400500 0.297375 0.000000
v 0.391787 0.311398 0.000000
v 0.381630 0.324222 0.000000
v 0.370000 0.335672 0.000000
v 0.356870 0.345569 0.000000
v 0.342213 0.353738 0.000000
v 0.326000 0.360000 0.000000
v 0.340736 0.368701 0.000000
v 0.353972 0.377861 0.000000
v 0.365750 0.387563 0.000000
v 0.376111 0.397889 0.000000
v 0.385097 0.408924 0.000000
v 0.392750 0.420750 0.000000
v 0.399111 0.433451 0.000000
v 0.404222 0.447111 0.000000
v 0.408125 0.461813 0.000000
v 0.410861 0.477639 0.000000
v 0.412472 0.494674 0.000000
v 0.413000 0.513000 0.000000
v 0.411375 0.539190 0.000000
v 0.406583 0.563685 0.000000
v 0.398750 0.586375 0.000000
v 0.388000 0.607148 0.000000
v 0.374458 0.625894 0.000000
v 0.358250 0.642500 0.000000
v 0.339500 0.656857 0.000000
v 0.318333 0.668852 0.000000
v 0.294875 0.678375 0.000000
v 0.269250 0.685315 0.000000
v 0.241583 0.689560 0.000000
v 0.212000 0.691000 0.000000
v 0.199492 0.690811 0.000000
v 0.187435 0.690241 0.000000
v 0.175781 0.689281 0.000000
v 0.164482 0.687926 0.000000
v 0.153487 0.686168 0.000000
v 0.142750 0.684000 0.000000
v 0.132221 0.681415 0.000000
v 0.121852 0.678407 0.000000
v 0.111594 0.674969 0.000000
v 0.101398 0.671093 0.000000
v 0.091216 0.666772 0.000000
v 0.081000 0.662000 0.000000
v 0.081000 0.569000 -0.100000
v 0.092449 0.573982 -0.100000
v 0.103343 0.578440 -0.100000
v 0.113750 0.582391 -0.100000
v 0.123741 0.585852 -0.100000
v 0.133384 0.588841 -0.100000
v 0.142750 0.591375 -0.100000
v 0.151907 0.593472 -0.100000
v 0.160926 0.595148 -0.100000
v 0.169875 0.596422 -0.100000
v 0.178824 0.597310 -0.100000
v 0.187843 0.597830 -0.100000
v 0.197000 0.598000 -0.100000
v 0.214447 0.597196 -0.100000
v 0.230741 0.594819 -0.100000
v 0.245813 0.590922 -0.100000
v 0.259593 0.585556 -0.100000
v 0.272012 0.578773 -0.100000
v 0.283000 0.570625 -0.100000
v 0.292488 0.561165 -0.100000
v 0.300407 0.550444 -0.100000
v 0.306688 0.538516 -0.100000
v 0.311259 0.525431 -0.100000
v 0.314053 0.511241 -0.100000
v 0.315000 0.496000 -0.100000
v 0.314063 0.481028 -0.100000
v 0.311250 0.467139 -0.100000
v 0.306563 0.454375 -0.100000
v 0.300000 0.442778 -0.100000
v 0.291563 0.432389 -0.100000
v 0.281250 0.423250 -0.100000
v 0.269063 0.415403 -0.100000
v 0.255000 0.408889 -0.100000
v 0.239063 0.403750 -0.100000
v 0.221250 0.400028 -0.100000
v 0.201563 0.397764 -0.100000
v 0.180000 0.397000 -0.100000
v 0.180000 0.307000 -0.100000
v 0.203249 0.307087 -0.100000
v 0.224495 0.304944 -0.100000
v 0.243734 0.300719 -0.100000
v 0.260963 0.294556 -0.100000
v 0.276178 0.286601 -0.100000
v 0.289375 0.277000 -0.100000
v 0.300552 0.265899 -0.100000
v 0.309704 0.253444 -0.100000
v 0.316828 0.239781 -0.100000
v 0.321921 0.225056 -0.100000
v 0.324980 0.209413 -0.100000
v 0.326000 0.193000 -0.100000
v 0.325115 0.176991 -0.100000
v 0.322505 0.162009 -0.100000
v 0.318234 0.148125 -0.100000
v 0.312370 0.135407 -0.100000
v 0.304979 0.123926 -0.100000
v 0.296125 0.113750 -0.100000
v 0.285876 0.104949 -0.100000
v 0.274296 0.097593 -0.100000
v 0.261453 0.091750 -0.100000
v 0.247412 0.087491 -0.100000
v 0.232239 0.084884 -0.100000
v 0.216000 0.084000 -0.100000
v 0.203499 0.084355 -0.100000
v 0.190991 0.085421 -0.100000
v 0.178469 0.087203 -0.100000
v 0.165926 0.089704 -0.100000
v 0.153355 0.092927 -0.100000
v 0.140750 0.096875 -0.100000
v 0.128103 0.101553 -0.100000
v 0.115407 0.106963 -0.100000
v 0.102656 0.113109 -0.100000
v 0.089843 0.119995 -0.100000
v 0.076959 0.127624 -0.100000
v 0.064000 0.136000 -0.100000
v 0.064000 0.030000 -0.100000
v 0.076249 0.023981 -0.100000
v 0.088491 0.018431 -0.100000
v 0.100719 0.013359 -0.100000
v 0.112926 0.008778 -0.100000
v 0.125105 0.004696 -0.100000
v 0.137250 0.001125 -0.100000
v 0.149353 -0.001925 -0.100000
v 0.161407 -0.004444 -0.100000
v 0.173406 -0.006422 -0.100000
v 0.185343 -0.007847 -0.100000
v 0.197210 -0.008710 -0.100000
v 0.209000 -0.009000 -0.100000
v 0.239699 -0.007257 -0.100000
v 0.268676 -0.002139 -0.100000
v 0.295750 0.006188 -0.100000
v 0.320741 0.017556 -0.100000
v 0.343468 0.031799 -0.100000
v 0.363750 0.048750 -0.100000
v 0.381407 0.068243 -0.100000
v 0.396259 0.090111 -0.100000
v 0.408125 0.114188 -0.100000
v 0.416824 0.140306 -0.100000
v 0.422176 0.168299 -0.100000
v 0.424000 0.198000 -0.100000
v 0.423370 0.215491 -0.100000
v 0.421463 0.232847 -0.100000
v 0.418250 0.249891 -0.100000
v 0.413704 0.266444 -0.100000
v 0.407796 0.282332 -0.100000
v 0.400500 0.297375 -0.100000
v 0.391787 0.311398 -0.100000
v 0.381630 0.324222 -0.100000
v 0.370000 0.335672 -0.100000
v 0.356870 0.345569 -0.100000
v 0.342213 0.353738 -0.100000
v 0.326000 0.360000 -0.100000
v 0.340736 0.368701 -0.100000
v 0.353972 0.377861 -0.100000
v 0.365750 0.387563 -0.100000
v 0.376111 0.397889 -0.100000
v 0.385097 0.408924 -0.100000
v 0.392750 0.420750 -0.100000
v 0.399111 0.433451 -0.100000
v 0.404222 0.447111 -0.100000
v 0.408125 0.461813 -0.100000
v 0.410861 0.477639 -0.100000
v 0.412472 0.494674 -0.100000
v 0.413000 0.513000 -0.100000
v 0.411375 0.539190 -0.100000
v 0.406583 0.563685 -0.100000
v 0.398750 0.586375 -0.100000
v 0.388000 0.607148 -0.100000
v 0.374458 0.625894 -0.100000
v 0.358250 0.642500 -0.100000
v 0.339500 0.656857 -0.100000
v 0.318333 0.668852 -0.100000
v 0.294875 0.678375 -0.100000
v 0.269250 0.685315 -0.100000
v 0.241583 0.689560 -0.100000
v 0.212000 0.691000 -0.100000
v 0.199492 0.690811 -0.100000
v 0.187435 0.690241 -0.100000
v 0.175781 0.689281 -0.100000
v 0.164482 0.687926 -0.100000
v 0.153487 0.686168 -0.100000
v 0.142750 0.684000 -0.100000
v 0.132221 0.681415 -0.100000
v 0.121852 0.678407 -0.100000
v 0.111594 0.674969 -0.100000
v 0.101398 0.671093 -0.100000
v 0.091216 0.666772 -0.100000
v 0.081000 0.662000 -0.100000
vn 0.0000 0.0000 -1.0000
vn 0.0000 0.0000 1.0000
vn 0.4793 0.8776 0.0000
vn -0.9373 -0.3485 0.0000
vn -0.8396 0.5433 0.0000
vn -0.9981 0.0613 0.0000
vn -0.1828 0.9832 0.0000
vn 1.0000 -0.0000 0.0000
vn -0.9956 0.0942 0.0000
vn -0.1409 0.9900 0.0000
vn -0.3787 0.9255 0.0000
vn 0.0151 -0.9999 0.0000
vn -0.1517 -0.9884 0.0000
vn -0.8970 0.4421 0.0000
vn 0.2903 -0.9569 -0.0000
vn -0.1409 -0.9900 0.0000
vn 0.8408 -0.5413 0.0000
vn -0.4342 -0.9008 -0.0000
vn -0.5095 -0.8604 0.0000
vn 0.9440 0.3298 0.0000
vn 0.6515 -0.7587 -0.0000
vn 0.4633 0.8862 0.0000
vn 0.2504 0.9682 0.0000
vn -0.9643 -0.2648 0.0000
vn 0.0460 0.9989 0.0000
vn -0.8998 -0.4364 0.0000
vn 0.3906 -0.9205 0.0000
vn 0.4129 0.9108 0.0000
vn 0.2046 0.9789 0.0000
vn 0.1979 -0.9802 0.0000
vn 0.0725 0.9974 0.0000
vn 0.1003 0.9950 0.0000
vn -0.9453 -0.3263 0.0000
vn 0.2821 0.9594 0.0000
vn -0.7754 0.6315 0.0000
vn -0.4930 -0.8700 0.0000
vn 0.9981 0.0620 0.0000
vn -0.3274 0.9449 0.0000
vn -0.9822 0.1878 0.0000
vn 0.4410 0.8975 0.0000
vn -0.0988 0.9951 0.0000
vn 0.2786 -0.9604 0.0000
vn -0.6020 -0.7985 0.0000
vn 0.9814 0.1919 0.0000
vn 0.4203 -0.9074 0.0000
vn 0.3178 -0.9481 0.0000
vn -0.8273 0.5618 0.0000
vn 0.9387 -0.3447 0.0000
vn -0.0567 0.9984 0.0000
vn 0.1142 -0.9935 0.0000
vn -0.8106 -0.5856 0.0000
vn 0.8867 0.4624 0.0000
vn -0.7156 -0.6985 0.0000
vn -0.8941 0.4478 0.0000
vn -0.1955 -0.9807 -0.0000
vn -0.9981 -0.0619 0.0000
vn 0.1443 0.9895 0.0000
vn -0.0185 0.9998 0.0000
vn 0.9985 -0.0552 0.0000
vn 0.1626 0.9867 0.0000
vn -0.5691 0.8223 0.0000
vn -0.2961 0.9552 0.0000
vn -0.0850 -0.9964 -0.0000
vn -0.3469 -0.9379 0.0000
vn -0.2232 0.9748 0.0000
vn -0.1739 0.9848 0.0000
vn -0.9940 -0.1092 0.0000
vn 0.5362 -0.8441 -0.0000
vn 0.1191 -0.9929 0.0000
vn 0.0246 0.9997 0.0000
vn -0.4141 0.9102 0.0000
vn 0.8044 0.5942 0.0000
vn 0.5883 0.8087 0.0000
vn -0.7059 0.7083 0.0000
vn 0.3178 0.9482 0.0000
vn 0.2444 0.9697 0.0000
vn -0.8494 -0.5278 0.0000
vn 0.0473 -0.9989 0.0000
vn 0.2145 0.9767 0.0000
vn 0.9558 -0.2940 0.0000
vn 0.5956 0.8033 0.0000
vn -0.6413 0.7673 0.0000
vn 0.5414 -0.8408 0.0000
vn -0.9665 0.2566 0.0000
vn 0.3069 -0.9517 0.0000
vn 0.8849 0.4658 0.0000
vn 0.9980 -0.0625 0.0000
vn 0.4232 -0.9060 0.0000
vn -0.0037 1.0000 0.0000
vn -0.3549 0.9349 0.0000
vn -0.5428 -0.8399 0.0000
vn -0.0486 -0.9988 0.0000
vn -0.5085 0.8611 0.0000
vn 0.7762 -0.6304 0.0000
vn -0.4868 -0.8735 0.0000
vn 0.4141 -0.9102 0.0000
vn -0.2612 0.9653 0.0000
vn -0.2614 -0.9652 0.0000
vn 0.3831 0.9237 0.0000
vn 0.0544 -0.9985 -0.0000
vn -0.9854 0.1704 0.0000
vn 0.0354 -0.9994 0.0000
vn 0.1693 -0.9856 -0.0000
vn -0.8881 -0.4596 0.0000
vn -0.2483 -0.9687 -0.0000
vn -0.9994 -0.0360 0.0000
vn 0.7544 -0.6564 0.0000
vn -0.0576 0.9983 0.0000
vn 0.1579 -0.9875 0.0000
vn 0.9081 -0.4187 0.0000
vn -0.6358 0.7719 0.0000
vn -0.5310 0.8473 0.0000
vn -0.7016 -0.7126 0.0000
vn -0.0284 -0.9996 -0.0000
vn 0.2384 -0.9712 0.0000
vn 0.3554 -0.9347 0.0000
vn 0.9801 -0.1985 0.0000
vn 0.8703 -0.4925 0.0000
vn -0.4734 -0.8809 0.0000
vn -0.2940 0.9558 0.0000
vn 0.1186 0.9929 0.0000
vn 0.3629 0.9318 0.0000
vn -0.9814 -0.1920 0.0000
vn -0.9488 0.3160 0.0000
vn -0.3603 -0.9328 0.0000
vn 0.3368 0.9416 0.0000
vn 0.9812 0.1932 0.0000
vn 0.3514 0.9362 0.0000
vn -0.9996 0.0288 0.0000
vn 0.0821 -0.9966 0.0000
vn 0.9852 -0.1717 0.0000
vn -0.3990 0.9169 0.0000
vn 0.9451 0.3269 0.0000
vn -0.9366 0.3504 0.0000
vn -0.9827 -0.1853 0.0000
vn -0.7411 0.6713 0.0000
vn 0.8058 0.5921 0.0000
vn 0.6632 -0.7484 0.0000
vn -0.3761 -0.9266 0.0000
vn -0.6079 -0.7940 0.0000
vn 0.2045 -0.9789 0.0000
vn 0.7047 0.7095 0.0000
vn -0.2989 -0.9543 -0.0000
vn -0.7839 -0.6209 0.0000
vn -0.3920 -0.9199 -0.0000
vn 0.7060 0.7082 0.0000
usemtl None
s off
f 136//1 135//1 134//1
f 137//1 136//1 134//1
f 138//1 137//1 134//1
f 138//1 134//1 133//1
f 139//1 138//1 133//1
f 140//1 139//1 133//1
f 141//1 140//1 133//1
f 141//1 133//1 132//1
f 142//1 141//1 132//1
f 143//1 142//1 132//1
f 144//1 143//1 132//1
f 144//1 132//1 131//1
f 145//1 144//1 131//1
f 146//1 145//1 131//1
f 146//1 131//1 130//1
f 147//1 146//1 130//1
f 1//1 147//1 2//1
f 2//1 147//1 3//1
f 3//1 147//1 4//1
f 4//1 147//1 5//1
f 5//1 147//1 130//1
f 5//1 130//1 6//1
f 6//1 130//1 7//1
f 7//1 130//1 129//1
f 7//1 129//1 8//1
f 8//1 129//1 9//1
f 9//1 129//1 128//1
f 9//1 128//1 10//1
f 10//1 128//1 11//1
f 11//1 128//1 12//1
f 12//1 128//1 127//1
f 12//1 127//1 13//1
f 13//1 127//1 14//1
f 14//1 127//1 126//1
f 15//1 14//1 126//1
f 16//1 15//1 126//1
f 17//1 16//1 126//1
f 17//1 126//1 125//1
f 18//1 17//1 125//1
f 19//1 18//1 125//1
f 20//1 19//1 125//1
f 20//1 125//1 124//1
f 21//1 20//1 124//1
f 22//1 21//1 124//1
f 22//1 124//1 123//1
f 23//1 22//1 123//1
f 24//1 23//1 123//1
f 24//1 123//1 122//1
f 25//1 24//1 122//1
f 26//1 25//1 122//1
f 26//1 122//1 121//1
f 27//1 26//1 121//1
f 27//1 121//1 120//1
f 28//1 27//1 120//1
f 28//1 120//1 119//1
f 29//1 28//1 119//1
f 29//1 119//1 118//1
f 30//1 29//1 118//1
f 30//1 118//1 117//1
f 31//1 30//1 117//1
f 32//1 31//1 117//1
f 32//1 117//1 116//1
f 33//1 32//1 116//1
f 33//1 116//1 115//1
f 34//1 33//1 115//1
f 35//1 34//1 115//1
f 36//1 35//1 115//1
f 36//1 115//1 114//1
f 37//1 36//1 114//1
f 38//1 37//1 114//1
f 38//1 114//1 113//1
f 38//1 113//1 112//1
f 38//1 112//1 111//1
f 38//1 111//1 110//1
f 38//1 110//1 109//1
f 38//1 109//1 108//1
f 38//1 108//1 107//1
f 38//1 107//1 106//1
f 38//1 106//1 39//1
f 39//1 106//1 105//1
f 40//1 39//1 105//1
f 41//1 40//1 105//1
f 42//1 41//1 105//1
f 42//1 105//1 104//1
f 43//1 42//1 104//1
f 44//1 43//1 104//1
f 44//1 104//1 103//1
f 45//1 44//1 103//1
f 45//1 103//1 102//1
f 46//1 45//1 102//1
f 47//1 46//1 102//1
f 47//1 102//1 101//1
f 48//1 47//1 101//1
f 48//1 101//1 100//1
f 49//1 48//1 100//1
f 49//1 100//1 99//1
f 50//1 49//1 99//1
f 50//1 99//1 98//1
f 51//1 50//1 98//1
f 52//1 51//1 98//1
f 52//1 98//1 97//1
f 53//1 52//1 97//1
f 54//1 53//1 97//1
f 54//1 97//1 96//1
f 75//1 74//1 73//1
f 55//1 54//1 96//1
f 75//1 73//1 72//1
f 56//1 55//1 96//1
f 75//1 72//1 71//1
f 56//1 96//1 95//1
f 57//1 56//1 95//1
f 75//1 71//1 70//1
f 75//1 70//1 69//1
f 58//1 57//1 95//1
f 75//1 69//1 68//1
f 59//1 58//1 95//1
f 75//1 68//1 67//1
f 75//1 67//1 66//1
f 60//1 59//1 95//1
f 60//1 95//1 94//1
f 75//1 66//1 65//1
f 61//1 60//1 94//1
f 75//1 65//1 64//1
f 75//1 64//1 63//1
f 62//1 61//1 94//1
f 75//1 63//1 62//1
f 75//1 62//1 94//1
f 75//1 94//1 93//1
f 75//1 93//1 92//1
f 75//1 92//1 91//1
f 76//1 75//1 91//1
f 77//1 76//1 91//1
f 78//1 77//1 91//1
f 78//1 91//1 90//1
f 79//1 78//1 90//1
f 80//1 79//1 90//1
f 80//1 90//1 89//1
f 81//1 80//1 89//1
f 82//1 81//1 89//1
f 83//1 82//1 89//1
f 83//1 89//1 88//1
f 84//1 83//1 88//1
f 85//1 84//1 88//1
f 85//1 88//1 87//1
f 86//1 85//1 87//1
f 283//2 281//2 282//2
f 284//2 281//2 283//2
f 285//2 281//2 284//2
f 285//2 280//2 281//2
f 286//2 280//2 285//2
f 287//2 280//2 286//2
f 288//2 280//2 287//2
f 288//2 279//2 280//2
f 289//2 279//2 288//2
f 290//2 279//2 289//2
f 291//2 279//2 290//2
f 291//2 278//2 279//2
f 292//2 278//2 291//2
f 293//2 278//2 292//2
f 293//2 277//2 278//2
f 294//2 277//2 293//2
f 148//2 149//2 294//2
f 149//2 150//2 294//2
f 150//2 151//2 294//2
f 151//2 152//2 294//2
f 152//2 277//2 294//2
f 152//2 153//2 277//2
f 153//2 154//2 277//2
f 154//2 276//2 277//2
f 154//2 155//2 276//2
f 155//2 156//2 276//2
f 156//2 275//2 276//2
f 156//2 157//2 275//2
f 157//2 158//2 275//2
f 158//2 159//2 275//2
f 159//2 274//2 275//2
f 159//2 160//2 274//2
f 160//2 161//2 274//2
f 161//2 273//2 274//2
f 162//2 273//2 161//2
f 163//2 273//2 162//2
f 164//2 273//2 163//2
f 164//2 272//2 273//2
f 165//2 272//2 164//2
f 166//2 272//2 165//2
f 167//2 272//2 166//2
f 167//2 271//2 272//2
f 168//2 271//2 167//2
f 169//2 271//2 168//2
f 169//2 270//2 271//2
f 170//2 270//2 169//2
f 171//2 270//2 170//2
f 171//2 269//2 270//2
f 172//2 269//2 171//2
f 173//2 269//2 172//2
f 173//2 268//2 269//2
f 174//2 268//2 173//2
f 174//2 267//2 268//2
f 175//2 267//2 174//2
f 175//2 266//2 267//2
f 176//2 266//2 175//2
f 176//2 265//2 266//2
f 177//2 265//2 176//2
f 177//2 264//2 265//2
f 178//2 264//2 177//2
f 179//2 264//2 178//2
f 179//2 263//2 264//2
f 180//2 263//2 179//2
f 180//2 262//2 263//2
f 181//2 262//2 180//2
f 182//2 262//2 181//2
f 183//2 262//2 182//2
f 183//2 261//2 262//2
f 184//2 261//2 183//2
f 185//2 261//2 184//2
f 185//2 260//2 261//2
f 185//2 259//2 260//2
f 185//2 258//2 259//2
f 185//2 257//2 258//2
f 185//2 256//2 257//2
f 185//2 255//2 256//2
f 185//2 254//2 255//2
f 185//2 253//2 254//2
f 185//2 186//2 253//2
f 186//2 252//2 253//2
f 187//2 252//2 186//2
f 188//2 252//2 187//2
f 189//2 252//2 188//2
f 189//2 251//2 252//2
f 190//2 251//2 189//2
f 191//2 251//2 190//2
f 191//2 250//2 251//2
f 192//2 250//2 191//2
f 192//2 249//2 250//2
f 193//2 249//2 192//2
f 194//2 249//2 193//2
f 194//2 248//2 249//2
f 195//2 248//2 194//2
f 195//2 247//2 248//2
f 196//2 247//2 195//2
f 196//2 246//2 247//2
f 197//2 246//2 196//2
f 197//2 245//2 246//2
f 198//2 245//2 197//2
f 199//2 245//2 198//2
f 199//2 244//2 245//2
f 200//2 244//2 199//2
f 201//2 244//2 200//2
f 201//2 243//2 244//2
f 222//2 220//2 221//2
f 202//2 243//2 201//2
f 222//2 219//2 220//2
f 203//2 243//2 202//2
f 222//2 218//2 219//2
f 203//2 242//2 243//2
f 204//2 242//2 203//2
f 222//2 217//2 218//2
f 222//2 216//2 217//2
f 205//2 242//2 204//2
f 222//2 215//2 216//2
f 206//2 242//2 205//2
f 222//2 214//2 215//2
f 222//2 213//2 214//2
f 207//2 242//2 206//2
f 207//2 241//2 242//2
f 222//2 212//2 213//2
f 208//2 241//2 207//2
f 222//2 211//2 212//2
f 222//2 210//2 211//2
f 209//2 241//2 208//2
f 222//2 209//2 210//2
f 222//2 241//2 209//2
f 222//2 240//2 241//2
f 222//2 239//2 240//2
f 222//2 238//2 239//2
f 223//2 238//2 222//2
f 224//2 238//2 223//2
f 225//2 238//2 224//2
f 225//2 237//2 238//2
f 226//2 237//2 225//2
f 227//2 237//2 226//2
f 227//2 236//2 237//2
f 228//2 236//2 227//2
f 229//2 236//2 228//2
f 230//2 236//2 229//2
f 230//2 235//2 236//2
f 231//2 235//2 230//2
f 232//2 235//2 231//2
f 232//2 234//2 235//2
f 233//2 234//2 232//2
f 17//3 18//3 165//3 164//3
f 103//4 104//4 251//4 250//4
f 116//5 117//5 264//5 263//5
f 98//6 99//6 246//6 245//6
f 8//7 9//7 156//7 155//7
f 74//8 75//8 222//8 221//8
f 121//9 122//9 269//9 268//9
f 9//10 10//10 157//10 156//10
f 2//11 3//11 150//11 149//11
f 135//12 136//12 283//12 282//12
f 133//13 134//13 281//13 280//13
f 95//14 96//14 243//14 242//14
f 59//15 60//15 207//15 206//15
f 64//16 65//16 212//16 211//16
f 54//17 55//17 202//17 201//17
f 70//18 71//18 218//18 217//18
f 72//19 73//19 220//19 219//19
f 22//20 23//20 170//20 169//20
f 56//21 57//21 204//21 203//21
f 42//22 43//22 190//22 189//22
f 15//23 16//23 163//23 162//23
f 102//24 103//24 250//24 249//24
f 13//25 14//25 161//25 160//25
f 104//26 105//26 252//26 251//26
f 145//27 146//27 293//27 292//27
f 76//28 77//28 224//28 223//28
f 82//29 83//29 230//29 229//29
f 140//30 141//30 288//30 287//30
f 85//31 86//31 233//31 232//31
f 39//32 40//32 187//32 186//32
f 125//33 126//33 273//33 272//33
f 80//34 81//34 228//34 227//34
f 37//8 38//8 185//8 184//8
f 115//35 116//35 263//35 262//35
f 130//36 131//36 278//36 277//36
f 49//37 50//37 197//37 196//37
f 4//38 5//38 152//38 151//38
f 97//39 98//39 245//39 244//39
f 75//40 76//40 223//40 222//40
f 10//41 11//41 158//41 157//41
f 142//42 143//42 290//42 289//42
f 108//43 109//43 256//43 255//43
f 48//44 49//44 196//44 195//44
f 32//45 33//45 180//45 179//45
f 143//46 144//46 291//46 290//46
f 94//47 95//47 242//47 241//47
f 27//48 28//48 175//48 174//48
f 87//49 88//49 235//49 234//49
f 35//50 36//50 183//50 182//50
f 127//51 128//51 275//51 274//51
f 46//52 47//52 194//52 193//52
f 128//53 129//53 276//53 275//53
f 117//54 118//54 265//54 264//54
f 65//55 66//55 213//55 212//55
f 123//56 124//56 271//56 270//56
f 14//57 15//57 162//57 161//57
f 12//58 13//58 160//58 159//58
f 24//37 25//37 172//37 171//37
f 50//59 51//59 198//59 197//59
f 83//60 84//60 231//60 230//60
f 112//61 113//61 260//61 259//61
f 5//62 6//62 153//62 152//62
f 63//63 64//63 211//63 210//63
f 68//64 69//64 216//64 215//64
f 7//65 8//65 155//65 154//65
f 88//66 89//66 236//66 235//66
f 100//67 101//67 248//67 247//67
f 57//68 58//68 205//68 204//68
f 138//69 139//69 286//69 285//69
f 86//70 87//70 234//70 233//70
f 90//71 91//71 238//71 237//71
f 20//72 21//72 168//72 167//72
f 43//73 44//73 191//73 190//73
f 114//74 115//74 262//74 261//74
f 79//75 80//75 227//75 226//75
f 81//76 82//76 229//76 228//76
f 105//77 106//77 253//77 252//77
f 136//78 137//78 284//78 283//78
f 40//79 41//79 188//79 187//79
f 52//80 53//80 200//80 199//80
f 18//81 19//81 166//81 165//81
f 92//82 93//82 240//82 239//82
f 31//83 32//83 179//83 178//83
f 119//84 120//84 267//84 266//84
f 33//85 34//85 181//85 180//85
f 21//86 22//86 169//86 168//86
f 25//87 26//87 173//87 172//87
f 146//88 147//88 294//88 293//88
f 38//89 39//89 186//89 185//89
f 3//90 4//90 151//90 150//90
f 73//91 74//91 221//91 220//91
f 134//92 135//92 282//92 281//92
f 147//8 1//8 148//8 294//8
f 111//93 112//93 259//93 258//93
f 29//94 30//94 177//94 176//94
f 109//95 110//95 257//95 256//95
f 58//96 59//96 206//96 205//96
f 6//97 7//97 154//97 153//97
f 132//98 133//98 280//98 279//98
f 77//99 78//99 225//99 224//99
f 61//100 62//100 209//100 208//100
f 120//101 121//101 268//101 267//101
f 36//102 37//102 184//102 183//102
f 60//103 61//103 208//103 207//103
f 126//104 127//104 274//104 273//104
f 66//105 67//105 214//105 213//105
f 99//106 100//106 247//106 246//106
f 55//107 56//107 203//107 202//107
f 11//108 12//108 159//108 158//108
f 139//109 140//109 287//109 286//109
f 53//110 54//110 201//110 200//110
f 113//111 114//111 261//111 260//111
f 91//112 92//112 239//112 238//112
f 107//113 108//113 255//113 254//113
f 62//114 63//114 210//114 209//114
f 141//115 142//115 289//115 288//115
f 144//116 145//116 292//116 291//116
f 26//117 27//117 174//117 173//117
f 28//118 29//118 176//118 175//118
f 71//119 72//119 219//119 218//119
f 89//120 90//120 237//120 236//120
f 84//121 85//121 232//121 231//121
f 16//122 17//122 164//122 163//122
f 124//123 125//123 272//123 271//123
f 96//124 97//124 244//124 243//124
f 110//125 111//125 258//125 257//125
f 41//126 42//126 189//126 188//126
f 23//127 24//127 171//127 170//127
f 78//128 79//128 226//128 225//128
f 122//129 123//129 270//129 269//129
f 137//130 138//130 285//130 284//130
f 51//131 52//131 199//131 198//131
f 1//132 2//132 149//132 148//132
f 47//133 48//133 195//133 194//133
f 118//134 119//134 266//134 265//134
f 101//135 102//135 249//135 248//135
f 93//136 94//136 241//136 240//136
f 45//137 46//137 193//137 192//137
f 30//138 31//138 178//138 177//138
f 131//139 132//139 279//139 278//139
f 129//140 130//140 277//140 276//140
f 34//141 35//141 182//141 181//141
f 44//142 45//142 192//142 191//142
f 67//143 68//143 215//143 214//143
f 106//144 107//144 254//144 253//144
f 69//145 70//145 217//145 216//145
f 19//146 20//146 167//146 166//146
