# Blender v2.79 (sub 0) OBJ File: 'tree.blend'
# www.blender.org
mtllib 5.mtl
o Text.004_CUText.004
v 0.404000 0.682000 0.000000
v 0.101000 0.682000 0.000000
v 0.101000 0.327000 0.000000
v 0.137213 0.333863 0.000000
v 0.170787 0.336653 0.000000
v 0.201625 0.335672 0.000000
v 0.229630 0.331222 0.000000
v 0.254704 0.323606 0.000000
v 0.276750 0.313125 0.000000
v 0.295671 0.300082 0.000000
v 0.311370 0.284778 0.000000
v 0.323750 0.267516 0.000000
v 0.332713 0.248597 0.000000
v 0.338162 0.228325 0.000000
v 0.340000 0.207000 0.000000
v 0.338696 0.190505 0.000000
v 0.334903 0.174625 0.000000
v 0.328797 0.159516 0.000000
v 0.320556 0.145333 0.000000
v 0.310356 0.132234 0.000000
v 0.298375 0.120375 0.000000
v 0.284790 0.109911 0.000000
v 0.269778 0.101000 0.000000
v 0.253516 0.093797 0.000000
v 0.236181 0.088458 0.000000
v 0.217950 0.085141 0.000000
v 0.199000 0.084000 0.000000
v 0.186501 0.084354 0.000000
v 0.174005 0.085412 0.000000
v 0.161516 0.087172 0.000000
v 0.149037 0.089630 0.000000
v 0.136572 0.092782 0.000000
v 0.124125 0.096625 0.000000
v 0.111698 0.101156 0.000000
v 0.099296 0.106370 0.000000
v 0.086922 0.112266 0.000000
v 0.074579 0.118838 0.000000
v 0.062270 0.126084 0.000000
v 0.050000 0.134000 0.000000
v 0.050000 0.033000 0.000000
v 0.064514 0.025872 0.000000
v 0.078611 0.019472 0.000000
v 0.092375 0.013781 0.000000
v 0.105889 0.008778 0.000000
v 0.119236 0.004441 0.000000
v 0.132500 0.000750 0.000000
v 0.145764 -0.002316 -0.000000
v 0.159111 -0.004778 -0.000000
v 0.172625 -0.006656 -0.000000
v 0.186389 -0.007972 -0.000000
v 0.200486 -0.008747 -0.000000
v 0.215000 -0.009000 -0.000000
v 0.246487 -0.007117 -0.000000
v 0.276310 -0.001602 -0.000000
v 0.304266 0.007344 0.000000
v 0.330148 0.019519 0.000000
v 0.353753 0.034721 0.000000
v 0.374875 0.052750 0.000000
v 0.393310 0.073404 0.000000
v 0.408852 0.096481 0.000000
v 0.421297 0.121781 0.000000
v 0.430440 0.149102 0.000000
v 0.436076 0.178242 0.000000
v 0.438000 0.209000 0.000000
v 0.436061 0.239851 0.000000
v 0.430324 0.269227 0.000000
v 0.420906 0.296859 0.000000
v 0.407926 0.322481 0.000000
v 0.391501 0.345826 0.000000
v 0.371750 0.366625 0.000000
v 0.348790 0.384612 0.000000
v 0.322741 0.399519 0.000000
v 0.293719 0.411078 0.000000
v 0.261843 0.419023 0.000000
v 0.227230 0.423086 0.000000
v 0.190000 0.423000 0.000000
v 0.190000 0.594000 0.000000
v 0.404000 0.594000 0.000000
v 0.404000 0.682000 -0.100000
v 0.101000 0.682000 -0.100000
v 0.101000 0.327000 -0.100000
v 0.137213 0.333863 -0.100000
v 0.170787 0.336653 -0.100000
v 0.201625 0.335672 -0.100000
v 0.229630 0.331222 -0.100000
v 0.254704 0.323606 -0.100000
v 0.276750 0.313125 -0.100000
v 0.295671 0.300082 -0.100000
v 0.311370 0.284778 -0.100000
v 0.323750 0.267516 -0.100000
v 0.332713 0.248597 -0.100000
v 0.338162 0.228325 -0.100000
v 0.340000 0.207000 -0.100000
v 0.338696 0.190505 -0.100000
v 0.334903 0.174625 -0.100000
v 0.328797 0.159516 -0.100000
v 0.320556 0.145333 -0.100000
v 0.310356 0.132234 -0.100000
v 0.298375 0.120375 -0.100000
v 0.284790 0.109911 -0.100000
v 0.269778 0.101000 -0.100000
v 0.253516 0.093797 -0.100000
v 0.236181 0.088458 -0.100000
v 0.217950 0.085141 -0.100000
v 0.199000 0.084000 -0.100000
v 0.186501 0.084354 -0.100000
v 0.174005 0.085412 -0.100000
v 0.161516 0.087172 -0.100000
v 0.149037 0.089630 -0.100000
v 0.136572 0.092782 -0.100000
v 0.124125 0.096625 -0.100000
v 0.111698 0.101156 -0.100000
v 0.099296 0.106370 -0.100000
v 0.086922 0.112266 -0.100000
v 0.074579 0.118838 -0.100000
v 0.062270 0.126084 -0.100000
v 0.050000 0.134000 -0.100000
v 0.050000 0.033000 -0.100000
v 0.064514 0.025872 -0.100000
v 0.078611 0.019472 -0.100000
v 0.092375 0.013781 -0.100000
v 0.105889 0.008778 -0.100000
v 0.119236 0.004441 -0.100000
v 0.132500 0.000750 -0.100000
v 0.145764 -0.002316 -0.100000
v 0.159111 -0.004778 -0.100000
v 0.172625 -0.006656 -0.100000
v 0.186389 -0.007972 -0.100000
v 0.200486 -0.008747 -0.100000
v 0.215000 -0.009000 -0.100000
v 0.246487 -0.007117 -0.100000
v 0.276310 -0.001602 -0.100000
v 0.304266 0.007344 -0.100000
v 0.330148 0.019519 -0.100000
v 0.353753 0.034721 -0.100000
v 0.374875 0.052750 -0.100000
v 0.393310 0.073404 -0.100000
v 0.408852 0.096481 -0.100000
v 0.421297 0.121781 -0.100000
v 0.430440 0.149102 -0.100000
v 0.436076 0.178242 -0.100000
v 0.438000 0.209000 -0.100000
v 0.436061 0.239851 -0.100000
v 0.430324 0.269227 -0.100000
v 0.420906 0.296859 -0.100000
v 0.407926 0.322481 -0.100000
v 0.391501 0.345826 -0.100000
v 0.371750 0.366625 -0.100000
v 0.348790 0.384612 -0.100000
v 0.322741 0.399519 -0.100000
v 0.293719 0.411078 -0.100000
v 0.261843 0.419023 -0.100000
v 0.227230 0.423086 -0.100000
v 0.190000 0.423000 -0.100000
v 0.190000 0.594000 -0.100000
v 0.404000 0.594000 -0.100000
vn -0.0000 0.0000 -1.0000
vn 0.0000 -0.0000 1.0000
vn -0.6492 0.7606 0.0000
vn -0.2418 -0.9703 0.0000
vn 0.0023 -1.0000 0.0000
vn -0.3700 -0.9290 0.0000
vn 1.0000 0.0000 0.0000
vn -0.0597 0.9982 0.0000
vn -0.9980 -0.0627 0.0000
vn 0.3821 0.9241 0.0000
vn 0.2681 0.9634 0.0000
vn -0.3876 -0.9218 0.0000
vn -0.6167 -0.7872 0.0000
vn 0.5105 -0.8599 0.0000
vn -0.2950 -0.9555 0.0000
vn 0.5676 0.8233 0.0000
vn 0.9969 -0.0788 0.0000
vn -0.8294 0.5586 0.0000
vn 0.1790 -0.9838 0.0000
vn -0.1862 0.9825 0.0000
vn -0.4301 -0.9028 -0.0000
vn -0.4967 -0.8679 0.0000
vn 0.0175 0.9998 0.0000
vn -0.3425 -0.9395 -0.0000
vn 0.1814 0.9834 0.0000
vn -0.1932 -0.9812 -0.0000
vn 0.4294 0.9031 0.0000
vn 0.6980 0.7161 0.0000
vn -0.0844 -0.9964 0.0000
vn -0.5073 -0.8618 -0.0000
vn 0.9726 -0.2323 0.0000
vn 0.0548 0.9985 0.0000
vn 0.7035 -0.7107 -0.0000
vn -0.9818 0.1899 0.0000
vn -0.8973 0.4414 0.0000
vn -0.5415 0.8407 0.0000
vn -0.9465 -0.3226 0.0000
vn 0.4408 0.8976 0.0000
vn 0.2906 0.9568 0.0000
vn 0.1569 0.9876 0.0000
vn 0.9272 -0.3747 0.0000
vn -0.1166 -0.9932 0.0000
vn 0.8126 0.5828 0.0000
vn -1.0000 0.0000 0.0000
vn -0.9483 0.3174 0.0000
vn 0.6102 -0.7922 0.0000
vn 0.1377 0.9905 0.0000
vn 0.7890 -0.6144 0.0000
vn -0.7251 -0.6886 0.0000
vn 0.0000 1.0000 0.0000
vn -0.0283 -0.9996 -0.0000
vn -0.9815 -0.1917 0.0000
vn 0.4133 0.9106 0.0000
vn -0.1395 -0.9902 0.0000
vn 0.8646 -0.5024 0.0000
vn -0.3048 0.9524 0.0000
vn 0.3472 0.9378 0.0000
vn -0.1818 0.9833 0.0000
vn 0.2943 -0.9557 -0.0000
vn 0.9963 0.0859 0.0000
vn -0.7461 0.6659 0.0000
vn 0.3090 0.9511 0.0000
vn 0.0601 -0.9982 -0.0000
vn -0.2452 -0.9695 -0.0000
vn -0.4700 -0.8827 -0.0000
vn -0.8179 -0.5754 0.0000
vn 0.2252 0.9743 0.0000
vn 0.4050 -0.9143 0.0000
vn 0.0000 -1.0000 0.0000
vn 0.9657 0.2596 0.0000
vn -0.9980 0.0624 0.0000
vn 0.0952 0.9955 0.0000
vn -0.5421 -0.8403 0.0000
vn -0.0828 0.9966 0.0000
vn -0.8921 -0.4519 0.0000
vn -0.4256 0.9049 0.0000
vn 0.9037 0.4281 0.0000
vn 0.0318 0.9995 0.0000
usemtl None
s off
f 3//1 2//1 77//1
f 77//1 2//1 1//1
f 77//1 1//1 78//1
f 3//1 77//1 76//1
f 76//1 75//1 74//1
f 3//1 76//1 74//1
f 3//1 74//1 73//1
f 3//1 73//1 72//1
f 3//1 72//1 71//1
f 3//1 71//1 4//1
f 4//1 71//1 70//1
f 4//1 70//1 5//1
f 5//1 70//1 69//1
f 5//1 69//1 6//1
f 6//1 69//1 68//1
f 7//1 6//1 68//1
f 8//1 7//1 68//1
f 9//1 8//1 68//1
f 9//1 68//1 67//1
f 10//1 9//1 67//1
f 11//1 10//1 67//1
f 11//1 67//1 66//1
f 12//1 11//1 66//1
f 12//1 66//1 65//1
f 13//1 12//1 65//1
f 14//1 13//1 65//1
f 14//1 65//1 64//1
f 15//1 14//1 64//1
f 15//1 64//1 63//1
f 16//1 15//1 63//1
f 17//1 16//1 63//1
f 17//1 63//1 62//1
f 18//1 17//1 62//1
f 19//1 18//1 62//1
f 19//1 62//1 61//1
f 20//1 19//1 61//1
f 40//1 39//1 38//1
f 21//1 20//1 61//1
f 40//1 38//1 37//1
f 21//1 61//1 60//1
f 22//1 21//1 60//1
f 40//1 37//1 36//1
f 40//1 36//1 35//1
f 23//1 22//1 60//1
f 40//1 35//1 34//1
f 40//1 34//1 33//1
f 24//1 23//1 60//1
f 40//1 33//1 32//1
f 24//1 60//1 59//1
f 25//1 24//1 59//1
f 40//1 32//1 31//1
f 40//1 31//1 30//1
f 26//1 25//1 59//1
f 40//1 30//1 29//1
f 40//1 29//1 28//1
f 27//1 26//1 59//1
f 40//1 28//1 27//1
f 40//1 27//1 59//1
f 40//1 59//1 58//1
f 40//1 58//1 57//1
f 40//1 57//1 56//1
f 41//1 40//1 56//1
f 42//1 41//1 56//1
f 42//1 56//1 55//1
f 43//1 42//1 55//1
f 44//1 43//1 55//1
f 45//1 44//1 55//1
f 45//1 55//1 54//1
f 46//1 45//1 54//1
f 47//1 46//1 54//1
f 47//1 54//1 53//1
f 48//1 47//1 53//1
f 49//1 48//1 53//1
f 50//1 49//1 53//1
f 50//1 53//1 52//1
f 51//1 50//1 52//1
f 81//2 155//2 80//2
f 155//2 79//2 80//2
f 155//2 156//2 79//2
f 81//2 154//2 155//2
f 154//2 152//2 153//2
f 81//2 152//2 154//2
f 81//2 151//2 152//2
f 81//2 150//2 151//2
f 81//2 149//2 150//2
f 81//2 82//2 149//2
f 82//2 148//2 149//2
f 82//2 83//2 148//2
f 83//2 147//2 148//2
f 83//2 84//2 147//2
f 84//2 146//2 147//2
f 85//2 146//2 84//2
f 86//2 146//2 85//2
f 87//2 146//2 86//2
f 87//2 145//2 146//2
f 88//2 145//2 87//2
f 89//2 145//2 88//2
f 89//2 144//2 145//2
f 90//2 144//2 89//2
f 90//2 143//2 144//2
f 91//2 143//2 90//2
f 92//2 143//2 91//2
f 92//2 142//2 143//2
f 93//2 142//2 92//2
f 93//2 141//2 142//2
f 94//2 141//2 93//2
f 95//2 141//2 94//2
f 95//2 140//2 141//2
f 96//2 140//2 95//2
f 97//2 140//2 96//2
f 97//2 139//2 140//2
f 98//2 139//2 97//2
f 118//2 116//2 117//2
f 99//2 139//2 98//2
f 118//2 115//2 116//2
f 99//2 138//2 139//2
f 100//2 138//2 99//2
f 118//2 114//2 115//2
f 118//2 113//2 114//2
f 101//2 138//2 100//2
f 118//2 112//2 113//2
f 118//2 111//2 112//2
f 102//2 138//2 101//2
f 118//2 110//2 111//2
f 102//2 137//2 138//2
f 103//2 137//2 102//2
f 118//2 109//2 110//2
f 118//2 108//2 109//2
f 104//2 137//2 103//2
f 118//2 107//2 108//2
f 118//2 106//2 107//2
f 105//2 137//2 104//2
f 118//2 105//2 106//2
f 118//2 137//2 105//2
f 118//2 136//2 137//2
f 118//2 135//2 136//2
f 118//2 134//2 135//2
f 119//2 134//2 118//2
f 120//2 134//2 119//2
f 120//2 133//2 134//2
f 121//2 133//2 120//2
f 122//2 133//2 121//2
f 123//2 133//2 122//2
f 123//2 132//2 133//2
f 124//2 132//2 123//2
f 125//2 132//2 124//2
f 125//2 131//2 132//2
f 126//2 131//2 125//2
f 127//2 131//2 126//2
f 128//2 131//2 127//2
f 128//2 130//2 131//2
f 129//2 130//2 128//2
f 57//3 58//3 136//3 135//3
f 73//4 74//4 152//4 151//4
f 75//5 76//5 154//5 153//5
f 72//6 73//6 151//6 150//6
f 2//7 3//7 81//7 80//7
f 52//8 53//8 131//8 130//8
f 64//9 65//9 143//9 142//9
f 42//10 43//10 121//10 120//10
f 45//11 46//11 124//11 123//11
f 34//12 35//12 113//12 112//12
f 70//13 71//13 149//13 148//13
f 22//14 23//14 101//14 100//14
f 32//15 33//15 111//15 110//15
f 9//16 10//16 88//16 87//16
f 15//17 16//17 94//17 93//17
f 59//18 60//18 138//18 137//18
f 25//19 26//19 104//19 103//19
f 3//20 4//20 82//20 81//20
f 35//21 36//21 114//21 113//21
f 71//22 72//22 150//22 149//22
f 51//23 52//23 130//23 129//23
f 33//24 34//24 112//24 111//24
f 47//25 48//25 126//25 125//25
f 30//26 31//26 109//26 108//26
f 8//27 9//27 87//27 86//27
f 10//28 11//28 89//28 88//28
f 28//29 29//29 107//29 106//29
f 37//30 38//30 116//30 115//30
f 16//31 17//31 95//31 94//31
f 50//32 51//32 129//32 128//32
f 20//33 21//33 99//33 98//33
f 62//34 63//34 141//34 140//34
f 60//35 61//35 139//35 138//35
f 56//36 57//36 135//36 134//36
f 66//37 67//37 145//37 144//37
f 40//38 41//38 119//38 118//38
f 7//39 8//39 86//39 85//39
f 6//40 7//40 85//40 84//40
f 17//41 18//41 96//41 95//41
f 74//42 75//42 153//42 152//42
f 11//43 12//43 90//43 89//43
f 78//44 1//44 79//44 156//44
f 61//45 62//45 140//45 139//45
f 21//46 22//46 100//46 99//46
f 48//47 49//47 127//47 126//47
f 19//48 20//48 98//48 97//48
f 69//49 70//49 148//49 147//49
f 77//50 78//50 156//50 155//50
f 27//51 28//51 106//51 105//51
f 65//52 66//52 144//52 143//52
f 39//7 40//7 118//7 117//7
f 41//53 42//53 120//53 119//53
f 29//54 30//54 108//54 107//54
f 18//55 19//55 97//55 96//55
f 54//56 55//56 133//56 132//56
f 43//57 44//57 122//57 121//57
f 53//58 54//58 132//58 131//58
f 24//59 25//59 103//59 102//59
f 14//60 15//60 93//60 92//60
f 58//61 59//61 137//61 136//61
f 44//62 45//62 123//62 122//62
f 26//63 27//63 105//63 104//63
f 31//64 32//64 110//64 109//64
f 76//44 77//44 155//44 154//44
f 36//65 37//65 115//65 114//65
f 68//66 69//66 147//66 146//66
f 46//67 47//67 125//67 124//67
f 23//68 24//68 102//68 101//68
f 1//69 2//69 80//69 79//69
f 13//70 14//70 92//70 91//70
f 63//71 64//71 142//71 141//71
f 49//72 50//72 128//72 127//72
f 38//73 39//73 117//73 116//73
f 4//74 5//74 83//74 82//74
f 67//75 68//75 146//75 145//75
f 55//76 56//76 134//76 133//76
f 12//77 13//77 91//77 90//77
f 5//78 6//78 84//78 83//78
