# Blender v2.79 (sub 0) OBJ File: 'tree.blend'
# www.blender.org
mtllib 6.mtl
o Text.005_CUText.005
v 0.317000 0.691000 0.000000
v 0.274446 0.660466 0.000000
v 0.235319 0.627977 0.000000
v 0.199672 0.593703 0.000000
v 0.167556 0.557815 0.000000
v 0.139023 0.520482 0.000000
v 0.114125 0.481875 0.000000
v 0.092915 0.442164 0.000000
v 0.075444 0.401519 0.000000
v 0.061766 0.360109 0.000000
v 0.051931 0.318107 0.000000
v 0.045991 0.275680 0.000000
v 0.044000 0.233000 0.000000
v 0.045827 0.197988 0.000000
v 0.051199 0.165074 0.000000
v 0.059953 0.134438 0.000000
v 0.071926 0.106259 0.000000
v 0.086954 0.080720 0.000000
v 0.104875 0.058000 0.000000
v 0.125525 0.038280 0.000000
v 0.148741 0.021741 0.000000
v 0.174359 0.008563 0.000000
v 0.202218 -0.001074 -0.000000
v 0.232152 -0.006988 -0.000000
v 0.264000 -0.009000 -0.000000
v 0.290852 -0.007106 -0.000000
v 0.316736 -0.001597 -0.000000
v 0.341391 0.007266 0.000000
v 0.364556 0.019222 0.000000
v 0.385970 0.034012 0.000000
v 0.405375 0.051375 0.000000
v 0.422509 0.071050 0.000000
v 0.437111 0.092778 0.000000
v 0.448922 0.116297 0.000000
v 0.457681 0.141347 0.000000
v 0.463127 0.167668 0.000000
v 0.465000 0.195000 0.000000
v 0.463324 0.222653 0.000000
v 0.458421 0.248977 0.000000
v 0.450484 0.273766 0.000000
v 0.439704 0.296815 0.000000
v 0.426270 0.317920 0.000000
v 0.410375 0.336875 0.000000
v 0.392209 0.353476 0.000000
v 0.371963 0.367518 0.000000
v 0.349828 0.378797 0.000000
v 0.325995 0.387106 0.000000
v 0.300656 0.392242 0.000000
v 0.274000 0.394000 0.000000
v 0.262957 0.393716 0.000000
v 0.252324 0.392898 0.000000
v 0.242094 0.391594 0.000000
v 0.232259 0.389852 0.000000
v 0.222814 0.387721 0.000000
v 0.213750 0.385250 0.000000
v 0.205061 0.382487 0.000000
v 0.196741 0.379482 0.000000
v 0.188781 0.376281 0.000000
v 0.181176 0.372935 0.000000
v 0.173918 0.369492 0.000000
v 0.167000 0.366000 0.000000
v 0.175161 0.389806 0.000000
v 0.185537 0.413616 0.000000
v 0.197969 0.437266 0.000000
v 0.212296 0.460593 0.000000
v 0.228360 0.483433 0.000000
v 0.246000 0.505625 0.000000
v 0.265057 0.527004 0.000000
v 0.285370 0.547407 0.000000
v 0.306781 0.566672 0.000000
v 0.329130 0.584634 0.000000
v 0.352256 0.601131 0.000000
v 0.376000 0.616000 0.000000
v 0.146000 0.265000 0.000000
v 0.156356 0.271590 0.000000
v 0.166014 0.277389 0.000000
v 0.175109 0.282438 0.000000
v 0.183778 0.286778 0.000000
v 0.192155 0.290451 0.000000
v 0.200375 0.293500 0.000000
v 0.208575 0.295965 0.000000
v 0.216889 0.297889 0.000000
v 0.225453 0.299313 0.000000
v 0.234403 0.300278 0.000000
v 0.243873 0.300826 0.000000
v 0.254000 0.301000 0.000000
v 0.269878 0.300080 0.000000
v 0.284940 0.297389 0.000000
v 0.299078 0.293031 0.000000
v 0.312185 0.287111 0.000000
v 0.324153 0.279733 0.000000
v 0.334875 0.271000 0.000000
v 0.344242 0.261017 0.000000
v 0.352148 0.249889 0.000000
v 0.358484 0.237719 0.000000
v 0.363144 0.224611 0.000000
v 0.366018 0.210670 0.000000
v 0.367000 0.196000 0.000000
v 0.366097 0.179722 0.000000
v 0.363440 0.164440 0.000000
v 0.359109 0.150234 0.000000
v 0.353185 0.137185 0.000000
v 0.345747 0.125372 0.000000
v 0.336875 0.114875 0.000000
v 0.326649 0.105774 0.000000
v 0.315148 0.098148 0.000000
v 0.302453 0.092078 0.000000
v 0.288644 0.087644 0.000000
v 0.273799 0.084924 0.000000
v 0.258000 0.084000 0.000000
v 0.240385 0.085422 0.000000
v 0.223245 0.089630 0.000000
v 0.206891 0.096531 0.000000
v 0.191630 0.106037 0.000000
v 0.177771 0.118057 0.000000
v 0.165625 0.132500 0.000000
v 0.155499 0.149277 0.000000
v 0.147704 0.168296 0.000000
v 0.142547 0.189469 0.000000
v 0.140338 0.212704 0.000000
v 0.141386 0.237911 0.000000
v 0.317000 0.691000 -0.100000
v 0.274446 0.660466 -0.100000
v 0.235319 0.627977 -0.100000
v 0.199672 0.593703 -0.100000
v 0.167556 0.557815 -0.100000
v 0.139023 0.520482 -0.100000
v 0.114125 0.481875 -0.100000
v 0.092915 0.442164 -0.100000
v 0.075444 0.401519 -0.100000
v 0.061766 0.360109 -0.100000
v 0.051931 0.318107 -0.100000
v 0.045991 0.275680 -0.100000
v 0.044000 0.233000 -0.100000
v 0.045827 0.197988 -0.100000
v 0.051199 0.165074 -0.100000
v 0.059953 0.134438 -0.100000
v 0.071926 0.106259 -0.100000
v 0.086954 0.080720 -0.100000
v 0.104875 0.058000 -0.100000
v 0.125525 0.038280 -0.100000
v 0.148741 0.021741 -0.100000
v 0.174359 0.008563 -0.100000
v 0.202218 -0.001074 -0.100000
v 0.232152 -0.006988 -0.100000
v 0.264000 -0.009000 -0.100000
v 0.290852 -0.007106 -0.100000
v 0.316736 -0.001597 -0.100000
v 0.341391 0.007266 -0.100000
v 0.364556 0.019222 -0.100000
v 0.385970 0.034012 -0.100000
v 0.405375 0.051375 -0.100000
v 0.422509 0.071050 -0.100000
v 0.437111 0.092778 -0.100000
v 0.448922 0.116297 -0.100000
v 0.457681 0.141347 -0.100000
v 0.463127 0.167668 -0.100000
v 0.465000 0.195000 -0.100000
v 0.463324 0.222653 -0.100000
v 0.458421 0.248977 -0.100000
v 0.450484 0.273766 -0.100000
v 0.439704 0.296815 -0.100000
v 0.426270 0.317920 -0.100000
v 0.410375 0.336875 -0.100000
v 0.392209 0.353476 -0.100000
v 0.371963 0.367518 -0.100000
v 0.349828 0.378797 -0.100000
v 0.325995 0.387106 -0.100000
v 0.300656 0.392242 -0.100000
v 0.274000 0.394000 -0.100000
v 0.262957 0.393716 -0.100000
v 0.252324 0.392898 -0.100000
v 0.242094 0.391594 -0.100000
v 0.232259 0.389852 -0.100000
v 0.222814 0.387721 -0.100000
v 0.213750 0.385250 -0.100000
v 0.205061 0.382487 -0.100000
v 0.196741 0.379482 -0.100000
v 0.188781 0.376281 -0.100000
v 0.181176 0.372935 -0.100000
v 0.173918 0.369492 -0.100000
v 0.167000 0.366000 -0.100000
v 0.175161 0.389806 -0.100000
v 0.185537 0.413616 -0.100000
v 0.197969 0.437266 -0.100000
v 0.212296 0.460593 -0.100000
v 0.228360 0.483433 -0.100000
v 0.246000 0.505625 -0.100000
v 0.265057 0.527004 -0.100000
v 0.285370 0.547407 -0.100000
v 0.306781 0.566672 -0.100000
v 0.329130 0.584634 -0.100000
v 0.352256 0.601131 -0.100000
v 0.376000 0.616000 -0.100000
v 0.146000 0.265000 -0.100000
v 0.156356 0.271590 -0.100000
v 0.166014 0.277389 -0.100000
v 0.175109 0.282438 -0.100000
v 0.183778 0.286778 -0.100000
v 0.192155 0.290451 -0.100000
v 0.200375 0.293500 -0.100000
v 0.208575 0.295965 -0.100000
v 0.216889 0.297889 -0.100000
v 0.225453 0.299313 -0.100000
v 0.234403 0.300278 -0.100000
v 0.243873 0.300826 -0.100000
v 0.254000 0.301000 -0.100000
v 0.269878 0.300080 -0.100000
v 0.284940 0.297389 -0.100000
v 0.299078 0.293031 -0.100000
v 0.312185 0.287111 -0.100000
v 0.324153 0.279733 -0.100000
v 0.334875 0.271000 -0.100000
v 0.344242 0.261017 -0.100000
v 0.352148 0.249889 -0.100000
v 0.358484 0.237719 -0.100000
v 0.363144 0.224611 -0.100000
v 0.366018 0.210670 -0.100000
v 0.367000 0.196000 -0.100000
v 0.366097 0.179722 -0.100000
v 0.363440 0.164440 -0.100000
v 0.359109 0.150234 -0.100000
v 0.353185 0.137185 -0.100000
v 0.345747 0.125372 -0.100000
v 0.336875 0.114875 -0.100000
v 0.326649 0.105774 -0.100000
v 0.315148 0.098148 -0.100000
v 0.302453 0.092078 -0.100000
v 0.288644 0.087644 -0.100000
v 0.273799 0.084924 -0.100000
v 0.258000 0.084000 -0.100000
v 0.240385 0.085422 -0.100000
v 0.223245 0.089630 -0.100000
v 0.206891 0.096531 -0.100000
v 0.191630 0.106037 -0.100000
v 0.177771 0.118057 -0.100000
v 0.165625 0.132500 -0.100000
v 0.155499 0.149277 -0.100000
v 0.147704 0.168296 -0.100000
v 0.142547 0.189469 -0.100000
v 0.140338 0.212704 -0.100000
v 0.141386 0.237911 -0.100000
vn 0.0000 0.0000 -1.0000
vn 0.0000 0.0000 1.0000
vn -0.9524 -0.3049 0.0000
vn 0.9422 0.3349 0.0000
vn 0.3057 -0.9521 0.0000
vn -0.1640 0.9865 0.0000
vn -0.5683 0.8228 0.0000
vn 0.2630 -0.9648 0.0000
vn 0.5830 -0.8125 0.0000
vn -0.7860 -0.6183 0.0000
vn 0.6648 -0.7470 0.0000
vn -0.8852 0.4653 0.0000
vn -0.7653 -0.6436 0.0000
vn 0.7637 -0.6455 -0.0000
vn -0.9058 -0.4237 0.0000
vn -0.9793 0.2026 0.0000
vn -0.4477 0.8942 0.0000
vn -0.2254 0.9743 0.0000
vn 0.4506 -0.8927 0.0000
vn 0.7452 -0.6669 0.0000
vn 0.8870 0.4618 0.0000
vn -0.5147 0.8573 0.0000
vn 0.4574 0.8892 0.0000
vn -0.8436 -0.5370 0.0000
vn -0.3383 0.9410 0.0000
vn -0.3888 -0.9213 -0.0000
vn -0.0578 0.9983 0.0000
vn 0.1802 -0.9836 -0.0000
vn -0.5307 0.8475 0.0000
vn 0.8404 -0.5420 0.0000
vn -0.7662 -0.6425 0.0000
vn -0.9716 -0.2366 0.0000
vn -0.9977 0.0684 0.0000
vn 0.8821 -0.4711 0.0000
vn -0.4853 0.8743 0.0000
vn 0.5248 0.8512 0.0000
vn -0.4540 -0.8910 0.0000
vn 0.0767 -0.9971 0.0000
vn 0.0257 -0.9997 0.0000
vn 0.7852 0.6193 0.0000
vn -0.8300 0.5578 0.0000
vn -0.7828 0.6223 0.0000
vn 0.1759 0.9844 0.0000
vn 0.5526 -0.8334 -0.0000
vn 0.9565 -0.2916 0.0000
vn -0.5287 -0.8488 0.0000
vn -0.3292 -0.9443 0.0000
vn 0.6931 -0.7209 0.0000
vn 0.4116 0.9113 0.0000
vn 0.0584 -0.9983 -0.0000
vn -0.6689 0.7434 0.0000
vn -0.0805 -0.9968 0.0000
vn -0.9991 0.0415 0.0000
vn 0.8152 0.5791 0.0000
vn -0.9858 0.1679 0.0000
vn 0.9985 -0.0554 0.0000
vn 0.0579 0.9983 0.0000
vn 0.9989 -0.0466 0.0000
vn 0.3030 -0.9530 0.0000
vn 0.9495 -0.3137 0.0000
vn 0.4314 -0.9022 0.0000
vn -0.2082 0.9781 0.0000
vn -0.6746 -0.7382 0.0000
vn 0.8619 0.5072 0.0000
vn -0.8521 0.5234 0.0000
vn -0.3477 0.9376 0.0000
vn -0.1072 0.9942 0.0000
vn -0.4016 0.9158 0.0000
vn 0.9986 0.0521 0.0000
vn 0.6388 -0.7693 0.0000
vn 0.1265 -0.9920 0.0000
vn -0.9982 -0.0605 0.0000
vn -0.7541 0.6567 0.0000
vn 0.3730 -0.9278 0.0000
vn -0.6668 0.7452 0.0000
vn -0.2879 0.9577 0.0000
vn 0.3398 -0.9405 0.0000
vn -0.7087 0.7055 0.0000
vn 0.9106 -0.4134 0.0000
vn 0.4027 -0.9153 0.0000
vn 0.8462 -0.5328 0.0000
vn -0.9955 -0.0946 0.0000
vn -0.5699 -0.8217 0.0000
vn -0.9831 -0.1831 0.0000
vn 0.9903 -0.1386 0.0000
vn -0.9460 0.3243 0.0000
vn 0.0630 0.9980 0.0000
vn -0.5369 0.8437 0.0000
vn -0.8180 0.5753 0.0000
vn 0.9852 -0.1713 0.0000
vn -0.9167 0.3995 0.0000
vn 0.6315 0.7754 0.0000
vn -0.5807 0.8141 0.0000
vn 0.9204 0.3911 0.0000
vn 0.4286 -0.9035 0.0000
vn 0.7945 -0.6072 0.0000
vn -0.6265 0.7794 0.0000
vn 0.9794 0.2019 0.0000
vn 0.1938 0.9810 0.0000
vn 0.2945 0.9556 0.0000
vn 0.5802 0.8145 0.0000
vn -0.1986 -0.9801 0.0000
vn -0.0171 0.9999 0.0000
vn -0.7465 0.6654 0.0000
vn -0.6552 -0.7554 -0.0000
vn -0.8561 -0.5167 0.0000
vn 0.9978 0.0668 0.0000
vn -0.8936 0.4488 0.0000
vn 0.9737 -0.2280 0.0000
vn 0.7292 0.6843 0.0000
vn 0.3269 0.9451 0.0000
vn -0.9440 0.3301 0.0000
vn -0.0658 -0.9978 0.0000
vn -0.2384 -0.9712 -0.0000
vn 0.6906 0.7232 0.0000
vn 0.9615 0.2747 0.0000
vn 0.1744 -0.9847 0.0000
vn -0.9253 -0.3793 0.0000
vn 0.2201 -0.9755 0.0000
vn -0.0704 0.9975 0.0000
vn 0.9187 -0.3949 0.0000
vn 0.9869 0.1611 0.0000
vn -0.4587 0.8886 0.0000
usemtl None
s off
f 2//1 1//1 73//1
f 3//1 2//1 73//1
f 4//1 3//1 73//1
f 4//1 73//1 72//1
f 4//1 72//1 71//1
f 5//1 4//1 71//1
f 5//1 71//1 70//1
f 5//1 70//1 69//1
f 6//1 5//1 69//1
f 6//1 69//1 68//1
f 6//1 68//1 67//1
f 7//1 6//1 67//1
f 7//1 67//1 66//1
f 7//1 66//1 65//1
f 8//1 7//1 65//1
f 8//1 65//1 64//1
f 9//1 8//1 64//1
f 9//1 64//1 63//1
f 9//1 63//1 62//1
f 10//1 9//1 62//1
f 50//1 49//1 48//1
f 51//1 50//1 48//1
f 52//1 51//1 48//1
f 52//1 48//1 47//1
f 53//1 52//1 47//1
f 54//1 53//1 47//1
f 10//1 62//1 61//1
f 55//1 54//1 47//1
f 55//1 47//1 46//1
f 56//1 55//1 46//1
f 57//1 56//1 46//1
f 58//1 57//1 46//1
f 58//1 46//1 45//1
f 59//1 58//1 45//1
f 60//1 59//1 45//1
f 61//1 60//1 45//1
f 61//1 45//1 44//1
f 10//1 61//1 44//1
f 11//1 10//1 44//1
f 11//1 44//1 43//1
f 11//1 43//1 42//1
f 12//1 11//1 83//1
f 83//1 11//1 84//1
f 84//1 11//1 42//1
f 84//1 42//1 85//1
f 85//1 42//1 86//1
f 86//1 42//1 41//1
f 87//1 86//1 41//1
f 88//1 87//1 41//1
f 12//1 83//1 82//1
f 12//1 82//1 81//1
f 89//1 88//1 41//1
f 89//1 41//1 40//1
f 12//1 81//1 80//1
f 12//1 80//1 79//1
f 90//1 89//1 40//1
f 12//1 79//1 78//1
f 91//1 90//1 40//1
f 12//1 78//1 77//1
f 12//1 77//1 76//1
f 92//1 91//1 40//1
f 12//1 76//1 75//1
f 13//1 12//1 75//1
f 92//1 40//1 39//1
f 13//1 75//1 74//1
f 93//1 92//1 39//1
f 13//1 74//1 121//1
f 94//1 93//1 39//1
f 95//1 94//1 39//1
f 95//1 39//1 38//1
f 13//1 121//1 120//1
f 96//1 95//1 38//1
f 14//1 13//1 120//1
f 97//1 96//1 38//1
f 97//1 38//1 37//1
f 14//1 120//1 119//1
f 98//1 97//1 37//1
f 15//1 14//1 119//1
f 99//1 98//1 37//1
f 99//1 37//1 36//1
f 15//1 119//1 118//1
f 100//1 99//1 36//1
f 15//1 118//1 117//1
f 100//1 36//1 35//1
f 16//1 15//1 117//1
f 101//1 100//1 35//1
f 102//1 101//1 35//1
f 16//1 117//1 116//1
f 102//1 35//1 34//1
f 103//1 102//1 34//1
f 17//1 16//1 116//1
f 17//1 116//1 115//1
f 104//1 103//1 34//1
f 17//1 115//1 114//1
f 104//1 34//1 33//1
f 105//1 104//1 33//1
f 18//1 17//1 114//1
f 18//1 114//1 113//1
f 106//1 105//1 33//1
f 107//1 106//1 33//1
f 18//1 113//1 112//1
f 107//1 33//1 32//1
f 108//1 107//1 32//1
f 18//1 112//1 111//1
f 109//1 108//1 32//1
f 18//1 111//1 110//1
f 110//1 109//1 32//1
f 18//1 110//1 32//1
f 19//1 18//1 32//1
f 19//1 32//1 31//1
f 20//1 19//1 31//1
f 20//1 31//1 30//1
f 21//1 20//1 30//1
f 21//1 30//1 29//1
f 22//1 21//1 29//1
f 22//1 29//1 28//1
f 23//1 22//1 28//1
f 23//1 28//1 27//1
f 24//1 23//1 27//1
f 24//1 27//1 26//1
f 25//1 24//1 26//1
f 123//2 194//2 122//2
f 124//2 194//2 123//2
f 125//2 194//2 124//2
f 125//2 193//2 194//2
f 125//2 192//2 193//2
f 126//2 192//2 125//2
f 126//2 191//2 192//2
f 126//2 190//2 191//2
f 127//2 190//2 126//2
f 127//2 189//2 190//2
f 127//2 188//2 189//2
f 128//2 188//2 127//2
f 128//2 187//2 188//2
f 128//2 186//2 187//2
f 129//2 186//2 128//2
f 129//2 185//2 186//2
f 130//2 185//2 129//2
f 130//2 184//2 185//2
f 130//2 183//2 184//2
f 131//2 183//2 130//2
f 171//2 169//2 170//2
f 172//2 169//2 171//2
f 173//2 169//2 172//2
f 173//2 168//2 169//2
f 174//2 168//2 173//2
f 175//2 168//2 174//2
f 131//2 182//2 183//2
f 176//2 168//2 175//2
f 176//2 167//2 168//2
f 177//2 167//2 176//2
f 178//2 167//2 177//2
f 179//2 167//2 178//2
f 179//2 166//2 167//2
f 180//2 166//2 179//2
f 181//2 166//2 180//2
f 182//2 166//2 181//2
f 182//2 165//2 166//2
f 131//2 165//2 182//2
f 132//2 165//2 131//2
f 132//2 164//2 165//2
f 132//2 163//2 164//2
f 133//2 204//2 132//2
f 204//2 205//2 132//2
f 205//2 163//2 132//2
f 205//2 206//2 163//2
f 206//2 207//2 163//2
f 207//2 162//2 163//2
f 208//2 162//2 207//2
f 209//2 162//2 208//2
f 133//2 203//2 204//2
f 133//2 202//2 203//2
f 210//2 162//2 209//2
f 210//2 161//2 162//2
f 133//2 201//2 202//2
f 133//2 200//2 201//2
f 211//2 161//2 210//2
f 133//2 199//2 200//2
f 212//2 161//2 211//2
f 133//2 198//2 199//2
f 133//2 197//2 198//2
f 213//2 161//2 212//2
f 133//2 196//2 197//2
f 134//2 196//2 133//2
f 213//2 160//2 161//2
f 134//2 195//2 196//2
f 214//2 160//2 213//2
f 134//2 242//2 195//2
f 215//2 160//2 214//2
f 216//2 160//2 215//2
f 216//2 159//2 160//2
f 134//2 241//2 242//2
f 217//2 159//2 216//2
f 135//2 241//2 134//2
f 218//2 159//2 217//2
f 218//2 158//2 159//2
f 135//2 240//2 241//2
f 219//2 158//2 218//2
f 136//2 240//2 135//2
f 220//2 158//2 219//2
f 220//2 157//2 158//2
f 136//2 239//2 240//2
f 221//2 157//2 220//2
f 136//2 238//2 239//2
f 221//2 156//2 157//2
f 137//2 238//2 136//2
f 222//2 156//2 221//2
f 223//2 156//2 222//2
f 137//2 237//2 238//2
f 223//2 155//2 156//2
f 224//2 155//2 223//2
f 138//2 237//2 137//2
f 138//2 236//2 237//2
f 225//2 155//2 224//2
f 138//2 235//2 236//2
f 225//2 154//2 155//2
f 226//2 154//2 225//2
f 139//2 235//2 138//2
f 139//2 234//2 235//2
f 227//2 154//2 226//2
f 228//2 154//2 227//2
f 139//2 233//2 234//2
f 228//2 153//2 154//2
f 229//2 153//2 228//2
f 139//2 232//2 233//2
f 230//2 153//2 229//2
f 139//2 231//2 232//2
f 231//2 153//2 230//2
f 139//2 153//2 231//2
f 140//2 153//2 139//2
f 140//2 152//2 153//2
f 141//2 152//2 140//2
f 141//2 151//2 152//2
f 142//2 151//2 141//2
f 142//2 150//2 151//2
f 143//2 150//2 142//2
f 143//2 149//2 150//2
f 144//2 149//2 143//2
f 144//2 148//2 149//2
f 145//2 148//2 144//2
f 145//2 147//2 148//2
f 146//2 147//2 145//2
f 39//3 40//3 161//3 160//3
f 95//4 96//4 217//4 216//4
f 107//5 108//5 229//5 228//5
f 82//6 83//6 204//6 203//6
f 29//7 30//7 151//7 150//7
f 54//8 55//8 176//8 175//8
f 1//9 2//9 123//9 122//9
f 73//10 1//10 122//10 194//10
f 104//11 105//11 226//11 225//11
f 63//12 64//12 185//12 184//12
f 115//13 116//13 237//13 236//13
f 103//14 104//14 225//14 224//14
f 40//15 41//15 162//15 161//15
f 35//16 36//16 157//16 156//16
f 77//17 78//17 199//17 198//17
f 81//18 82//18 203//18 202//18
f 60//19 61//19 182//19 181//19
f 4//20 5//20 126//20 125//20
f 94//21 95//21 216//21 215//21
f 75//22 76//22 197//22 196//22
f 21//23 22//23 143//23 142//23
f 41//24 42//24 163//24 162//24
f 27//25 28//25 149//25 148//25
f 112//26 113//26 234//26 233//26
f 84//27 85//27 206//27 205//27
f 108//28 109//28 230//28 229//28
f 72//29 73//29 194//29 193//29
f 6//30 7//30 128//30 127//30
f 42//31 43//31 164//31 163//31
f 118//32 119//32 240//32 239//32
f 36//33 37//33 158//33 157//33
f 7//34 8//34 129//34 128//34
f 76//35 77//35 198//35 197//35
f 90//36 91//36 212//36 211//36
f 45//37 46//37 167//37 166//37
f 50//38 51//38 172//38 171//38
f 49//39 50//39 171//39 170//39
f 18//40 19//40 140//40 139//40
f 32//41 33//41 154//41 153//41
f 66//42 67//42 188//42 187//42
f 87//43 88//43 209//43 208//43
f 105//44 106//44 227//44 226//44
f 100//45 101//45 222//45 221//45
f 113//46 114//46 235//46 234//46
f 46//47 47//47 168//47 167//47
f 3//48 4//48 125//48 124//48
f 89//49 90//49 211//49 210//49
f 109//50 110//50 231//50 230//50
f 69//51 70//51 191//51 190//51
f 110//52 111//52 232//52 231//52
f 120//53 121//53 242//53 241//53
f 93//54 94//54 215//54 214//54
f 121//55 74//55 195//55 242//55
f 98//56 99//56 220//56 219//56
f 86//57 87//57 208//57 207//57
f 12//58 13//58 134//58 133//58
f 55//59 56//59 177//59 176//59
f 9//60 10//60 131//60 130//60
f 106//61 107//61 228//61 227//61
f 26//62 27//62 148//62 147//62
f 43//63 44//63 165//63 164//63
f 17//64 18//64 139//64 138//64
f 64//65 65//65 186//65 185//65
f 79//66 80//66 201//66 200//66
f 83//67 84//67 205//67 204//67
f 78//68 79//68 200//68 199//68
f 13//69 14//69 135//69 134//69
f 2//70 3//70 124//70 123//70
f 51//71 52//71 173//71 172//71
f 37//72 38//72 159//72 158//72
f 31//73 32//73 153//73 152//73
f 57//74 58//74 179//74 178//74
f 30//75 31//75 152//75 151//75
f 80//76 81//76 202//76 201//76
f 56//77 57//77 178//77 177//77
f 68//78 69//78 190//78 189//78
f 101//79 102//79 223//79 222//79
f 58//80 59//80 180//80 179//80
f 102//81 103//81 224//81 223//81
f 119//82 120//82 241//82 240//82
f 44//83 45//83 166//83 165//83
f 38//84 39//84 160//84 159//84
f 11//85 12//85 133//85 132//85
f 61//86 62//86 183//86 182//86
f 24//87 25//87 146//87 145//87
f 74//88 75//88 196//88 195//88
f 65//89 66//89 187//89 186//89
f 99//90 100//90 221//90 220//90
f 62//91 63//91 184//91 183//91
f 91//92 92//92 213//92 212//92
f 71//93 72//93 193//93 192//93
f 16//94 17//94 138//94 137//94
f 59//95 60//95 181//95 180//95
f 5//96 6//96 127//96 126//96
f 70//97 71//97 192//97 191//97
f 96//98 97//98 218//98 217//98
f 23//99 24//99 145//99 144//99
f 88//100 89//100 210//100 209//100
f 20//101 21//101 142//101 141//101
f 47//102 48//102 169//102 168//102
f 85//103 86//103 207//103 206//103
f 67//104 68//104 189//104 188//104
f 114//105 115//105 236//105 235//105
f 116//106 117//106 238//106 237//106
f 97//107 98//107 219//107 218//107
f 33//108 34//108 155//108 154//108
f 10//109 11//109 132//109 131//109
f 92//110 93//110 214//110 213//110
f 22//111 23//111 144//111 143//111
f 34//112 35//112 156//112 155//112
f 48//113 49//113 170//113 169//113
f 111//114 112//114 233//114 232//114
f 19//115 20//115 141//115 140//115
f 15//116 16//116 137//116 136//116
f 52//117 53//117 174//117 173//117
f 117//118 118//118 239//118 238//118
f 53//119 54//119 175//119 174//119
f 25//120 26//120 147//120 146//120
f 8//121 9//121 130//121 129//121
f 14//122 15//122 136//122 135//122
f 28//123 29//123 150//123 149//123
