# Blender v2.79 (sub 0) OBJ File: 'tree.blend'
# www.blender.org
mtllib 7.mtl
o Text.006_CUText.006
v 0.490000 0.682000 0.000000
v 0.049000 0.682000 0.000000
v 0.049000 0.589000 0.000000
v 0.344000 0.589000 0.000000
v 0.094000 0.029000 0.000000
v 0.181000 -0.009000 -0.000000
v 0.490000 0.682000 -0.100000
v 0.049000 0.682000 -0.100000
v 0.049000 0.589000 -0.100000
v 0.344000 0.589000 -0.100000
v 0.094000 0.029000 -0.100000
v 0.181000 -0.009000 -0.100000
vn 0.0000 0.0000 -1.0000
vn 0.0000 -0.0000 1.0000
vn 0.9131 -0.4077 0.0000
vn 0.0000 -1.0000 0.0000
vn -0.9129 0.4082 0.0000
vn 1.0000 -0.0000 0.0000
vn 0.0000 1.0000 0.0000
vn 0.4003 0.9164 0.0000
usemtl None
s off
f 3//1 2//1 1//1
f 3//1 1//1 4//1
f 4//1 1//1 6//1
f 5//1 4//1 6//1
f 9//2 7//2 8//2
f 9//2 10//2 7//2
f 10//2 12//2 7//2
f 11//2 12//2 10//2
f 4//3 5//3 11//3 10//3
f 1//4 2//4 8//4 7//4
f 6//5 1//5 7//5 12//5
f 2//6 3//6 9//6 8//6
f 3//7 4//7 10//7 9//7
f 5//8 6//8 12//8 11//8
