# Blender v2.79 (sub 0) OBJ File: 'tree.blend'
# www.blender.org
mtllib 9.mtl
o Text.008_CUText.008
v 0.187000 -0.009000 -0.000000
v 0.226002 0.017310 0.000000
v 0.262852 0.046977 0.000000
v 0.297313 0.079609 0.000000
v 0.329148 0.114815 0.000000
v 0.358123 0.152201 0.000000
v 0.384000 0.191375 0.000000
v 0.406544 0.231945 0.000000
v 0.425519 0.273519 0.000000
v 0.440688 0.315703 0.000000
v 0.451815 0.358107 0.000000
v 0.458664 0.400336 0.000000
v 0.461000 0.442000 0.000000
v 0.459137 0.476939 0.000000
v 0.453676 0.510097 0.000000
v 0.444813 0.541234 0.000000
v 0.432741 0.570111 0.000000
v 0.417655 0.596488 0.000000
v 0.399750 0.620125 0.000000
v 0.379220 0.640783 0.000000
v 0.356259 0.658222 0.000000
v 0.331063 0.672203 0.000000
v 0.303824 0.682486 0.000000
v 0.274738 0.688832 0.000000
v 0.244000 0.691000 0.000000
v 0.213439 0.688954 0.000000
v 0.184843 0.683051 0.000000
v 0.158344 0.673641 0.000000
v 0.134074 0.661074 0.000000
v 0.112166 0.645702 0.000000
v 0.092750 0.627875 0.000000
v 0.075959 0.607944 0.000000
v 0.061926 0.586259 0.000000
v 0.050781 0.563172 0.000000
v 0.042657 0.539032 0.000000
v 0.037686 0.514192 0.000000
v 0.036000 0.489000 0.000000
v 0.037735 0.461767 0.000000
v 0.042796 0.435718 0.000000
v 0.050969 0.411078 0.000000
v 0.062037 0.388074 0.000000
v 0.075786 0.366931 0.000000
v 0.092000 0.347875 0.000000
v 0.110464 0.331131 0.000000
v 0.130963 0.316926 0.000000
v 0.153281 0.305484 0.000000
v 0.177204 0.297032 0.000000
v 0.202515 0.291796 0.000000
v 0.229000 0.290000 0.000000
v 0.238075 0.290227 0.000000
v 0.247269 0.290898 0.000000
v 0.256531 0.292000 0.000000
v 0.265815 0.293519 0.000000
v 0.275071 0.295440 0.000000
v 0.284250 0.297750 0.000000
v 0.293304 0.300435 0.000000
v 0.302185 0.303482 0.000000
v 0.310844 0.306875 0.000000
v 0.319232 0.310602 0.000000
v 0.327300 0.314648 0.000000
v 0.335000 0.319000 0.000000
v 0.329112 0.297329 0.000000
v 0.320982 0.275384 0.000000
v 0.310656 0.253266 0.000000
v 0.298185 0.231074 0.000000
v 0.283617 0.208910 0.000000
v 0.267000 0.186875 0.000000
v 0.248383 0.165069 0.000000
v 0.227815 0.143593 0.000000
v 0.205344 0.122547 0.000000
v 0.181019 0.102032 0.000000
v 0.154888 0.082150 0.000000
v 0.127000 0.063000 0.000000
v 0.134000 0.490000 0.000000
v 0.134962 0.505359 0.000000
v 0.137782 0.519875 0.000000
v 0.142359 0.533453 0.000000
v 0.148593 0.546000 0.000000
v 0.156381 0.557422 0.000000
v 0.165625 0.567625 0.000000
v 0.176223 0.576516 0.000000
v 0.188074 0.584000 0.000000
v 0.201078 0.589984 0.000000
v 0.215134 0.594375 0.000000
v 0.230142 0.597078 0.000000
v 0.246000 0.598000 0.000000
v 0.261477 0.596840 0.000000
v 0.276319 0.593472 0.000000
v 0.290391 0.588063 0.000000
v 0.303556 0.580778 0.000000
v 0.315679 0.571785 0.000000
v 0.326625 0.561250 0.000000
v 0.336259 0.549340 0.000000
v 0.344444 0.536222 0.000000
v 0.351047 0.522062 0.000000
v 0.355931 0.507028 0.000000
v 0.358960 0.491285 0.000000
v 0.360000 0.475000 0.000000
v 0.359997 0.470805 0.000000
v 0.359977 0.466690 0.000000
v 0.359922 0.462609 0.000000
v 0.359815 0.458519 0.000000
v 0.359638 0.454372 0.000000
v 0.359375 0.450125 0.000000
v 0.359008 0.445732 0.000000
v 0.358519 0.441148 0.000000
v 0.357891 0.436328 0.000000
v 0.357107 0.431227 0.000000
v 0.356149 0.425799 0.000000
v 0.355000 0.420000 0.000000
v 0.345715 0.413810 0.000000
v 0.336389 0.408231 0.000000
v 0.327062 0.403250 0.000000
v 0.317778 0.398852 0.000000
v 0.308576 0.395023 0.000000
v 0.299500 0.391750 0.000000
v 0.290590 0.389019 0.000000
v 0.281889 0.386815 0.000000
v 0.273437 0.385125 0.000000
v 0.265278 0.383935 0.000000
v 0.257451 0.383231 0.000000
v 0.250000 0.383000 0.000000
v 0.234273 0.383979 0.000000
v 0.219185 0.386829 0.000000
v 0.204875 0.391422 0.000000
v 0.191481 0.397630 0.000000
v 0.179144 0.405324 0.000000
v 0.168000 0.414375 0.000000
v 0.158190 0.424656 0.000000
v 0.149852 0.436037 0.000000
v 0.143125 0.448391 0.000000
v 0.138148 0.461588 0.000000
v 0.135060 0.475501 0.000000
v 0.187000 -0.009000 -0.100000
v 0.226002 0.017310 -0.100000
v 0.262852 0.046977 -0.100000
v 0.297313 0.079609 -0.100000
v 0.329148 0.114815 -0.100000
v 0.358123 0.152201 -0.100000
v 0.384000 0.191375 -0.100000
v 0.406544 0.231945 -0.100000
v 0.425519 0.273519 -0.100000
v 0.440688 0.315703 -0.100000
v 0.451815 0.358107 -0.100000
v 0.458664 0.400336 -0.100000
v 0.461000 0.442000 -0.100000
v 0.459137 0.476939 -0.100000
v 0.453676 0.510097 -0.100000
v 0.444813 0.541234 -0.100000
v 0.432741 0.570111 -0.100000
v 0.417655 0.596488 -0.100000
v 0.399750 0.620125 -0.100000
v 0.379220 0.640783 -0.100000
v 0.356259 0.658222 -0.100000
v 0.331063 0.672203 -0.100000
v 0.303824 0.682486 -0.100000
v 0.274738 0.688832 -0.100000
v 0.244000 0.691000 -0.100000
v 0.213439 0.688954 -0.100000
v 0.184843 0.683051 -0.100000
v 0.158344 0.673641 -0.100000
v 0.134074 0.661074 -0.100000
v 0.112166 0.645702 -0.100000
v 0.092750 0.627875 -0.100000
v 0.075959 0.607944 -0.100000
v 0.061926 0.586259 -0.100000
v 0.050781 0.563172 -0.100000
v 0.042657 0.539032 -0.100000
v 0.037686 0.514192 -0.100000
v 0.036000 0.489000 -0.100000
v 0.037735 0.461767 -0.100000
v 0.042796 0.435718 -0.100000
v 0.050969 0.411078 -0.100000
v 0.062037 0.388074 -0.100000
v 0.075786 0.366931 -0.100000
v 0.092000 0.347875 -0.100000
v 0.110464 0.331131 -0.100000
v 0.130963 0.316926 -0.100000
v 0.153281 0.305484 -0.100000
v 0.177204 0.297032 -0.100000
v 0.202515 0.291796 -0.100000
v 0.229000 0.290000 -0.100000
v 0.238075 0.290227 -0.100000
v 0.247269 0.290898 -0.100000
v 0.256531 0.292000 -0.100000
v 0.265815 0.293519 -0.100000
v 0.275071 0.295440 -0.100000
v 0.284250 0.297750 -0.100000
v 0.293304 0.300435 -0.100000
v 0.302185 0.303482 -0.100000
v 0.310844 0.306875 -0.100000
v 0.319232 0.310602 -0.100000
v 0.327300 0.314648 -0.100000
v 0.335000 0.319000 -0.100000
v 0.329112 0.297329 -0.100000
v 0.320982 0.275384 -0.100000
v 0.310656 0.253266 -0.100000
v 0.298185 0.231074 -0.100000
v 0.283617 0.208910 -0.100000
v 0.267000 0.186875 -0.100000
v 0.248383 0.165069 -0.100000
v 0.227815 0.143593 -0.100000
v 0.205344 0.122547 -0.100000
v 0.181019 0.102032 -0.100000
v 0.154888 0.082150 -0.100000
v 0.127000 0.063000 -0.100000
v 0.134000 0.490000 -0.100000
v 0.134962 0.505359 -0.100000
v 0.137782 0.519875 -0.100000
v 0.142359 0.533453 -0.100000
v 0.148593 0.546000 -0.100000
v 0.156381 0.557422 -0.100000
v 0.165625 0.567625 -0.100000
v 0.176223 0.576516 -0.100000
v 0.188074 0.584000 -0.100000
v 0.201078 0.589984 -0.100000
v 0.215134 0.594375 -0.100000
v 0.230142 0.597078 -0.100000
v 0.246000 0.598000 -0.100000
v 0.261477 0.596840 -0.100000
v 0.276319 0.593472 -0.100000
v 0.290391 0.588063 -0.100000
v 0.303556 0.580778 -0.100000
v 0.315679 0.571785 -0.100000
v 0.326625 0.561250 -0.100000
v 0.336259 0.549340 -0.100000
v 0.344444 0.536222 -0.100000
v 0.351047 0.522062 -0.100000
v 0.355931 0.507028 -0.100000
v 0.358960 0.491285 -0.100000
v 0.360000 0.475000 -0.100000
v 0.359997 0.470805 -0.100000
v 0.359977 0.466690 -0.100000
v 0.359922 0.462609 -0.100000
v 0.359815 0.458519 -0.100000
v 0.359638 0.454372 -0.100000
v 0.359375 0.450125 -0.100000
v 0.359008 0.445732 -0.100000
v 0.358519 0.441148 -0.100000
v 0.357891 0.436328 -0.100000
v 0.357107 0.431227 -0.100000
v 0.356149 0.425799 -0.100000
v 0.355000 0.420000 -0.100000
v 0.345715 0.413810 -0.100000
v 0.336389 0.408231 -0.100000
v 0.327062 0.403250 -0.100000
v 0.317778 0.398852 -0.100000
v 0.308576 0.395023 -0.100000
v 0.299500 0.391750 -0.100000
v 0.290590 0.389019 -0.100000
v 0.281889 0.386815 -0.100000
v 0.273437 0.385125 -0.100000
v 0.265278 0.383935 -0.100000
v 0.257451 0.383231 -0.100000
v 0.250000 0.383000 -0.100000
v 0.234273 0.383979 -0.100000
v 0.219185 0.386829 -0.100000
v 0.204875 0.391422 -0.100000
v 0.191481 0.397630 -0.100000
v 0.179144 0.405324 -0.100000
v 0.168000 0.414375 -0.100000
v 0.158190 0.424656 -0.100000
v 0.149852 0.436037 -0.100000
v 0.143125 0.448391 -0.100000
v 0.138148 0.461588 -0.100000
v 0.135060 0.475501 -0.100000
vn 0.0000 0.0000 -1.0000
vn -0.0000 0.0000 1.0000
vn 0.4598 -0.8880 0.0000
vn 0.9820 0.1890 0.0000
vn -0.2441 0.9698 0.0000
vn 0.6447 -0.7644 -0.0000
vn -0.5592 0.8290 0.0000
vn 0.2026 0.9793 0.0000
vn -0.4920 0.8706 0.0000
vn -0.4483 0.8939 0.0000
vn -0.0621 -0.9981 0.0000
vn -0.8956 0.4449 0.0000
vn -0.9357 -0.3529 0.0000
vn 0.9511 0.3089 0.0000
vn 0.9965 -0.0834 0.0000
vn -0.8782 -0.4782 0.0000
vn 0.7605 -0.6493 0.0000
vn 0.8383 0.5452 0.0000
vn -0.7417 0.6707 0.0000
vn -0.0580 0.9983 0.0000
vn 0.9981 -0.0619 0.0000
vn 0.2931 -0.9561 0.0000
vn -0.1773 0.9842 0.0000
vn -0.9673 0.2538 0.0000
vn -0.3532 -0.9356 0.0000
vn 0.3392 -0.9407 0.0000
vn -0.9618 -0.2738 0.0000
vn 0.1961 -0.9806 0.0000
vn -0.9816 0.1907 0.0000
vn 0.9980 0.0637 0.0000
vn 0.5661 -0.8244 -0.0000
vn 0.9492 0.3148 0.0000
vn 0.4562 0.8899 0.0000
vn -0.4181 0.9084 0.0000
vn -0.8067 -0.5910 0.0000
vn 0.0676 0.9977 0.0000
vn 0.7616 0.6480 0.0000
vn 0.6836 -0.7299 0.0000
vn 0.9848 -0.1738 0.0000
vn 0.2455 -0.9694 0.0000
vn -0.0250 0.9997 0.0000
vn -0.9410 0.3384 0.0000
vn -0.9476 0.3194 0.0000
vn 0.9063 0.4226 0.0000
vn 0.3346 -0.9423 0.0000
vn -0.9867 -0.1625 0.0000
vn 0.9806 -0.1962 0.0000
vn 1.0000 -0.0007 0.0000
vn -0.6305 -0.7762 0.0000
vn 0.9061 -0.4230 0.0000
vn 0.8395 -0.5433 0.0000
vn -0.8741 0.4857 0.0000
vn 0.3331 0.9429 0.0000
vn -0.7235 -0.6904 0.0000
vn -0.1856 -0.9826 0.0000
vn 0.2213 0.9752 0.0000
vn 0.4711 -0.8821 0.0000
vn 0.8718 -0.4899 0.0000
vn 0.5958 0.8031 0.0000
vn -0.0728 0.9973 0.0000
vn 0.9011 0.4336 0.0000
vn 0.9944 -0.1061 0.0000
vn -0.9986 -0.0533 0.0000
vn -0.5340 0.8455 0.0000
vn -0.7971 -0.6038 0.0000
vn -0.6876 0.7261 0.0000
vn 0.9980 0.0636 0.0000
vn 0.9999 -0.0135 0.0000
vn -0.4852 -0.8744 0.0000
vn -0.9984 0.0560 0.0000
vn -0.6427 0.7661 0.0000
vn 0.6718 0.7408 0.0000
vn -0.8344 0.5512 0.0000
vn -0.2982 0.9545 0.0000
vn 0.9809 -0.1943 0.0000
vn 0.7222 -0.6917 0.0000
vn 0.0896 -0.9960 0.0000
vn -0.3649 0.9310 0.0000
vn -0.2843 0.9587 0.0000
vn 0.8356 -0.5493 0.0000
vn 0.0747 0.9972 0.0000
vn 0.9978 -0.0668 0.0000
vn -0.7411 0.6714 0.0000
vn 0.7984 -0.6021 0.0000
vn 0.1443 -0.9895 0.0000
vn 0.9816 0.1907 0.0000
vn -0.0704 -0.9975 0.0000
vn 0.4281 -0.9037 0.0000
vn -0.9762 -0.2167 0.0000
vn -0.7904 0.6126 0.0000
vn 0.7648 -0.6443 0.0000
vn 0.4842 0.8750 0.0000
vn 0.9650 -0.2622 0.0000
vn 0.2022 -0.9793 0.0000
vn 0.5547 -0.8321 0.0000
vn 1.0000 -0.0049 0.0000
vn -0.3056 -0.9522 0.0000
vn 0.3588 0.9334 0.0000
vn 0.8484 0.5294 0.0000
vn 0.9916 -0.1292 0.0000
vn -0.1614 0.9869 0.0000
vn 0.6934 0.7205 0.0000
vn -0.4060 0.9139 0.0000
vn -0.8681 -0.4965 0.0000
vn -0.1181 0.9930 0.0000
vn -0.6048 -0.7963 0.0000
vn -0.6271 0.7789 0.0000
vn -0.8262 0.5634 0.0000
vn 0.3842 -0.9233 0.0000
vn 0.0310 -0.9995 0.0000
vn -0.9226 -0.3857 0.0000
vn 0.9997 -0.0262 0.0000
vn -0.9871 0.1601 0.0000
vn -0.9973 -0.0729 0.0000
vn -0.3245 0.9459 0.0000
vn 0.6763 -0.7366 0.0000
vn 0.7775 0.6289 0.0000
vn -0.2132 -0.9770 0.0000
vn 0.5696 0.8219 0.0000
vn 0.9006 -0.4347 0.0000
vn 0.9991 -0.0425 0.0000
vn 0.0668 -0.9978 0.0000
vn 0.5133 -0.8582 0.0000
vn 0.6055 -0.7958 -0.0000
vn -0.4205 -0.9073 0.0000
vn 0.9478 -0.3190 0.0000
vn -0.9980 0.0625 0.0000
vn 0.9377 -0.3474 0.0000
vn -0.7093 -0.7049 0.0000
vn -0.5291 -0.8485 0.0000
vn -0.9097 0.4152 0.0000
vn -0.2032 0.9791 0.0000
vn 0.5744 -0.8186 0.0000
vn 0.9884 -0.1519 0.0000
vn 0.7682 0.6402 0.0000
usemtl None
s off
f 26//1 25//1 24//1
f 27//1 26//1 24//1
f 27//1 24//1 23//1
f 28//1 27//1 23//1
f 28//1 23//1 22//1
f 29//1 28//1 22//1
f 29//1 22//1 21//1
f 30//1 29//1 21//1
f 30//1 21//1 20//1
f 31//1 30//1 20//1
f 31//1 20//1 19//1
f 32//1 31//1 19//1
f 32//1 19//1 18//1
f 33//1 32//1 85//1
f 85//1 32//1 86//1
f 86//1 32//1 18//1
f 87//1 86//1 18//1
f 33//1 85//1 84//1
f 88//1 87//1 18//1
f 88//1 18//1 17//1
f 33//1 84//1 83//1
f 89//1 88//1 17//1
f 33//1 83//1 82//1
f 90//1 89//1 17//1
f 34//1 33//1 82//1
f 34//1 82//1 81//1
f 91//1 90//1 17//1
f 34//1 81//1 80//1
f 92//1 91//1 17//1
f 92//1 17//1 16//1
f 34//1 80//1 79//1
f 35//1 34//1 79//1
f 93//1 92//1 16//1
f 35//1 79//1 78//1
f 94//1 93//1 16//1
f 35//1 78//1 77//1
f 94//1 16//1 15//1
f 36//1 35//1 77//1
f 95//1 94//1 15//1
f 36//1 77//1 76//1
f 96//1 95//1 15//1
f 36//1 76//1 75//1
f 37//1 36//1 75//1
f 96//1 15//1 14//1
f 97//1 96//1 14//1
f 37//1 75//1 74//1
f 98//1 97//1 14//1
f 37//1 74//1 133//1
f 38//1 37//1 133//1
f 98//1 14//1 13//1
f 38//1 133//1 132//1
f 99//1 98//1 13//1
f 100//1 99//1 13//1
f 101//1 100//1 13//1
f 102//1 101//1 13//1
f 39//1 38//1 132//1
f 39//1 132//1 131//1
f 103//1 102//1 13//1
f 104//1 103//1 13//1
f 105//1 104//1 13//1
f 39//1 131//1 130//1
f 106//1 105//1 13//1
f 106//1 13//1 12//1
f 107//1 106//1 12//1
f 108//1 107//1 12//1
f 39//1 130//1 129//1
f 40//1 39//1 129//1
f 109//1 108//1 12//1
f 110//1 109//1 12//1
f 40//1 129//1 128//1
f 111//1 110//1 12//1
f 40//1 128//1 127//1
f 112//1 111//1 12//1
f 41//1 40//1 127//1
f 113//1 112//1 12//1
f 41//1 127//1 126//1
f 114//1 113//1 12//1
f 114//1 12//1 11//1
f 115//1 114//1 11//1
f 41//1 126//1 125//1
f 116//1 115//1 11//1
f 117//1 116//1 11//1
f 41//1 125//1 124//1
f 118//1 117//1 11//1
f 42//1 41//1 124//1
f 42//1 124//1 123//1
f 119//1 118//1 11//1
f 120//1 119//1 11//1
f 42//1 123//1 122//1
f 121//1 120//1 11//1
f 122//1 121//1 11//1
f 42//1 122//1 11//1
f 43//1 42//1 11//1
f 43//1 11//1 10//1
f 44//1 43//1 10//1
f 45//1 44//1 61//1
f 61//1 44//1 10//1
f 45//1 61//1 60//1
f 62//1 61//1 10//1
f 46//1 45//1 60//1
f 62//1 10//1 9//1
f 46//1 60//1 59//1
f 46//1 59//1 58//1
f 46//1 58//1 57//1
f 47//1 46//1 57//1
f 47//1 57//1 56//1
f 47//1 56//1 55//1
f 47//1 55//1 54//1
f 63//1 62//1 9//1
f 48//1 47//1 54//1
f 48//1 54//1 53//1
f 48//1 53//1 52//1
f 48//1 52//1 51//1
f 49//1 48//1 51//1
f 49//1 51//1 50//1
f 64//1 63//1 9//1
f 64//1 9//1 8//1
f 65//1 64//1 8//1
f 65//1 8//1 7//1
f 66//1 65//1 7//1
f 67//1 66//1 7//1
f 67//1 7//1 6//1
f 68//1 67//1 6//1
f 69//1 68//1 6//1
f 69//1 6//1 5//1
f 70//1 69//1 5//1
f 71//1 70//1 5//1
f 71//1 5//1 4//1
f 72//1 71//1 4//1
f 73//1 72//1 4//1
f 73//1 4//1 3//1
f 1//1 73//1 3//1
f 1//1 3//1 2//1
f 159//2 157//2 158//2
f 160//2 157//2 159//2
f 160//2 156//2 157//2
f 161//2 156//2 160//2
f 161//2 155//2 156//2
f 162//2 155//2 161//2
f 162//2 154//2 155//2
f 163//2 154//2 162//2
f 163//2 153//2 154//2
f 164//2 153//2 163//2
f 164//2 152//2 153//2
f 165//2 152//2 164//2
f 165//2 151//2 152//2
f 166//2 218//2 165//2
f 218//2 219//2 165//2
f 219//2 151//2 165//2
f 220//2 151//2 219//2
f 166//2 217//2 218//2
f 221//2 151//2 220//2
f 221//2 150//2 151//2
f 166//2 216//2 217//2
f 222//2 150//2 221//2
f 166//2 215//2 216//2
f 223//2 150//2 222//2
f 167//2 215//2 166//2
f 167//2 214//2 215//2
f 224//2 150//2 223//2
f 167//2 213//2 214//2
f 225//2 150//2 224//2
f 225//2 149//2 150//2
f 167//2 212//2 213//2
f 168//2 212//2 167//2
f 226//2 149//2 225//2
f 168//2 211//2 212//2
f 227//2 149//2 226//2
f 168//2 210//2 211//2
f 227//2 148//2 149//2
f 169//2 210//2 168//2
f 228//2 148//2 227//2
f 169//2 209//2 210//2
f 229//2 148//2 228//2
f 169//2 208//2 209//2
f 170//2 208//2 169//2
f 229//2 147//2 148//2
f 230//2 147//2 229//2
f 170//2 207//2 208//2
f 231//2 147//2 230//2
f 170//2 266//2 207//2
f 171//2 266//2 170//2
f 231//2 146//2 147//2
f 171//2 265//2 266//2
f 232//2 146//2 231//2
f 233//2 146//2 232//2
f 234//2 146//2 233//2
f 235//2 146//2 234//2
f 172//2 265//2 171//2
f 172//2 264//2 265//2
f 236//2 146//2 235//2
f 237//2 146//2 236//2
f 238//2 146//2 237//2
f 172//2 263//2 264//2
f 239//2 146//2 238//2
f 239//2 145//2 146//2
f 240//2 145//2 239//2
f 241//2 145//2 240//2
f 172//2 262//2 263//2
f 173//2 262//2 172//2
f 242//2 145//2 241//2
f 243//2 145//2 242//2
f 173//2 261//2 262//2
f 244//2 145//2 243//2
f 173//2 260//2 261//2
f 245//2 145//2 244//2
f 174//2 260//2 173//2
f 246//2 145//2 245//2
f 174//2 259//2 260//2
f 247//2 145//2 246//2
f 247//2 144//2 145//2
f 248//2 144//2 247//2
f 174//2 258//2 259//2
f 249//2 144//2 248//2
f 250//2 144//2 249//2
f 174//2 257//2 258//2
f 251//2 144//2 250//2
f 175//2 257//2 174//2
f 175//2 256//2 257//2
f 252//2 144//2 251//2
f 253//2 144//2 252//2
f 175//2 255//2 256//2
f 254//2 144//2 253//2
f 255//2 144//2 254//2
f 175//2 144//2 255//2
f 176//2 144//2 175//2
f 176//2 143//2 144//2
f 177//2 143//2 176//2
f 178//2 194//2 177//2
f 194//2 143//2 177//2
f 178//2 193//2 194//2
f 195//2 143//2 194//2
f 179//2 193//2 178//2
f 195//2 142//2 143//2
f 179//2 192//2 193//2
f 179//2 191//2 192//2
f 179//2 190//2 191//2
f 180//2 190//2 179//2
f 180//2 189//2 190//2
f 180//2 188//2 189//2
f 180//2 187//2 188//2
f 196//2 142//2 195//2
f 181//2 187//2 180//2
f 181//2 186//2 187//2
f 181//2 185//2 186//2
f 181//2 184//2 185//2
f 182//2 184//2 181//2
f 182//2 183//2 184//2
f 197//2 142//2 196//2
f 197//2 141//2 142//2
f 198//2 141//2 197//2
f 198//2 140//2 141//2
f 199//2 140//2 198//2
f 200//2 140//2 199//2
f 200//2 139//2 140//2
f 201//2 139//2 200//2
f 202//2 139//2 201//2
f 202//2 138//2 139//2
f 203//2 138//2 202//2
f 204//2 138//2 203//2
f 204//2 137//2 138//2
f 205//2 137//2 204//2
f 206//2 137//2 205//2
f 206//2 136//2 137//2
f 134//2 136//2 206//2
f 134//2 135//2 136//2
f 28//3 29//3 162//3 161//3
f 96//4 97//4 230//4 229//4
f 54//5 55//5 188//5 187//5
f 70//6 71//6 204//6 203//6
f 1//7 2//7 135//7 134//7
f 47//8 48//8 181//8 180//8
f 60//9 61//9 194//9 193//9
f 59//10 60//10 193//10 192//10
f 122//11 123//11 256//11 255//11
f 77//12 78//12 211//12 210//12
f 131//13 132//13 265//13 264//13
f 95//14 96//14 229//14 228//14
f 104//15 105//15 238//15 237//15
f 130//16 131//16 264//16 263//16
f 67//17 68//17 201//17 200//17
f 41//18 42//18 175//18 174//18
f 4//19 5//19 138//19 137//19
f 85//20 86//20 219//20 218//20
f 103//21 104//21 237//21 236//21
f 116//22 117//22 250//22 249//22
f 84//23 85//23 218//23 217//23
f 10//24 11//24 144//24 143//24
f 22//25 23//25 156//25 155//25
f 115//26 116//26 249//26 248//26
f 15//27 16//27 149//27 148//27
f 118//28 119//28 252//28 251//28
f 75//29 76//29 209//29 208//29
f 97//30 98//30 231//30 230//30
f 72//31 73//31 206//31 205//31
f 39//32 40//32 173//32 172//32
f 45//33 46//33 179//33 178//33
f 82//34 83//34 216//34 215//34
f 129//35 130//35 263//35 262//35
f 48//36 49//36 182//36 181//36
f 42//37 43//37 176//37 175//37
f 69//38 70//38 203//38 202//38
f 108//39 109//39 242//39 241//39
f 117//40 118//40 251//40 250//40
f 49//41 50//41 183//41 182//41
f 9//42 10//42 143//42 142//42
f 76//43 77//43 210//43 209//43
f 94//44 95//44 228//44 227//44
f 27//45 28//45 161//45 160//45
f 14//46 15//46 148//46 147//46
f 35//47 36//47 169//47 168//47
f 98//48 99//48 232//48 231//48
f 127//49 128//49 261//49 260//49
f 63//50 64//50 197//50 196//50
f 32//51 33//51 166//51 165//51
f 7//52 8//52 141//52 140//52
f 46//53 47//53 180//53 179//53
f 128//54 129//54 262//54 261//54
f 123//55 124//55 257//55 256//55
f 87//56 88//56 221//56 220//56
f 112//57 113//57 246//57 245//57
f 64//58 65//58 198//58 197//58
f 90//59 91//59 224//59 223//59
f 50//60 51//60 184//60 183//60
f 40//61 41//61 174//61 173//61
f 105//62 106//62 239//62 238//62
f 13//63 14//63 147//63 146//63
f 81//64 82//64 215//64 214//64
f 18//65 19//65 152//65 151//65
f 3//66 4//66 137//66 136//66
f 37//67 38//67 171//67 170//67
f 100//68 101//68 234//68 233//68
f 21//69 22//69 155//69 154//69
f 12//70 13//70 146//70 145//70
f 80//71 81//71 214//71 213//71
f 43//72 44//72 177//72 176//72
f 6//73 7//73 140//73 139//73
f 83//74 84//74 217//74 216//74
f 109//75 110//75 243//75 242//75
f 68//76 69//76 202//76 201//76
f 120//77 121//77 254//77 253//77
f 57//78 58//78 191//78 190//78
f 55//79 56//79 189//79 188//79
f 65//80 66//80 199//80 198//80
f 86//81 87//81 220//81 219//81
f 36//82 37//82 170//82 169//82
f 79//83 80//83 213//83 212//83
f 66//84 67//84 200//84 199//84
f 119//85 120//85 253//85 252//85
f 38//86 39//86 172//86 171//86
f 24//87 25//87 158//87 157//87
f 113//88 114//88 247//88 246//88
f 132//89 133//89 266//89 265//89
f 5//90 6//90 139//90 138//90
f 31//91 32//91 165//91 164//91
f 89//92 90//92 223//92 222//92
f 61//93 62//93 195//93 194//93
f 26//94 27//94 160//94 159//94
f 110//95 111//95 244//95 243//95
f 99//96 100//96 233//96 232//96
f 124//97 125//97 258//97 257//97
f 88//98 89//98 222//98 221//98
f 93//99 94//99 227//99 226//99
f 106//100 107//100 240//100 239//100
f 52//101 53//101 186//101 185//101
f 91//102 92//102 225//102 224//102
f 58//103 59//103 192//103 191//103
f 17//104 18//104 151//104 150//104
f 51//105 52//105 185//105 184//105
f 20//106 21//106 154//106 153//106
f 2//107 3//107 136//107 135//107
f 78//108 79//108 212//108 211//108
f 114//109 115//109 248//109 247//109
f 121//110 122//110 255//110 254//110
f 16//111 17//111 150//111 149//111
f 101//112 102//112 235//112 234//112
f 11//113 12//113 145//113 144//113
f 133//114 74//114 207//114 266//114
f 56//115 57//115 190//115 189//115
f 30//116 31//116 164//116 163//116
f 92//117 93//117 226//117 225//117
f 23//118 24//118 157//118 156//118
f 44//119 45//119 178//119 177//119
f 33//120 34//120 167//120 166//120
f 102//121 103//121 236//121 235//121
f 25//122 26//122 159//122 158//122
f 111//123 112//123 245//123 244//123
f 71//124 72//124 205//124 204//124
f 125//125 126//125 259//125 258//125
f 34//126 35//126 168//126 167//126
f 74//127 75//127 208//127 207//127
f 62//128 63//128 196//128 195//128
f 19//129 20//129 153//129 152//129
f 126//130 127//130 260//130 259//130
f 8//131 9//131 142//131 141//131
f 53//132 54//132 187//132 186//132
f 29//133 30//133 163//133 162//133
f 107//134 108//134 241//134 240//134
f 73//135 1//135 134//135 206//135
