# Blender v2.79 (sub 0) OBJ File: 'tree.blend'
# www.blender.org
mtllib CornerConnectionUpwards.mtl
o tile.013_tile.006_tile.013_tile.010
v 0.500000 0.200000 -0.500000
v -0.500000 0.700001 0.500000
v 0.500000 0.200000 0.500000
v -0.500000 0.199999 -0.500000
v -0.500000 0.600001 0.500000
v 0.500000 0.100000 0.500000
v 0.500000 0.100000 -0.500000
v -0.500000 0.099999 -0.500000
v -0.500000 -0.000001 -0.500000
v 0.500000 -0.000000 0.500000
v -0.500000 0.500001 0.500000
v 0.500000 0.000000 -0.500000
vt 0.075753 0.680928
vt 0.760669 0.672506
vt 0.378682 0.950010
vt 0.134691 0.672504
vt 0.654108 0.585656
vt 0.461909 0.883593
vt 0.733898 0.601551
vt 0.267129 0.738727
vt 0.747822 0.579188
vt 0.042063 0.751242
vt 0.497102 0.767972
vt 0.045044 0.797261
vt 0.746016 0.649683
vt 0.284862 0.629425
vt 0.746016 0.629424
vt 0.777011 0.762051
vt 0.288681 0.681015
vt 0.271842 0.660756
vt 0.253206 0.761090
vt 0.494121 0.721953
vt 0.284862 0.649684
vt 0.793850 0.782310
vt 0.257946 0.136537
vt 0.759977 0.118207
vt 0.525494 0.433467
vt 0.182725 0.170205
vt 0.830303 0.173343
vt 0.509838 0.435187
vt 0.685971 0.226972
vt 0.191163 0.212896
vt 0.171733 0.195107
vt 0.847213 0.111535
vt 0.386059 0.091276
vt 0.847213 0.091276
vt 0.578236 0.234927
vt 0.158399 0.411217
vt 0.144943 0.367108
vt 0.796042 0.247714
vt 0.310097 0.224295
vt 0.816527 0.231151
vt 0.705401 0.244761
vt 0.386059 0.111535
vt 0.591692 0.279036
vt 0.289612 0.240858
vn 0.2357 0.9428 -0.2357
vn 0.4472 0.8944 0.0000
vn -0.0000 0.8944 -0.4472
vn -0.0000 -0.0000 1.0000
vn 1.0000 0.0000 0.0000
vn 0.0000 0.0000 -1.0000
vn -1.0000 0.0000 0.0000
vn -0.2270 -0.9470 0.2270
vn -0.4082 -0.8165 0.4082
vn 0.0000 -1.0000 -0.0000
usemtl FinalGrass
s 1
f 1/1/1 2/2/1 3/3/2
f 2/4/1 1/5/1 4/6/3
f 5/7/4 3/8/4 2/9/4
f 6/10/5 1/11/5 3/12/5
f 4/13/6 7/14/6 8/15/6
f 4/16/7 5/17/7 2/18/7
f 5/7/4 6/19/4 3/8/4
f 6/10/5 7/20/5 1/11/5
f 4/13/6 1/21/6 7/14/6
f 4/16/7 8/22/7 5/17/7
usemtl FinalGround
f 9/23/8 10/24/8 11/25/9
f 10/26/8 9/27/8 12/28/10
f 8/29/7 11/30/7 5/31/7
f 8/32/6 12/33/6 9/34/6
f 12/35/5 6/36/5 10/37/5
f 11/38/4 6/39/4 5/40/4
f 8/29/7 9/41/7 11/30/7
f 8/32/6 7/42/6 12/33/6
f 12/35/5 7/43/5 6/36/5
f 11/38/4 10/44/4 6/39/4
