# Blender v2.79 (sub 0) OBJ File: 'tree.blend'
# www.blender.org
mtllib DiagonalConnectionTileUpwardsStraight.mtl
o tile.009_tile.004
v 0.500000 0.000000 -0.500000
v -0.500000 0.500001 0.500000
v -0.500000 0.500001 -0.500000
v -0.500000 0.600001 0.500000
v 0.500000 0.200000 0.500000
v -0.500000 0.700001 0.500000
v 0.500000 0.100000 -0.500000
v -0.500000 0.600001 -0.500000
v 0.500000 -0.000000 0.500000
v 0.500000 0.100000 0.500000
v 0.500000 0.200000 -0.500000
v -0.500000 0.700001 -0.500000
vt 0.180474 0.770097
vt 0.824712 0.752425
vt 0.155635 0.799387
vt 0.441988 0.986110
vt 0.017858 0.949073
vt 0.441988 0.949073
vt 0.657771 0.673318
vt 0.233641 0.636281
vt 0.657771 0.636281
vt 0.953084 0.671673
vt 0.063539 0.688140
vt 0.027428 0.649322
vt 0.018311 0.954274
vt 0.944078 0.529799
vt 0.944236 0.953929
vt 0.849551 0.723134
vt 0.017858 0.986110
vt 0.233641 0.673318
vt 0.989195 0.710491
vt 0.018152 0.530145
vt 0.178148 0.434947
vt 0.714265 0.189373
vt 0.714265 0.434947
vt 0.155793 0.246189
vt 0.868298 0.219383
vt 0.897826 0.249934
vt 0.499531 0.350493
vt 0.075402 0.387530
vt 0.075402 0.350493
vt 0.848259 0.037037
vt 0.424129 0.000000
vt 0.848259 0.000000
vt 0.840760 0.322373
vt 0.216486 0.377341
vt 0.863150 0.292484
vt 0.178148 0.189373
vt 0.126265 0.215638
vt 0.499531 0.387530
vt 0.424129 0.037037
vt 0.194096 0.407229
vn -0.0000 -0.0000 1.0000
vn -1.0000 -0.0000 0.0000
vn 1.0000 0.0000 0.0000
vn 0.0000 0.0000 -1.0000
vn 0.4472 0.8944 0.0000
vn -0.4472 -0.8944 -0.0000
usemtl FinalGrass
s 1
f 4/1/1 5/2/1 6/3/1
f 6/4/2 8/5/2 4/6/2
f 11/7/3 10/8/3 7/9/3
f 11/10/4 8/11/4 12/12/4
f 12/13/5 5/14/5 11/15/5
f 4/1/1 10/16/1 5/2/1
f 6/4/2 12/17/2 8/5/2
f 11/7/3 5/18/3 10/8/3
f 11/10/4 7/19/4 8/11/4
f 12/13/5 6/20/5 5/14/5
usemtl FinalGround
f 1/21/6 2/22/6 3/23/6
f 7/24/4 3/25/4 8/26/4
f 2/27/2 8/28/2 3/29/2
f 7/30/3 9/31/3 1/32/3
f 2/33/1 10/34/1 4/35/1
f 1/21/6 9/36/6 2/22/6
f 7/24/4 1/37/4 3/25/4
f 2/27/2 4/38/2 8/28/2
f 7/30/3 10/39/3 9/31/3
f 2/33/1 9/40/1 10/34/1
