# Blender v2.79 (sub 0) OBJ File: 'tree.blend'
# www.blender.org
mtllib Tile.mtl
o tile.005_tile.012
v 0.500000 0.100000 0.500000
v 0.500000 0.100000 -0.500000
v 0.500000 0.200000 -0.500000
v 0.500000 0.200000 0.500000
v -0.500000 0.200000 -0.500000
v -0.500000 0.200000 0.500000
v -0.500000 0.100000 -0.500000
v 0.500000 0.000000 -0.500000
v 0.500000 -0.000000 0.500000
v -0.500000 -0.000000 0.500000
v -0.500000 0.000000 -0.500000
v -0.500000 0.100000 0.500000
vt 0.611111 0.500000
vt 0.611111 1.000000
vt 0.666667 1.000000
vt 0.666667 0.500000
vt 0.000000 0.500000
vt 0.000000 1.000000
vt 0.555555 1.000000
vt 0.555555 0.500000
vt 0.833333 0.500000
vt 0.833333 1.000000
vt 0.888889 1.000000
vt 0.888889 0.500000
vt 0.666667 1.000000
vt 0.722222 1.000000
vt 0.722222 0.500000
vt 1.000000 1.000000
vt 1.000000 0.500000
vt 0.944444 0.500000
vt 0.944444 1.000000
vt 0.555555 0.000000
vt 0.000000 0.000000
vt 0.000000 0.500000
vt 0.555555 0.500000
vt 0.944444 0.500000
vt 0.944444 0.000000
vt 0.888889 0.000000
vt 0.888889 0.500000
vt 0.722222 0.500000
vt 0.777778 0.500000
vt 0.777778 0.000000
vt 0.722222 0.000000
vt 0.777778 0.000000
vt 0.777778 0.500000
vt 0.833333 0.500000
vt 0.833333 0.000000
vt 0.555555 0.000000
vt 0.555556 0.500000
vt 0.611111 0.500000
vt 0.611111 0.000000
vn 1.0000 0.0000 0.0000
vn 0.0000 1.0000 0.0000
vn 0.0000 0.0000 -1.0000
vn 0.0000 -0.0000 1.0000
vn -1.0000 0.0000 0.0000
vn 0.0000 -1.0000 -0.0000
usemtl FinalGrass
s 1
f 1/1/1 2/2/1 3/3/1 4/4/1
f 4/5/2 3/6/2 5/7/2 6/8/2
f 2/9/3 7/10/3 5/11/3 3/12/3
f 6/13/4 12/14/4 1/15/4 4/4/4
f 6/16/5 5/17/5 7/18/5 12/19/5
usemtl FinalGround
f 8/20/6 9/21/6 10/22/6 11/23/6
f 12/24/5 7/25/5 11/26/5 10/27/5
f 12/28/4 10/29/4 9/30/4 1/31/4
f 8/32/3 11/33/3 7/34/3 2/35/3
f 9/36/1 8/37/1 2/38/1 1/39/1
